<svg width="611" height="763" viewBox="0 0 611 763" fill="none" xmlns="http://www.w3.org/2000/svg">
<path opacity="0.8" d="M-171 616.368L-165.273 635.931H-155.093V654.982H-145.548L-141.094 665.188L-130.914 662.637L-125.823 672.843L-115.007 662.637L-111.189 654.982L-105.462 665.188L-92.1001 680.498H-75.5565L-68.5574 700.06L-63.4671 719.623L-59.6493 728.128L-49.4687 725.576L-44.3784 732.381L-36.7429 742.587L-29.1074 738.334L-25.2897 746.84L-13.8365 750.242L-17.6542 753.644L-8.74614 756.196L-4.29211 763L2.07079 753.644L11.6151 756.196L22.4321 750.242L29.4312 740.035L48.5199 746.84L55.5191 756.196L61.882 740.035L73.3352 728.978L86.6973 734.83L89.8788 716.969L105.786 725.576V733.231L117.875 725.576L130.601 734.83L148.417 733.231L147.145 720.473L157.325 725.576L160.507 712.818L175.142 716.969L183.413 709.416H200.593L203.775 716.969H211.41L215.864 722.174L220.318 711.117L229.226 705.912L238.771 716.969L248.951 712.818L254.678 725.576H267.404V716.969L275.675 725.576L288.401 720.473L293.491 729.829L303.672 728.128L306.217 736.633L312.58 741.737L316.398 734.83H324.67L334.214 741.737L343.758 736.633L349.485 743.438L355.848 741.737V749.391L363.483 756.196L375.573 740.035H388.299L382.572 728.128L390.207 716.22L392.753 728.128L399.115 724.726L408.024 729.829V740.035L419.477 736.633L427.112 743.438L434.748 734.932L445.565 736.633L455.109 728.128L452.564 722.174L463.381 724.726V713.669L474.834 719.623L488.832 710.267L500.286 715.37L502.831 722.174L503.467 721.324L508.557 723.875L506.648 730.68H512.375L514.92 725.576L518.738 729.829L519.374 726.427L521.919 725.576V722.174L525.737 719.623L529.555 722.174V724.726L532.736 723.875L535.282 716.22L538.463 722.174L541.644 717.071L540.372 713.669L542.917 710.267L544.19 716.22V697.509H550.552V671.992L563.278 659.234L550.552 644.775V620.96L559.461 618.409L558.824 605.651L569.641 601.398L574.731 593.743L572.186 582.686L576.004 578.433L583.003 582.686L590.002 572.48L588.094 564.825L591.911 555.469L597.638 553.768L600.183 549.515L597.638 548.665L595.729 544.412L597.638 540.159L600.183 534.205L597.638 529.102L600.819 525.7L595.729 522.298L594.456 517.195L597.638 513.792L591.275 512.942V507.839L589.366 503.586L592.548 502.735L588.73 498.483L589.366 494.23H591.911L594.456 489.127L596.365 481.472L591.275 475.518L593.184 465.312L588.094 455.956L588.73 446.6H594.456L598.91 438.945L593.82 436.394L588.73 430.44L586.821 425.337L593.184 420.233L589.366 415.981L590.639 408.326L588.094 404.073L597.002 393.867V387.913L593.184 384.511L595.729 381.109H600.819L604.001 376.005L602.092 370.052H608.455L607.182 364.098L611 365.799V358.144L608.455 351.34H602.092L603.365 343.685L598.91 339.432L597.638 335.18L599.547 334.329L602.092 330.076L598.91 327.525L595.729 317.318L593.184 304.56L600.819 302.859L607.182 285.848L597.002 288.4L589.366 279.044L579.185 259.482L577.277 246.724L574.095 228.012H560.097L553.098 204.197L566.46 191.439L560.097 181.232L555.643 161.67L560.097 146.36L555.643 138.705L559.461 129.349L550.552 126.798V120.844L554.37 113.189L551.825 103.833L560.097 96.1785L551.825 89.3741L548.007 76.6161L550.552 67.2602L544.826 57.0538L536.554 48.5484L532.736 56.2032L531.464 45.1462L526.373 34.0892L525.101 19.6301L530.191 9.42365L521.919 2.61932L518.738 -16.0924L513.648 -12.6903L512.375 -6.73657L507.285 -9.28815L506.012 -19.4946L499.649 -26.299L493.286 -19.4946L486.923 -25.4484L486.287 -20.3451H482.469L480.561 -16.0924L477.379 -19.4946L478.015 -22.8967L476.107 -25.4484H472.925L471.016 -22.8967H469.107L467.835 -24.5978H465.29L463.381 -23.7473L462.745 -21.1957L462.108 -22.8967L460.199 -23.7473H458.29L457.654 -22.0463V-24.5978H455.745L453.836 -26.299L452.564 -24.5978L451.291 -23.7473L449.382 -24.5978L448.746 -22.8967V-22.0463L448.11 -21.1957H446.837L446.201 -19.4946L444.928 -18.644V-16.943L443.656 -17.7936V-18.644H442.383L441.747 -19.4946L441.111 -17.7936L439.838 -18.644L439.202 -16.943L437.929 -15.2419L436.657 -13.5408H439.202L438.565 -12.6903L436.657 -10.9893L435.384 -9.28815L433.475 -8.43762L431.566 -9.28815L429.021 -6.73657L426.476 -9.28815L423.931 -10.9893L422.022 -8.43762V-10.1387L419.477 -10.9893L418.841 -9.28815L417.568 -8.43762L415.659 -9.28815L414.386 -8.43762L413.75 -10.1387H411.841L412.478 -10.9893V-12.6903L411.841 -13.5408L411.205 -12.6903L410.569 -13.5408V-14.3914H409.296V-16.0924L408.66 -15.2419L408.024 -16.0924H406.751L403.57 -16.943H401.661L401.024 -14.3914L399.752 -15.2419L399.115 -16.943H396.57L395.298 -18.644L393.389 -16.943L392.116 -17.7936L392.753 -16.0924H390.844L390.207 -16.943L388.299 -15.2419L387.662 -16.0924L386.39 -14.3914L385.753 -15.2419L385.117 -13.5408L382.572 -12.6903L381.936 -13.5408V-15.2419L380.663 -16.0924L379.391 -14.3914L380.027 -13.5408H378.754L378.118 -14.3914L376.845 -12.6903L375.573 -13.5408V-15.2419H374.936L375.573 -16.943V-17.7936L374.3 -19.4946L373.664 -18.644L369.21 -16.0924L366.028 -17.7936L363.483 -12.6903L361.574 -15.2419L357.12 -16.943L353.939 -14.3914L351.394 -13.5408L348.212 -15.2419L348.849 -18.644L345.667 -17.7936L343.758 -21.1957L341.849 -18.644L339.941 -21.1957L337.395 -20.3451V-23.7473L334.214 -22.8967L333.578 -21.1957H331.033L329.124 -22.8967L327.215 -24.5978L324.67 -22.0463L323.397 -23.7473H320.216L320.852 -21.1957L318.307 -22.8967L318.943 -20.3451H317.034L315.762 -18.644V-16.943L313.853 -17.7936V-19.4946L311.944 -18.644L312.58 -21.1957L310.671 -20.3451L309.399 -19.4946L308.762 -21.1957L306.854 -22.0463L307.49 -23.7473L304.945 -22.8967V-23.7473L304.308 -25.4484L303.672 -26.299L302.4 -23.7473V-25.4484H301.127H299.854L299.218 -24.5978L297.945 -25.4484V-27.1494L297.309 -26.299L296.037 -28L294.128 -24.5978L295.4 -22.8967L293.491 -21.1957L292.855 -22.8967L290.946 -24.5978L287.765 -23.7473L284.583 -21.1957L285.22 -18.644L283.311 -21.1957L281.402 -19.4946L282.038 -16.943L280.527 -14.3914L279.493 -16.943V-18.644H276.948L276.312 -16.943H274.403L273.528 -18.644L271.221 -16.943V-13.5408L269.949 -13.1156L269.312 -10.9893L269.949 -9.28815L268.676 -8.43762V-7.1618L265.495 -7.58704L263.586 -5.03552H261.041L258.495 -7.1618V-3.33441L255.95 -5.03552L254.678 -0.782776L253.405 -3.33441H251.496L250.224 -1.63336L248.315 -4.18494V-7.1618L245.133 -5.88599L244.497 -3.33441L243.225 -4.18494H241.316V-2.48389L239.407 -0.782776L238.771 -2.48389L237.498 -3.33441L236.225 -2.48389V-5.03552H234.316L233.044 -7.1618L231.771 -5.88599L232.408 -4.18494L230.499 -5.03552L228.59 -4.18494V-2.48389L226.681 -1.63336L225.408 -3.33441V-5.03552L224.772 -5.88599L224.136 -6.73657H222.863V-5.03552L220.954 -5.88599V-8.43762L219.682 -9.28815V-10.9893H217.773L212.683 -5.88599H206.956L205.047 -9.28815L199.957 -5.03552V-0.782776L194.867 0.067688L191.049 -4.18494L185.322 -0.782776L184.05 -3.33441L182.777 2.61932L178.959 -1.63336L180.232 4.32037L175.142 2.61932L170.688 3.8479L169.415 0.918274L165.597 -0.782776L163.052 2.61932L160.507 -1.63336L158.598 -7.20911L154.78 -3.33441L152.235 -6.73657L150.326 -10.9893H147.145L145.236 -5.88599L142.691 -9.28815V-13.5408L138.873 -10.1387L135.055 -12.6903L133.146 -16.0924L135.692 -19.4946L130.601 -18.644L128.692 -21.1957L127.42 -18.644L122.966 -16.0924L120.421 -18.644L116.603 -19.4946L115.33 -16.943L110.876 -18.644L108.967 -16.0924L109.604 -13.5408L105.786 -12.6903L103.241 -15.2419L100.696 -13.5408L98.7868 -16.0924L96.2416 -12.6903L94.3328 -15.2419L93.0602 -9.28815L91.7876 -13.5408L88.6062 -14.3914L89.2425 -9.28815L86.6973 -8.43762L84.7884 -5.03552L82.2433 -8.43762L79.0618 -2.48389L78.4255 -5.88599L74.6078 -0.782776L70.7901 -1.63336L73.3352 2.61932L68.8812 0.918274L67.6086 6.02148L65.0634 0.918274L64.4272 -3.33441L59.9731 0.918274L57.428 -2.48389L56.7917 0.918274L55.5191 -4.18494L50.4288 -6.73657L47.8837 -5.03552L48.5199 -0.782776L43.4296 -1.63336L40.8844 -5.03552L39.6119 -0.782776L35.7941 -3.33441L36.4304 -6.73657L31.3401 -7.58704L28.7949 -3.33441L26.8861 -6.73657L26.2498 -10.9893L22.4321 -7.58704L19.8869 -10.1387L17.978 -6.73657L13.524 -10.1387L16.0692 -14.3914L12.8877 -16.943L9.06996 -15.2419L9.70625 -19.4946L5.88852 -17.7936L2.70708 -20.3451L1.43449 -22.8967L-3.65582 -19.4946L-7.47357 -23.7473H-11.2913L-11.9276 -16.943L-17.0179 -13.5408L-21.4719 -19.4946L-26.5623 -13.5408L-29.1074 -16.943L-33.5614 -10.9893L-39.9243 -10.1387L-43.7421 -5.03552L-47.5598 -9.28815L-46.2872 -5.03552L-49.4687 -0.782776L-51.3775 -5.03552H-57.1042L-61.5582 -1.63336L-60.2856 4.32037L-64.1033 6.02148L-66.6485 3.46991L-66.0122 -3.33441H-69.8299L-74.284 -0.782776L-74.9203 -5.03552L-73.6477 -9.28815H-76.8291L-79.3743 -6.73657L-82.5557 -9.28815L-85.7372 -10.1387L-88.2823 -6.73657L-90.8275 -5.88599L-92.7364 -9.28815L-95.2815 -6.73657L-95.9178 -3.33441L-99.0993 -2.48389L-100.372 -5.88599L-102.281 -6.73657L-104.19 -2.48389L-106.735 -6.73657L-109.28 -5.88599L-110.552 -3.33441L-111.189 -5.03552L-112.461 -4.18494H-114.37L-113.734 -2.48389L-115.007 -0.782776L-113.734 0.067688L-114.37 1.76874H-116.279L-117.552 3.46991L-118.824 6.02148L-120.733 5.17096L-121.369 6.87201L-122.642 6.02148L-123.915 7.7226H-125.187L-125.823 6.02148L-127.732 4.32037L-128.369 7.7226L-129.641 6.87201H-130.914L-131.55 5.17096H-132.186L-131.55 3.46991L-132.186 2.61932L-133.459 0.918274H-135.368V2.61932L-137.913 1.76874L-139.186 -0.271301L-139.822 2.28033H-140.458L-141.469 1.76874L-142.367 3.13086L-143.64 4.83191L-144.912 2.61932L-145.548 5.6825H-147.457L-149.366 7.7226L-150.002 10.2742V11.9753H-149.366L-150.639 13.6763L-151.911 12.8257V14.5269L-152.548 16.228V17.929L-153.82 18.7796V20.4807L-152.548 21.3311H-153.184L-154.456 23.8828V26.4344L-153.82 29.8365H-156.365L-155.729 32.3881L-157.638 33.2387V34.9398L-158.274 35.7903L-157.638 38.3419L-158.91 40.8935H-157.002L-156.365 43.4451L-157.002 45.9968H-158.274L-157.002 49.3989L-158.91 52.8011L-156.365 56.2032L-159.547 57.9043V61.3065L-158.91 66.4097H-157.002V69.8118L-158.91 74.0645L-162.728 77.4667L-159.547 81.7194V87.6731L-158.274 91.0753L-158.91 94.4774H-157.002L-156.365 97.8795L-158.91 98.73L-157.638 102.983L-159.547 103.833L-157.638 105.534L-158.274 109.787L-157.002 114.04L-154.456 113.189L-153.82 116.591L-154.456 119.993H-152.548L-153.184 124.246L-150.639 125.947V129.349L-148.73 131.05V134.453L-150.002 136.154L-149.366 138.705L-150.639 140.406H-151.911L-150.639 143.809L-151.593 146.36L-151.275 149.762L-150.002 151.463L-152.548 152.314L-151.275 155.716L-148.094 156.567L-145.548 160.819L-146.185 165.072L-148.094 167.624L-151.275 168.474L-150.002 171.876L-152.866 172.727L-153.184 174.428L-152.548 177.161L-154.456 178.681L-152.548 181.232L-153.82 184.634V188.037L-156.365 188.887H-158.91V192.289L-162.728 190.588L-162.092 193.99L-160.183 196.542L-161.456 198.917L-163.365 199.605L-161.456 204.197L-158.91 205.047L-158.274 208.449L-161.456 211.512L-159.547 212.702V216.104L-157.638 219.167L-160.819 218.317L-162.092 222.569L-160.183 225.972L-162.728 224.271L-162.092 229.374L-165.91 231.075L-160.819 235.328L-162.092 242.132L-160.819 242.982L-162.092 250.637L-159.547 252.338L-157.638 253.189L-158.274 257.442L-156.365 259.143L-155.093 263.395L-156.365 266.797L-159.547 270.2L-157.002 271.901L-156.365 277.854V282.107L-153.82 284.659L-157.002 287.21L-157.638 290.612L-160.819 293.164L-162.092 299.118L-161.456 307.623L-157.638 308.474L-163.365 315.278L-162.092 320.381L-158.91 328.887L-153.82 332.289L-158.91 342.495L-163.365 340.794L-156.365 348.449V360.357L-149.366 358.656L-146.821 362.908L-147.457 373.115L-152.548 376.517L-157.638 380.77L-149.366 384.172L-147.457 393.528L-151.275 401.182V413.09L-156.365 415.642L-152.548 424.997L-156.365 430.101H-162.092L-156.365 442.008L-154.456 448.812L-161.456 455.617L-167.819 457.318L-161.456 464.973L-160.819 474.329L-165.273 485.386L-171 483.685L-165.273 498.144L-155.093 501.546V516.005L-165.273 532.165H-155.093L-150.002 544.073L-160.183 550.027L-165.273 569.589V597.657L-171 616.368Z" fill="white"/>
</svg>
