<svg width="1512" height="697" viewBox="0 0 1512 697" fill="none" xmlns="http://www.w3.org/2000/svg">
<path d="M1515 41H-18V697H1515V41Z" fill="#F4F4F4"/>
<path d="M-12.9307 46.7826V10.776L-3.32945 7.18403L-2.34754 8.31142H-0.835668V8.76402H-0.07973L0.676207 9.5787L1.43214 9.21662L1.83172 9.5787L2.94402 9.66923L3.69996 10.1218H4.45589L4.74463 10.5744H5.50057L5.65691 11.1751L7.01244 11.027V10.5744H7.76838L8.2569 10.4098L9.28025 9.66923L10.0362 10.1218L10.7921 9.66923L11.2593 9.5787L15.039 10.1218L16.5509 8.38136L20.3306 7.40621L21.1078 7.45732L21.4679 7.40621L21.8638 7.00472H22.6197L22.4228 7.24163L23.3756 7.00472V7.24163L24.1316 6.78903V6.33643L24.8875 6.55212L25.6435 6.33643L26.0018 6.50101L26.4715 6.04841H27.1553L27.9113 6.33643H28.6672V6.78903H29.4231L29.7516 6.50101L30.1791 6.78903L30.935 7.24163L31.691 6.78903H32.4469V6.33643H33.2028L34.1191 5.98669L34.6934 6.04841L35.4493 6.50101H36.2053H36.9612L36.2053 6.95361L36.9612 7.40621L37.7171 7.85881L38.4731 7.40621L39.229 7.18403L39.9849 7.40621V7.85881L41.4968 7.40621L41.67 7.98225L42.2528 7.40621L43.7294 7.18403H44.4158L45.1023 6.78491L44.4158 6.3858H45.1023L45.7887 6.78491V6.3858L47.1616 6.78491V5.98669L47.8481 6.3858V6.78491H48.5345V6.3858L49.221 6.78491V6.3858L49.9075 5.98669L50.5939 6.3858H51.2804V6.78491L51.9668 7.18403L52.6533 7.58314L53.3397 7.18403V7.58314H54.0262L54.7125 7.98225L54.0262 8.38136H54.7125L55.399 7.58314H56.0854L55.399 7.18403H56.0854H56.7719L58.1448 6.78491L60.2041 8.78047L64.3229 9.5787L65.0093 8.78047L66.3822 9.17959V8.38136L67.0687 8.78047H67.7551L68.4416 8.38136L69.8145 8.78047L70.5009 9.17959L72.5602 8.78047L74.6196 9.5787L75.9925 8.38136L76.6789 9.5787H78.7383L80.1112 10.776L81.4841 9.97781L82.1705 9.17959H83.5434L84.9163 8.38136L89.7214 7.98225L91.0943 5.58758L94.5266 3.99112H96.5859L98.6453 4.78935L101.391 3.99112H104.137L106.883 2.79379H109.628L111.688 1.99556L113.747 0L117.866 5.98669H128.163L139.146 10.776V102H-12.9307V46.7826Z" fill="#F4F4F4"/>
<path d="M139.146 46.7826V10.776L148.747 7.18403L149.729 8.31142H151.241V8.76402H151.996L152.752 9.5787L153.508 9.21662L153.908 9.5787L155.02 9.66923L155.776 10.1218H156.532L156.821 10.5744H157.577L157.733 11.1751L159.089 11.027V10.5744H159.845L160.333 10.4098L161.356 9.66923L162.112 10.1218L162.868 9.66923L163.336 9.5787L167.115 10.1218L168.627 8.38136L172.407 7.40621L173.184 7.45732L173.544 7.40621L173.94 7.00472H174.696L174.499 7.24163L175.452 7.00472V7.24163L176.208 6.78903V6.33643L176.964 6.55212L177.72 6.33643L178.078 6.50101L178.548 6.04841H179.231L179.987 6.33643H180.743V6.78903H181.499L181.828 6.50101L182.255 6.78903L183.011 7.24163L183.767 6.78903H184.523V6.33643H185.279L186.195 5.98669L186.77 6.04841L187.525 6.50101H188.281H189.037L188.281 6.95361L189.037 7.40621L189.793 7.85881L190.549 7.40621L191.305 7.18403L192.061 7.40621V7.85881L193.573 7.40621L193.746 7.98225L194.329 7.40621L195.806 7.18403H196.492L197.178 6.78491L196.492 6.3858H197.178L197.865 6.78491V6.3858L199.238 6.78491V5.98669L199.924 6.3858V6.78491H200.611V6.3858L201.297 6.78491V6.3858L201.984 5.98669L202.67 6.3858H203.357V6.78491L204.043 7.18403L204.729 7.58314L205.416 7.18403V7.58314H206.102L206.789 7.98225L206.102 8.38136H206.789L207.475 7.58314H208.162L207.475 7.18403H208.162H208.848L210.221 6.78491L212.28 8.78047L216.399 9.5787L217.085 8.78047L218.458 9.17959V8.38136L219.145 8.78047H219.831L220.518 8.38136L221.891 8.78047L222.577 9.17959L224.636 8.78047L226.696 9.5787L228.069 8.38136L228.755 9.5787H230.814L232.187 10.776L233.56 9.97781L234.247 9.17959H235.62L236.993 8.38136L241.798 7.98225L243.17 5.58758L246.603 3.99112H248.662L250.721 4.78935L253.467 3.99112H256.213L258.959 2.79379H261.705L263.764 1.99556L265.823 0L269.942 5.98669H280.239L291.222 10.776V102H139.146V46.7826Z" fill="#F4F4F4"/>
<path d="M291.223 46.7826V10.776L300.824 7.18403L301.806 8.31142H303.318V8.76402H304.074L304.83 9.5787L305.585 9.21662L305.985 9.5787L307.097 9.66923L307.853 10.1218H308.609L308.898 10.5744H309.654L309.81 11.1751L311.166 11.027V10.5744H311.922L312.41 10.4098L313.434 9.66923L314.19 10.1218L314.945 9.66923L315.413 9.5787L319.192 10.1218L320.704 8.38136L324.484 7.40621L325.261 7.45732L325.621 7.40621L326.017 7.00472H326.773L326.576 7.24163L327.529 7.00472V7.24163L328.285 6.78903V6.33643L329.041 6.55212L329.797 6.33643L330.155 6.50101L330.625 6.04841H331.309L332.065 6.33643H332.821V6.78903H333.576L333.905 6.50101L334.332 6.78903L335.088 7.24163L335.844 6.78903H336.6V6.33643H337.356L338.272 5.98669L338.847 6.04841L339.603 6.50101H340.359H341.115L340.359 6.95361L341.115 7.40621L341.87 7.85881L342.626 7.40621L343.382 7.18403L344.138 7.40621V7.85881L345.65 7.40621L345.823 7.98225L346.406 7.40621L347.883 7.18403H348.569L349.256 6.78491L348.569 6.3858H349.256L349.942 6.78491V6.3858L351.315 6.78491V5.98669L352.001 6.3858V6.78491H352.688V6.3858L353.374 6.78491V6.3858L354.061 5.98669L354.747 6.3858H355.434V6.78491L356.12 7.18403L356.807 7.58314L357.493 7.18403V7.58314H358.179L358.866 7.98225L358.179 8.38136H358.866L359.552 7.58314H360.239L359.552 7.18403H360.239H360.925L362.298 6.78491L364.357 8.78047L368.476 9.5787L369.163 8.78047L370.536 9.17959V8.38136L371.222 8.78047H371.908L372.595 8.38136L373.968 8.78047L374.654 9.17959L376.714 8.78047L378.773 9.5787L380.146 8.38136L380.832 9.5787H382.892L384.264 10.776L385.637 9.97781L386.324 9.17959H387.697L389.07 8.38136L393.875 7.98225L395.248 5.58758L398.68 3.99112H400.739L402.799 4.78935L405.544 3.99112H408.29L411.036 2.79379H413.782L415.841 1.99556L417.9 0L422.019 5.98669H432.316L443.299 10.776V102H291.223V46.7826Z" fill="#F4F4F4"/>
<path d="M595.375 46.7826V10.776L585.774 7.18403L584.792 8.31142H583.28V8.76402H582.524L581.768 9.5787L581.012 9.21662L580.613 9.5787L579.5 9.66923L578.744 10.1218H577.988L577.7 10.5744H576.944L576.787 11.1751L575.432 11.027V10.5744H574.676L574.187 10.4098L573.164 9.66923L572.408 10.1218L571.652 9.66923L571.185 9.5787L567.405 10.1218L565.893 8.38136L562.114 7.40621L561.337 7.45732L560.976 7.40621L560.581 7.00472H559.825L560.022 7.24163L559.069 7.00472V7.24163L558.313 6.78903V6.33643L557.557 6.55212L556.801 6.33643L556.443 6.50101L555.973 6.04841H555.289L554.533 6.33643H553.777V6.78903H553.021L552.693 6.50101L552.265 6.78903L551.509 7.24163L550.753 6.78903H549.997V6.33643H549.242L548.325 5.98669L547.751 6.04841L546.995 6.50101H546.239H545.483L546.239 6.95361L545.483 7.40621L544.727 7.85881L543.971 7.40621L543.215 7.18403L542.459 7.40621V7.85881L540.948 7.40621L540.774 7.98225L540.192 7.40621L538.715 7.18403H538.029L537.342 6.78491L538.029 6.3858H537.342L536.656 6.78491V6.3858L535.283 6.78491V5.98669L534.596 6.3858V6.78491H533.91V6.3858L533.223 6.78491V6.3858L532.537 5.98669L531.85 6.3858H531.164V6.78491L530.478 7.18403L529.791 7.58314L529.105 7.18403V7.58314H528.418L527.732 7.98225L528.418 8.38136H527.732L527.045 7.58314H526.359L527.045 7.18403H526.359H525.672L524.3 6.78491L522.24 8.78047L518.121 9.5787L517.435 8.78047L516.062 9.17959V8.38136L515.376 8.78047H514.689L514.003 8.38136L512.63 8.78047L511.943 9.17959L509.884 8.78047L507.825 9.5787L506.452 8.38136L505.765 9.5787H503.706L502.333 10.776L500.96 9.97781L500.274 9.17959H498.901L497.528 8.38136L492.723 7.98225L491.35 5.58758L487.918 3.99112H485.858L483.799 4.78935L481.053 3.99112H478.307L475.562 2.79379H472.816L470.757 1.99556L468.697 0L464.578 5.98669H454.282L443.299 10.776V102H595.375V46.7826Z" fill="#F4F4F4"/>
<path d="M595.375 46.7826V10.776L612.401 7.18403L614.142 8.31142H616.823V8.76402H618.164L619.505 9.5787L620.845 9.21662L621.554 9.5787L623.526 9.66923L624.867 10.1218H626.207L626.719 10.5744H628.06L628.337 11.1751L630.741 11.027V10.5744H632.081L632.948 10.4098L634.762 9.66923L636.103 10.1218L637.443 9.66923L638.272 9.5787L644.975 10.1218L647.656 8.38136L654.358 7.40621L655.737 7.45732L656.375 7.40621L657.077 7.00472H658.418L658.068 7.24163L659.758 7.00472V7.24163L661.099 6.78903V6.33643L662.439 6.55212L663.78 6.33643L664.415 6.50101L665.248 6.04841H666.461L667.801 6.33643H669.142V6.78903H670.482L671.065 6.50101L671.823 6.78903L673.163 7.24163L674.504 6.78903H675.845V6.33643H677.185L678.81 5.98669L679.828 6.04841L681.169 6.50101H682.509H683.85L682.509 6.95361L683.85 7.40621L685.19 7.85881L686.531 7.40621L687.871 7.18403L689.212 7.40621V7.85881L691.893 7.40621L692.2 7.98225L693.234 7.40621L695.852 7.18403H697.069L698.287 6.78491L697.069 6.3858H698.287L699.504 6.78491V6.3858L701.939 6.78491V5.98669L703.156 6.3858V6.78491H704.373V6.3858L705.591 6.78491V6.3858L706.808 5.98669L708.025 6.3858H709.243V6.78491L710.46 7.18403L711.677 7.58314L712.894 7.18403V7.58314H714.112L715.329 7.98225L714.112 8.38136H715.329L716.546 7.58314H717.764L716.546 7.18403H717.764H718.981L721.415 6.78491L725.067 8.78047L732.371 9.5787L733.589 8.78047L736.023 9.17959V8.38136L737.241 8.78047H738.458L739.675 8.38136L742.11 8.78047L743.327 9.17959L746.979 8.78047L750.631 9.5787L753.065 8.38136L754.283 9.5787H757.935L760.369 10.776L762.804 9.97781L764.021 9.17959H766.456L768.89 8.38136L777.411 7.98225L779.846 5.58758L785.933 3.99112H789.584L793.236 4.78935L798.106 3.99112H802.975L807.844 2.79379H812.713L816.365 1.99556L820.017 0L827.321 5.98669H845.58L865.057 10.776V102H595.375V46.7826Z" fill="#F4F4F4"/>
<path d="M865.058 46.7826V10.776L873.635 7.18403L874.512 8.31142H875.862V8.76402H876.538L877.213 9.5787L877.888 9.21662L878.245 9.5787L879.239 9.66923L879.914 10.1218H880.59L880.848 10.5744H881.523L881.663 11.1751L882.873 11.027V10.5744H883.549L883.985 10.4098L884.899 9.66923L885.575 10.1218L886.25 9.66923L886.667 9.5787L890.044 10.1218L891.394 8.38136L894.771 7.40621L895.465 7.45732L895.787 7.40621L896.141 7.00472H896.816L896.64 7.24163L897.491 7.00472V7.24163L898.167 6.78903V6.33643L898.842 6.55212L899.517 6.33643L899.837 6.50101L900.257 6.04841H900.868L901.543 6.33643H902.218V6.78903H902.894L903.187 6.50101L903.569 6.78903L904.244 7.24163L904.92 6.78903H905.595V6.33643H906.27L907.089 5.98669L907.602 6.04841L908.277 6.50101H908.952H909.628L908.952 6.95361L909.628 7.40621L910.303 7.85881L910.978 7.40621L911.654 7.18403L912.329 7.40621V7.85881L913.68 7.40621L913.834 7.98225L914.355 7.40621L915.674 7.18403H916.287L916.9 6.78491L916.287 6.3858H916.9L917.514 6.78491V6.3858L918.74 6.78491V5.98669L919.353 6.3858V6.78491H919.967V6.3858L920.58 6.78491V6.3858L921.193 5.98669L921.806 6.3858H922.419V6.78491L923.033 7.18403L923.646 7.58314L924.259 7.18403V7.58314H924.872L925.486 7.98225L924.872 8.38136H925.486L926.099 7.58314H926.712L926.099 7.18403H926.712H927.325L928.552 6.78491L930.391 8.78047L934.071 9.5787L934.684 8.78047L935.91 9.17959V8.38136L936.524 8.78047H937.137L937.75 8.38136L938.977 8.78047L939.59 9.17959L941.429 8.78047L943.269 9.5787L944.496 8.38136L945.109 9.5787H946.949L948.175 10.776L949.401 9.97781L950.015 9.17959H951.241L952.468 8.38136L956.76 7.98225L957.987 5.58758L961.053 3.99112H962.892L964.732 4.78935L967.185 3.99112H969.638L972.091 2.79379H974.544L976.383 1.99556L978.223 0L981.903 5.98669H991.101L1000.91 10.776V102H865.058V46.7826Z" fill="#F4F4F4"/>
<path d="M1000.91 46.7826V10.776L1010.51 7.18403L1011.5 8.31142H1013.01V8.76402H1013.76L1014.52 9.5787L1015.27 9.21662L1015.67 9.5787L1016.79 9.66923L1017.54 10.1218H1018.3L1018.59 10.5744H1019.34L1019.5 11.1751L1020.86 11.027V10.5744H1021.61L1022.1 10.4098L1023.12 9.66923L1023.88 10.1218L1024.63 9.66923L1025.1 9.5787L1028.88 10.1218L1030.39 8.38136L1034.17 7.40621L1034.95 7.45732L1035.31 7.40621L1035.71 7.00472H1036.46L1036.27 7.24163L1037.22 7.00472V7.24163L1037.97 6.78903V6.33643L1038.73 6.55212L1039.49 6.33643L1039.84 6.50101L1040.31 6.04841H1041L1041.75 6.33643H1042.51V6.78903H1043.27L1043.59 6.50101L1044.02 6.78903L1044.78 7.24163L1045.53 6.78903H1046.29V6.33643H1047.05L1047.96 5.98669L1048.54 6.04841L1049.29 6.50101H1050.05H1050.8L1050.05 6.95361L1050.8 7.40621L1051.56 7.85881L1052.32 7.40621L1053.07 7.18403L1053.83 7.40621V7.85881L1055.34 7.40621L1055.51 7.98225L1056.1 7.40621L1057.57 7.18403H1058.26L1058.95 6.78491L1058.26 6.3858H1058.95L1059.63 6.78491V6.3858L1061 6.78491V5.98669L1061.69 6.3858V6.78491H1062.38V6.3858L1063.06 6.78491V6.3858L1063.75 5.98669L1064.44 6.3858H1065.12V6.78491L1065.81 7.18403L1066.5 7.58314L1067.18 7.18403V7.58314H1067.87L1068.56 7.98225L1067.87 8.38136H1068.56L1069.24 7.58314H1069.93L1069.24 7.18403H1069.93H1070.61L1071.99 6.78491L1074.05 8.78047L1078.17 9.5787L1078.85 8.78047L1080.22 9.17959V8.38136L1080.91 8.78047H1081.6L1082.28 8.38136L1083.66 8.78047L1084.34 9.17959L1086.4 8.78047L1088.46 9.5787L1089.84 8.38136L1090.52 9.5787H1092.58L1093.95 10.776L1095.33 9.97781L1096.01 9.17959H1097.39L1098.76 8.38136L1103.56 7.98225L1104.94 5.58758L1108.37 3.99112H1110.43L1112.49 4.78935L1115.23 3.99112H1117.98L1120.73 2.79379H1123.47L1125.53 1.99556L1127.59 0L1131.71 5.98669H1142.01L1152.99 10.776V102H1000.91V46.7826Z" fill="#F4F4F4"/>
<path d="M1152.99 46.7826V10.776L1162.59 7.18403L1163.57 8.31142H1165.08V8.76402H1165.84L1166.6 9.5787L1167.35 9.21662L1167.75 9.5787L1168.86 9.66923L1169.62 10.1218H1170.37L1170.66 10.5744H1171.42L1171.58 11.1751L1172.93 11.027V10.5744H1173.69L1174.18 10.4098L1175.2 9.66923L1175.96 10.1218L1176.71 9.66923L1177.18 9.5787L1180.96 10.1218L1182.47 8.38136L1186.25 7.40621L1187.03 7.45732L1187.39 7.40621L1187.78 7.00472H1188.54L1188.34 7.24163L1189.29 7.00472V7.24163L1190.05 6.78903V6.33643L1190.81 6.55212L1191.56 6.33643L1191.92 6.50101L1192.39 6.04841H1193.07L1193.83 6.33643H1194.59V6.78903H1195.34L1195.67 6.50101L1196.1 6.78903L1196.85 7.24163L1197.61 6.78903H1198.37V6.33643H1199.12L1200.04 5.98669L1200.61 6.04841L1201.37 6.50101H1202.12H1202.88L1202.12 6.95361L1202.88 7.40621L1203.64 7.85881L1204.39 7.40621L1205.15 7.18403L1205.9 7.40621V7.85881L1207.42 7.40621L1207.59 7.98225L1208.17 7.40621L1209.65 7.18403H1210.33L1211.02 6.78491L1210.33 6.3858H1211.02L1211.71 6.78491V6.3858L1213.08 6.78491V5.98669L1213.77 6.3858V6.78491H1214.45V6.3858L1215.14 6.78491V6.3858L1215.83 5.98669L1216.51 6.3858H1217.2V6.78491L1217.89 7.18403L1218.57 7.58314L1219.26 7.18403V7.58314H1219.95L1220.63 7.98225L1219.95 8.38136H1220.63L1221.32 7.58314H1222L1221.32 7.18403H1222H1222.69L1224.06 6.78491L1226.12 8.78047L1230.24 9.5787L1230.93 8.78047L1232.3 9.17959V8.38136L1232.99 8.78047H1233.67L1234.36 8.38136L1235.73 8.78047L1236.42 9.17959L1238.48 8.78047L1240.54 9.5787L1241.91 8.38136L1242.6 9.5787H1244.66L1246.03 10.776L1247.4 9.97781L1248.09 9.17959H1249.46L1250.84 8.38136L1255.64 7.98225L1257.01 5.58758L1260.45 3.99112H1262.5L1264.56 4.78935L1267.31 3.99112H1270.06L1272.8 2.79379H1275.55L1277.61 1.99556L1279.67 0L1283.78 5.98669H1294.08L1305.06 10.776V102H1152.99V46.7826Z" fill="#F4F4F4"/>
<path d="M1305.07 46.7826V10.776L1318.64 7.18403L1320.02 8.31142H1322.16V8.76402H1323.23L1324.3 9.5787L1325.37 9.21662L1325.93 9.5787L1327.5 9.66923L1328.57 10.1218H1329.64L1330.05 10.5744H1331.12L1331.34 11.1751L1333.25 11.027V10.5744H1334.32L1335.01 10.4098L1336.46 9.66923L1337.53 10.1218L1338.59 9.66923L1339.25 9.5787L1344.6 10.1218L1346.73 8.38136L1352.08 7.40621L1353.17 7.45732L1353.68 7.40621L1354.24 7.00472H1355.31L1355.03 7.24163L1356.38 7.00472V7.24163L1357.45 6.78903V6.33643L1358.52 6.55212L1359.58 6.33643L1360.09 6.50101L1360.75 6.04841H1361.72L1362.79 6.33643H1363.86V6.78903H1364.93L1365.39 6.50101L1365.99 6.78903L1367.06 7.24163L1368.13 6.78903H1369.2V6.33643H1370.27L1371.56 5.98669L1372.38 6.04841L1373.44 6.50101H1374.51H1375.58L1374.51 6.95361L1375.58 7.40621L1376.65 7.85881L1377.72 7.40621L1378.79 7.18403L1379.85 7.40621V7.85881L1381.99 7.40621L1382.24 7.98225L1383.06 7.40621L1385.15 7.18403H1386.12L1387.09 6.78491L1386.12 6.3858H1387.09L1388.06 6.78491V6.3858L1390 6.78491V5.98669L1390.97 6.3858V6.78491H1391.94V6.3858L1392.91 6.78491V6.3858L1393.88 5.98669L1394.85 6.3858H1395.82V6.78491L1396.79 7.18403L1397.76 7.58314L1398.73 7.18403V7.58314H1399.7L1400.67 7.98225L1399.7 8.38136H1400.67L1401.64 7.58314H1402.61L1401.64 7.18403H1402.61H1403.58L1405.52 6.78491L1408.43 8.78047L1414.25 9.5787L1415.22 8.78047L1417.16 9.17959V8.38136L1418.13 8.78047H1419.1L1420.07 8.38136L1422.01 8.78047L1422.98 9.17959L1425.89 8.78047L1428.8 9.5787L1430.74 8.38136L1431.71 9.5787H1434.63L1436.57 10.776L1438.51 9.97781L1439.48 9.17959H1441.42L1443.36 8.38136L1450.15 7.98225L1452.09 5.58758L1456.94 3.99112H1459.85L1462.76 4.78935L1466.64 3.99112H1470.52L1474.4 2.79379H1478.28L1481.19 1.99556L1484.1 0L1489.93 5.98669H1504.48L1520 10.776V102H1305.07V46.7826Z" fill="#F4F4F4"/>
<g clip-path="url(#clip0_0_1)">
<path d="M-834.144 463.567C-834.144 463.567 -642.527 397.873 -450.911 397.873C-259.295 397.873 -67.6782 463.567 -67.6782 463.567C-67.6782 463.567 123.938 529.26 315.554 529.26C507.171 529.26 698.787 463.567 698.787 463.567C698.787 463.567 890.404 397.873 1082.02 397.873C1273.64 397.873 1465.25 463.567 1465.25 463.567C1465.25 463.567 1656.87 529.26 1848.49 529.26C2040.1 529.26 2231.72 463.567 2231.72 463.567" stroke="#F6EAC6" stroke-width="2.5"/>
<path d="M-834.144 397.873C-834.144 397.873 -642.527 332.18 -450.911 332.18C-259.295 332.18 -67.6782 397.873 -67.6782 397.873C-67.6782 397.873 123.938 463.567 315.554 463.567C507.171 463.567 698.787 397.873 698.787 397.873C698.787 397.873 890.404 332.18 1082.02 332.18C1273.64 332.18 1465.25 397.873 1465.25 397.873C1465.25 397.873 1656.87 463.567 1848.49 463.567C2040.1 463.567 2231.72 397.873 2231.72 397.873" stroke="#F6EAC6" stroke-width="2.5"/>
<path d="M-834.144 529.26C-834.144 529.26 -642.527 463.566 -450.911 463.566C-259.295 463.566 -67.6782 529.26 -67.6782 529.26C-67.6782 529.26 123.938 594.953 315.554 594.953C507.171 594.953 698.787 529.26 698.787 529.26C698.787 529.26 890.404 463.566 1082.02 463.566C1273.64 463.566 1465.25 529.26 1465.25 529.26C1465.25 529.26 1656.87 594.953 1848.49 594.953C2040.1 594.953 2231.72 529.26 2231.72 529.26" stroke="#F6EAC6" stroke-width="2.5"/>
<path d="M-834.144 332.18C-834.144 332.18 -642.527 266.486 -450.911 266.486C-259.295 266.486 -67.6782 332.18 -67.6782 332.18C-67.6782 332.18 123.938 397.873 315.554 397.873C507.171 397.873 698.787 332.18 698.787 332.18C698.787 332.18 890.404 266.486 1082.02 266.486C1273.64 266.486 1465.25 332.18 1465.25 332.18C1465.25 332.18 1656.87 397.873 1848.49 397.873C2040.1 397.873 2231.72 332.18 2231.72 332.18" stroke="#F6EAC6" stroke-width="2.5"/>
<path d="M-834.144 266.487C-834.144 266.487 -642.527 200.793 -450.911 200.793C-259.295 200.793 -67.6782 266.487 -67.6782 266.487C-67.6782 266.487 123.938 332.18 315.554 332.18C507.171 332.18 698.787 266.487 698.787 266.487C698.787 266.487 890.404 200.793 1082.02 200.793C1273.64 200.793 1465.25 266.487 1465.25 266.487C1465.25 266.487 1656.87 332.18 1848.49 332.18C2040.1 332.18 2231.72 266.487 2231.72 266.487" stroke="#F6EAC6" stroke-width="2.5"/>
<path d="M-834.144 594.955C-834.144 594.955 -642.527 529.262 -450.911 529.262C-259.295 529.262 -67.6782 594.955 -67.6782 594.955C-67.6782 594.955 123.938 660.649 315.554 660.649C507.171 660.649 698.787 594.955 698.787 594.955C698.787 594.955 890.404 529.262 1082.02 529.262C1273.64 529.262 1465.25 594.955 1465.25 594.955C1465.25 594.955 1656.87 660.649 1848.49 660.649C2040.1 660.649 2231.72 594.955 2231.72 594.955" stroke="#F6EAC6" stroke-width="2.5"/>
</g>
<defs>
<clipPath id="clip0_0_1">
<rect width="1532.93" height="600.516" fill="white" transform="translate(-18 96.1992)"/>
</clipPath>
</defs>
</svg>
