<svg width="371" height="303" viewBox="0 0 371 303" fill="none" xmlns="http://www.w3.org/2000/svg">
<path d="M0.802734 246.831L3.50806 254.325H8.31753V261.623H12.8264L14.9305 265.532L19.74 264.555L22.1447 268.465L27.2548 264.555L29.0584 261.623L31.7637 265.532L38.0761 271.397H45.8915L49.198 278.89L51.6027 286.384L53.4063 289.642L58.2158 288.665L60.6205 291.271L64.2276 295.181L67.8347 293.552L69.6382 296.81L75.0489 298.113L73.2453 299.416L77.4536 300.394L79.5578 303L82.5637 299.416L87.0726 300.394L92.1826 298.113L95.4891 294.203L104.507 296.81L107.813 300.394L110.819 294.203L116.23 289.968L122.542 292.209L124.045 285.367L131.56 288.665V291.597L137.271 288.665L143.283 292.209L151.7 291.597L151.099 286.71L155.908 288.665L157.411 283.777L164.325 285.367L168.232 282.474H176.348L177.851 285.367H181.458L183.563 287.361L185.667 283.126L189.875 281.132L194.384 285.367L199.193 283.777L201.899 288.665H207.91V285.367L211.818 288.665L217.83 286.71L220.235 290.294L225.044 289.642L226.247 292.9L229.252 294.855L231.056 292.209H234.964L239.473 294.855L243.981 292.9L246.687 295.506L249.693 294.855V297.787L253.3 300.394L259.011 294.203H265.023L262.318 289.642L265.925 285.081L267.127 289.642L270.133 288.339L274.341 290.294V294.203L279.752 292.9L283.359 295.506L286.966 292.248L292.076 292.9L296.585 289.642L295.383 287.361L300.493 288.339V284.103L305.903 286.384L312.516 282.8L317.927 284.755L319.129 287.361L319.43 287.035L321.835 288.013L320.933 290.619H323.638L324.841 288.665L326.644 290.294L326.945 288.99L328.147 288.665V287.361L329.951 286.384L331.754 287.361V288.339L333.257 288.013L334.46 285.081L335.963 287.361L337.465 285.406L336.864 284.103L338.067 282.8L338.668 285.081V277.913H341.674V268.139L347.686 263.252L341.674 257.713V248.59L345.882 247.613L345.581 242.726L350.692 241.097L353.096 238.165L351.894 233.929L353.697 232.3L357.004 233.929L360.31 230.019L359.409 227.087L361.212 223.503L363.918 222.852L365.12 221.223L363.918 220.897L363.016 219.268L363.918 217.639L365.12 215.358L363.918 213.403L365.421 212.1L363.016 210.797L362.415 208.842L363.918 207.539L360.912 207.213V205.258L360.01 203.629L361.513 203.303L359.709 201.674L360.01 200.045H361.212L362.415 198.09L363.316 195.158L360.912 192.877L361.813 188.968L359.409 185.384L359.709 181.8H362.415L364.519 178.868L362.114 177.89L359.709 175.61L358.807 173.655L361.813 171.7L360.01 170.071L360.611 167.139L359.409 165.51L363.617 161.6V159.319L361.813 158.016L363.016 156.713H365.421L366.923 154.758L366.022 152.477H369.028L368.426 150.197L370.23 150.848V147.916L369.028 145.31H366.022L366.623 142.377L364.519 140.748L363.918 139.119L364.819 138.794L366.022 137.165L364.519 136.187L363.016 132.277L361.813 127.39L365.421 126.739L368.426 120.223L363.617 121.2L360.01 117.616L355.2 110.123L354.299 105.235L352.796 98.0677H346.183L342.876 88.9452L349.189 84.0581L346.183 80.1484L344.079 72.6548L346.183 66.7903L344.079 63.8581L345.882 60.2742L341.674 59.2968V57.0161L343.477 54.0839L342.275 50.5L346.183 47.5677L342.275 44.9613L340.471 40.0742L341.674 36.4903L338.968 32.5807L335.061 29.3226L333.257 32.2549L332.656 28.0194L330.251 23.7839L329.65 18.2452L332.055 14.3355L328.147 11.729L326.644 4.56131L324.239 5.86453L323.638 8.14517L321.234 7.16776L320.632 3.25806L317.626 0.651611L314.621 3.25806L311.615 0.977417L311.314 2.93228H309.51L308.609 4.56131L307.106 3.25806L307.406 1.95486L306.505 0.977417H305.002L304.1 1.95486H303.198L302.597 1.30325H301.394L300.493 1.62903L300.192 2.60645L299.892 1.95486L298.99 1.62903H298.088L297.787 2.28064V1.30325H296.886L295.984 0.651611L295.383 1.30325L294.781 1.62903L293.88 1.30325L293.579 1.95486V2.28064L293.278 2.60645H292.677L292.377 3.25806L291.776 3.58389V4.2355L291.174 3.90967V3.58389H290.573L290.273 3.25806L289.972 3.90967L289.371 3.58389L289.07 4.2355L288.469 4.88708L287.868 5.53873H289.07L288.77 5.86453L287.868 6.51614L287.267 7.16776L286.365 7.49356L285.463 7.16776L284.261 8.14517L283.058 7.16776L281.856 6.51614L280.954 7.49356V6.84195L279.752 6.51614L279.451 7.16776L278.85 7.49356L277.948 7.16776L277.347 7.49356L277.047 6.84195H276.145L276.445 6.51614V5.86453L276.145 5.53873L275.844 5.86453L275.544 5.53873V5.21292H274.942V4.56131L274.642 4.88708L274.341 4.56131H273.74L272.237 4.2355H271.335L271.035 5.21292L270.434 4.88708L270.133 4.2355H268.931L268.329 3.58389L267.428 4.2355L266.826 3.90967L267.127 4.56131H266.225L265.925 4.2355L265.023 4.88708L264.722 4.56131L264.121 5.21292L263.821 4.88708L263.52 5.53873L262.318 5.86453L262.017 5.53873V4.88708L261.416 4.56131L260.815 5.21292L261.115 5.53873H260.514L260.213 5.21292L259.612 5.86453L259.011 5.53873V4.88708H258.71L259.011 4.2355V3.90967L258.41 3.25806L258.109 3.58389L256.005 4.56131L254.502 3.90967L253.3 5.86453L252.398 4.88708L250.294 4.2355L248.791 5.21292L247.589 5.53873L246.086 4.88708L246.386 3.58389L244.883 3.90967L243.981 2.60645L243.08 3.58389L242.178 2.60645L240.976 2.93228V1.62903L239.473 1.95486L239.172 2.60645H237.97L237.068 1.95486L236.166 1.30325L234.964 2.28064L234.363 1.62903H232.86L233.16 2.60645L231.958 1.95486L232.258 2.93228H231.357L230.755 3.58389V4.2355L229.854 3.90967V3.25806L228.952 3.58389L229.252 2.60645L228.351 2.93228L227.749 3.25806L227.449 2.60645L226.547 2.28064L226.848 1.62903L225.645 1.95486V1.62903L225.345 0.977417L225.044 0.651611L224.443 1.62903V0.977417H223.842H223.241L222.94 1.30325L222.339 0.977417V0.325806L222.038 0.651611L221.437 0L220.535 1.30325L221.136 1.95486L220.235 2.60645L219.934 1.95486L219.032 1.30325L217.529 1.62903L216.026 2.60645L216.327 3.58389L215.425 2.60645L214.523 3.25806L214.824 4.2355L214.11 5.21292L213.622 4.2355V3.58389H212.419L212.119 4.2355H211.217L210.804 3.58389L209.714 4.2355V5.53873L209.113 5.70163L208.812 6.51614L209.113 7.16776L208.512 7.49356V7.98227L207.009 7.81937L206.107 8.79678H204.905L203.702 7.98227V9.44839L202.5 8.79678L201.899 10.4258L201.297 9.44839H200.396L199.794 10.1L198.893 9.12259V7.98227L197.39 8.47098L197.089 9.44839L196.488 9.12259H195.586V9.7742L194.684 10.4258L194.384 9.7742L193.783 9.44839L193.181 9.7742V8.79678H192.28L191.678 7.98227L191.077 8.47098L191.378 9.12259L190.476 8.79678L189.574 9.12259V9.7742L188.673 10.1L188.071 9.44839V8.79678L187.771 8.47098L187.47 8.14517H186.869V8.79678L185.967 8.47098V7.49356L185.366 7.16776V6.51614H184.464L182.06 8.47098H179.354L178.452 7.16776L176.048 8.79678V10.4258L173.643 10.7516L171.839 9.12259L169.134 10.4258L168.533 9.44839L167.932 11.729L166.128 10.1L166.729 12.3806L164.325 11.729L162.22 12.1997L161.619 11.0774L159.816 10.4258L158.613 11.729L157.411 10.1L156.509 7.96417L154.706 9.44839L153.503 8.14517L152.602 6.51614H151.099L150.197 8.47098L148.994 7.16776V5.53873L147.191 6.84195L145.387 5.86453L144.486 4.56131L145.688 3.25806L143.283 3.58389L142.381 2.60645L141.78 3.58389L139.676 4.56131L138.474 3.58389L136.67 3.25806L136.069 4.2355L133.965 3.58389L133.063 4.56131L133.364 5.53873L131.56 5.86453L130.358 4.88708L129.155 5.53873L128.254 4.56131L127.051 5.86453L126.149 4.88708L125.548 7.16776L124.947 5.53873L123.444 5.21292L123.745 7.16776L122.542 7.49356L121.641 8.79678L120.438 7.49356L118.935 9.7742L118.635 8.47098L116.831 10.4258L115.028 10.1L116.23 11.729L114.126 11.0774L113.525 13.0323L112.322 11.0774L112.022 9.44839L109.918 11.0774L108.715 9.7742L108.415 11.0774L107.813 9.12259L105.409 8.14517L104.206 8.79678L104.507 10.4258L102.102 10.1L100.9 8.79678L100.299 10.4258L98.4951 9.44839L98.7956 8.14517L96.3909 7.81937L95.1885 9.44839L94.2868 8.14517L93.9862 6.51614L92.1826 7.81937L90.9803 6.84195L90.0785 8.14517L87.9743 6.84195L89.1767 5.21292L87.6737 4.2355L85.8702 4.88708L86.1708 3.25806L84.3672 3.90967L82.8643 2.93228L82.2631 1.95486L79.8584 3.25806L78.0548 1.62903H76.2513L75.9507 4.2355L73.5459 5.53873L71.4418 3.25806L69.0371 5.53873L67.8347 4.2355L65.7305 6.51614L62.7246 6.84195L60.9211 8.79678L59.1175 7.16776L59.7187 8.79678L58.2158 10.4258L57.314 8.79678H54.6087L52.5045 10.1L53.1057 12.3806L51.3021 13.0323L50.0998 12.0548L50.4004 9.44839H48.5968L46.4927 10.4258L46.1921 8.79678L46.7933 7.16776H45.2903L44.0879 8.14517L42.585 7.16776L41.082 6.84195L39.8797 8.14517L38.6773 8.47098L37.7755 7.16776L36.5731 8.14517L36.2726 9.44839L34.7696 9.7742L34.1684 8.47098L33.2666 8.14517L32.3649 9.7742L31.1625 8.14517L29.9601 8.47098L29.3589 9.44839L29.0584 8.79678L28.4572 9.12259H27.5554L27.856 9.7742L27.2548 10.4258L27.856 10.7516L27.5554 11.4032H26.6536L26.0524 12.0548L25.4513 13.0323L24.5495 12.7065L24.2489 13.3581L23.6477 13.0323L23.0465 13.6839H22.4453L22.1447 13.0323L21.243 12.3806L20.9424 13.6839L20.3412 13.3581H19.74L19.4394 12.7065H19.1388L19.4394 12.0548L19.1388 11.729L18.5376 11.0774H17.6359V11.729L16.4335 11.4032L15.8323 10.6218L15.5317 11.5992H15.2311L14.7535 11.4032L14.3294 11.925L13.7282 12.5766L13.127 11.729L12.8264 12.9024H11.9246L11.0229 13.6839L10.7223 14.6613V15.3129H11.0229L10.4217 15.9645L9.82049 15.6387V16.2903L9.51989 16.942V17.5936L8.91871 17.9194V18.571L9.51989 18.8968H9.2193L8.61812 19.8742V20.8516L8.91871 22.1548H7.71634L8.01694 23.1323L7.11516 23.4581V24.1097L6.81457 24.4355L7.11516 25.4129L6.51398 26.3903H7.41575L7.71634 27.3677L7.41575 28.3452H6.81457L7.41575 29.6484L6.51398 30.9516L7.71634 32.2549L6.21339 32.9065V34.2097L6.51398 36.1645H7.41575V37.4677L6.51398 39.0968L4.71043 40.4L6.21339 42.0291V44.3097L6.81457 45.6129L6.51398 46.9161H7.41575L7.71634 48.2194L6.51398 48.5452L7.11516 50.1742L6.21339 50.5L7.11516 51.1516L6.81457 52.7807L7.41575 54.4097L8.61812 54.0839L8.91871 55.3871L8.61812 56.6903H9.51989L9.2193 58.3194L10.4217 58.971V60.2742L11.3234 60.9258V62.229L10.7223 62.8807L11.0229 63.8581L10.4217 64.5097H9.82049L10.4217 65.8129L9.97078 66.7903L10.1211 68.0936L10.7223 68.7452L9.51989 69.071L10.1211 70.3742L11.624 70.7L12.8264 72.329L12.5258 73.9581L11.624 74.9355L10.1211 75.2613L10.7223 76.5645L9.3696 76.8903L9.2193 77.5419L9.51989 78.5887L8.61812 79.171L9.51989 80.1484L8.91871 81.4516V82.7549L7.71634 83.0806H6.51398V84.3839L4.71043 83.7323L5.01102 85.0355L5.91279 86.0129L5.31161 86.9225L4.40983 87.1862L5.31161 88.9452L6.51398 89.271L6.81457 90.5742L5.31161 91.7475L6.21339 92.2032V93.5065L7.11516 94.6798L5.6122 94.354L5.01102 95.983L5.91279 97.2862L4.71043 96.6346L5.01102 98.5895L3.20747 99.2411L5.6122 100.87L5.01102 103.477L5.6122 103.802L5.01102 106.735L6.21339 107.386L7.11516 107.712L6.81457 109.341L7.71634 109.993L8.31753 111.622L7.71634 112.925L6.21339 114.228L7.41575 114.88L7.71634 117.16V118.789L8.91871 119.767L7.41575 120.744L7.11516 122.048L5.6122 123.025L5.01102 125.306L5.31161 128.564L7.11516 128.889L4.40983 131.496L5.01102 133.451L6.51398 136.709L8.91871 138.012L6.51398 141.922L4.40983 141.27L7.71634 144.202V148.764L11.0229 148.112L12.2252 149.741L11.9246 153.651L9.51989 154.954L7.11516 156.583L11.0229 157.886L11.9246 161.47L10.1211 164.402V168.964L7.71634 169.941L9.51989 173.525L7.71634 175.48H5.01102L7.71634 180.041L8.61812 182.648L5.31161 185.254L2.30569 185.906L5.31161 188.838L5.6122 192.422L3.50806 196.657L0.802734 196.006L3.50806 201.544L8.31753 202.848V208.386L3.50806 214.577H8.31753L10.7223 219.138L5.91279 221.418L3.50806 228.912V239.664L0.802734 246.831Z" fill="#F4F4F4"/>
</svg>
