<svg viewBox="0 0 367 303" fill="none" xmlns="http://www.w3.org/2000/svg">
<path d="M0 246.831L2.68755 254.325H7.46542V261.623H11.9447L14.035 265.532L18.8129 264.555L21.2018 268.465L26.2783 264.555L28.07 261.623L30.7575 265.532L37.0285 271.397H44.7925L48.0773 278.89L50.4662 286.384L52.2579 289.642L57.0358 288.665L59.4247 291.271L63.0081 295.181L66.5915 293.552L68.3832 296.81L73.7583 298.113L71.9666 299.416L76.1473 300.394L78.2376 303L81.2238 299.416L85.703 300.394L90.7795 298.113L94.0643 294.203L103.023 296.81L106.308 300.394L109.294 294.203L114.669 289.968L120.94 292.209L122.433 285.367L129.898 288.665V291.597L135.572 288.665L141.544 292.209L149.906 291.597L149.308 286.71L154.086 288.665L155.579 283.777L162.448 285.367L166.33 282.474H174.392L175.885 285.367H179.469L181.559 287.361L183.649 283.126L187.83 281.132L192.309 285.367L197.087 283.777L199.775 288.665H205.747V285.367L209.629 288.665L215.601 286.71L217.99 290.294L222.768 289.642L223.963 292.9L226.949 294.855L228.74 292.209H232.622L237.102 294.855L241.581 292.9L244.269 295.506L247.255 294.855V297.787L250.838 300.394L256.512 294.203H262.484L259.797 289.642L263.38 285.081L264.574 289.642L267.561 288.339L271.741 290.294V294.203L277.116 292.9L280.7 295.506L284.283 292.248L289.36 292.9L293.839 289.642L292.644 287.361L297.721 288.339V284.103L303.096 286.384L309.666 282.8L315.041 284.755L316.235 287.361L316.534 287.035L318.923 288.013L318.027 290.619H320.714L321.909 288.665L323.701 290.294L323.999 288.99L325.194 288.665V287.361L326.985 286.384L328.777 287.361V288.339L330.27 288.013L331.465 285.081L332.958 287.361L334.451 285.406L333.854 284.103L335.048 282.8L335.645 285.081V277.913H338.631V268.139L344.604 263.252L338.631 257.713V248.59L342.812 247.613L342.513 242.726L347.59 241.097L349.979 238.165L348.784 233.929L350.576 232.3L353.861 233.929L357.146 230.019L356.25 227.087L358.042 223.503L360.729 222.852L361.924 221.223L360.729 220.897L359.833 219.268L360.729 217.639L361.924 215.358L360.729 213.403L362.222 212.1L359.833 210.797L359.236 208.842L360.729 207.539L357.743 207.213V205.258L356.847 203.629L358.34 203.303L356.548 201.674L356.847 200.045H358.042L359.236 198.09L360.132 195.158L357.743 192.877L358.639 188.968L356.25 185.384L356.548 181.8H359.236L361.326 178.868L358.937 177.89L356.548 175.61L355.653 173.655L358.639 171.7L356.847 170.071L357.444 167.139L356.25 165.51L360.43 161.6V159.319L358.639 158.016L359.833 156.713H362.222L363.715 154.758L362.819 152.477H365.806L365.208 150.197L367 150.848V147.916L365.806 145.31H362.819L363.417 142.377L361.326 140.748L360.729 139.119L361.625 138.794L362.819 137.165L361.326 136.187L359.833 132.277L358.639 127.39L362.222 126.739L365.208 120.223L360.43 121.2L356.847 117.616L352.069 110.123L351.173 105.235L349.68 98.0677H343.111L339.826 88.9452L346.097 84.0581L343.111 80.1484L341.02 72.6548L343.111 66.7903L341.02 63.8581L342.812 60.2742L338.631 59.2968V57.0161L340.423 54.0839L339.229 50.5L343.111 47.5677L339.229 44.9613L337.437 40.0742L338.631 36.4903L335.944 32.5807L332.062 29.3226L330.27 32.2549L329.673 28.0194L327.284 23.7839L326.687 18.2452L329.076 14.3355L325.194 11.729L323.701 4.56131L321.312 5.86453L320.714 8.14517L318.325 7.16776L317.728 3.25806L314.742 0.651611L311.756 3.25806L308.77 0.977417L308.471 2.93228H306.679L305.784 4.56131L304.29 3.25806L304.589 1.95486L303.693 0.977417H302.2L301.304 1.95486H300.408L299.811 1.30325H298.617L297.721 1.62903L297.422 2.60645L297.124 1.95486L296.228 1.62903H295.332L295.033 2.28064V1.30325H294.138L293.242 0.651611L292.644 1.30325L292.047 1.62903L291.151 1.30325L290.853 1.95486V2.28064L290.554 2.60645H289.957L289.658 3.25806L289.061 3.58389V4.2355L288.464 3.90967V3.58389H287.867L287.568 3.25806L287.269 3.90967L286.672 3.58389L286.373 4.2355L285.776 4.88708L285.179 5.53873H286.373L286.075 5.86453L285.179 6.51614L284.582 7.16776L283.686 7.49356L282.79 7.16776L281.596 8.14517L280.401 7.16776L279.207 6.51614L278.311 7.49356V6.84195L277.116 6.51614L276.818 7.16776L276.22 7.49356L275.325 7.16776L274.727 7.49356L274.429 6.84195H273.533L273.832 6.51614V5.86453L273.533 5.53873L273.234 5.86453L272.936 5.53873V5.21292H272.339V4.56131L272.04 4.88708L271.741 4.56131H271.144L269.651 4.2355H268.755L268.456 5.21292L267.859 4.88708L267.561 4.2355H266.366L265.769 3.58389L264.873 4.2355L264.276 3.90967L264.574 4.56131H263.679L263.38 4.2355L262.484 4.88708L262.186 4.56131L261.588 5.21292L261.29 4.88708L260.991 5.53873L259.797 5.86453L259.498 5.53873V4.88708L258.901 4.56131L258.303 5.21292L258.602 5.53873H258.005L257.706 5.21292L257.109 5.86453L256.512 5.53873V4.88708H256.213L256.512 4.2355V3.90967L255.915 3.25806L255.616 3.58389L253.526 4.56131L252.033 3.90967L250.838 5.86453L249.942 4.88708L247.852 4.2355L246.359 5.21292L245.164 5.53873L243.671 4.88708L243.97 3.58389L242.477 3.90967L241.581 2.60645L240.685 3.58389L239.789 2.60645L238.595 2.93228V1.62903L237.102 1.95486L236.803 2.60645H235.609L234.713 1.95486L233.817 1.30325L232.622 2.28064L232.025 1.62903H230.532L230.831 2.60645L229.636 1.95486L229.935 2.93228H229.039L228.442 3.58389V4.2355L227.546 3.90967V3.25806L226.65 3.58389L226.949 2.60645L226.053 2.93228L225.456 3.25806L225.157 2.60645L224.261 2.28064L224.56 1.62903L223.365 1.95486V1.62903L223.067 0.977417L222.768 0.651611L222.171 1.62903V0.977417H221.574H220.976L220.678 1.30325L220.081 0.977417V0.325806L219.782 0.651611L219.185 0L218.289 1.30325L218.886 1.95486L217.99 2.60645L217.692 1.95486L216.796 1.30325L215.303 1.62903L213.81 2.60645L214.108 3.58389L213.212 2.60645L212.317 3.25806L212.615 4.2355L211.906 5.21292L211.421 4.2355V3.58389H210.226L209.928 4.2355H209.032L208.621 3.58389L207.539 4.2355V5.53873L206.941 5.70163L206.643 6.51614L206.941 7.16776L206.344 7.49356V7.98227L204.851 7.81937L203.955 8.79678H202.761L201.566 7.98227V9.44839L200.372 8.79678L199.775 10.4258L199.177 9.44839H198.282L197.684 10.1L196.788 9.12259V7.98227L195.295 8.47098L194.997 9.44839L194.4 9.12259H193.504V9.7742L192.608 10.4258L192.309 9.7742L191.712 9.44839L191.115 9.7742V8.79678H190.219L189.622 7.98227L189.024 8.47098L189.323 9.12259L188.427 8.79678L187.531 9.12259V9.7742L186.635 10.1L186.038 9.44839V8.79678L185.74 8.47098L185.441 8.14517H184.844V8.79678L183.948 8.47098V7.49356L183.351 7.16776V6.51614H182.455L180.066 8.47098H177.378L176.482 7.16776L174.094 8.79678V10.4258L171.705 10.7516L169.913 9.12259L167.225 10.4258L166.628 9.44839L166.031 11.729L164.239 10.1L164.836 12.3806L162.448 11.729L160.357 12.1997L159.76 11.0774L157.968 10.4258L156.774 11.729L155.579 10.1L154.683 7.96417L152.892 9.44839L151.697 8.14517L150.801 6.51614H149.308L148.413 8.47098L147.218 7.16776V5.53873L145.426 6.84195L143.635 5.86453L142.739 4.56131L143.933 3.25806L141.544 3.58389L140.648 2.60645L140.051 3.58389L137.961 4.56131L136.766 3.58389L134.975 3.25806L134.378 4.2355L132.287 3.58389L131.391 4.56131L131.69 5.53873L129.898 5.86453L128.704 4.88708L127.509 5.53873L126.614 4.56131L125.419 5.86453L124.523 4.88708L123.926 7.16776L123.329 5.53873L121.836 5.21292L122.134 7.16776L120.94 7.49356L120.044 8.79678L118.849 7.49356L117.356 9.7742L117.058 8.47098L115.266 10.4258L113.474 10.1L114.669 11.729L112.579 11.0774L111.981 13.0323L110.787 11.0774L110.488 9.44839L108.398 11.0774L107.203 9.7742L106.905 11.0774L106.308 9.12259L103.919 8.14517L102.724 8.79678L103.023 10.4258L100.634 10.1L99.4394 8.79678L98.8421 10.4258L97.0505 9.44839L97.3491 8.14517L94.9601 7.81937L93.7657 9.44839L92.8698 8.14517L92.5712 6.51614L90.7795 7.81937L89.585 6.84195L88.6892 8.14517L86.5989 6.84195L87.7933 5.21292L86.3002 4.2355L84.5085 4.88708L84.8072 3.25806L83.0155 3.90967L81.5224 2.93228L80.9251 1.95486L78.5362 3.25806L76.7445 1.62903H74.9528L74.6542 4.2355L72.2653 5.53873L70.1749 3.25806L67.786 5.53873L66.5915 4.2355L64.5012 6.51614L61.5151 6.84195L59.7234 8.79678L57.9317 7.16776L58.5289 8.79678L57.0358 10.4258L56.14 8.79678H53.4524L51.3621 10.1L51.9593 12.3806L50.1676 13.0323L48.9731 12.0548L49.2718 9.44839H47.4801L45.3897 10.4258L45.0911 8.79678L45.6884 7.16776H44.1953L43.0008 8.14517L41.5077 7.16776L40.0146 6.84195L38.8202 8.14517L37.6257 8.47098L36.7299 7.16776L35.5354 8.14517L35.2368 9.44839L33.7437 9.7742L33.1465 8.47098L32.2506 8.14517L31.3548 9.7742L30.1603 8.14517L28.9658 8.47098L28.3686 9.44839L28.07 8.79678L27.4727 9.12259H26.5769L26.8755 9.7742L26.2783 10.4258L26.8755 10.7516L26.5769 11.4032H25.681L25.0838 12.0548L24.4866 13.0323L23.5907 12.7065L23.2921 13.3581L22.6949 13.0323L22.0976 13.6839H21.5004L21.2018 13.0323L20.3059 12.3806L20.0073 13.6839L19.4101 13.3581H18.8129L18.5142 12.7065H18.2156L18.5142 12.0548L18.2156 11.729L17.6184 11.0774H16.7225V11.729L15.5281 11.4032L14.9308 10.6218L14.6322 11.5992H14.3336L13.8592 11.4032L13.4378 11.925L12.8405 12.5766L12.2433 11.729L11.9447 12.9024H11.0488L10.153 13.6839L9.85435 14.6613V15.3129H10.153L9.55574 15.9645L8.9585 15.6387V16.2903L8.65989 16.942V17.5936L8.06265 17.9194V18.571L8.65989 18.8968H8.36127L7.76404 19.8742V20.8516L8.06265 22.1548H6.86819L7.1668 23.1323L6.27095 23.4581V24.1097L5.97234 24.4355L6.27095 25.4129L5.67372 26.3903H6.56957L6.86819 27.3677L6.56957 28.3452H5.97234L6.56957 29.6484L5.67372 30.9516L6.86819 32.2549L5.3751 32.9065V34.2097L5.67372 36.1645H6.56957V37.4677L5.67372 39.0968L3.88202 40.4L5.3751 42.0291V44.3097L5.97234 45.6129L5.67372 46.9161H6.56957L6.86819 48.2194L5.67372 48.5452L6.27095 50.1742L5.3751 50.5L6.27095 51.1516L5.97234 52.7807L6.56957 54.4097L7.76404 54.0839L8.06265 55.3871L7.76404 56.6903H8.65989L8.36127 58.3194L9.55574 58.971V60.2742L10.4516 60.9258V62.229L9.85435 62.8807L10.153 63.8581L9.55574 64.5097H8.9585L9.55574 65.8129L9.10781 66.7903L9.25712 68.0936L9.85435 68.7452L8.65989 69.071L9.25712 70.3742L10.7502 70.7L11.9447 72.329L11.6461 73.9581L10.7502 74.9355L9.25712 75.2613L9.85435 76.5645L8.51058 76.8903L8.36127 77.5419L8.65989 78.5887L7.76404 79.171L8.65989 80.1484L8.06265 81.4516V82.7549L6.86819 83.0806H5.67372V84.3839L3.88202 83.7323L4.18063 85.0355L5.07648 86.0129L4.47925 86.9225L3.5834 87.1862L4.47925 88.9452L5.67372 89.271L5.97234 90.5742L4.47925 91.7475L5.3751 92.2032V93.5065L6.27095 94.6798L4.77787 94.354L4.18063 95.983L5.07648 97.2862L3.88202 96.6346L4.18063 98.5895L2.38893 99.2411L4.77787 100.87L4.18063 103.477L4.77787 103.802L4.18063 106.735L5.3751 107.386L6.27095 107.712L5.97234 109.341L6.86819 109.993L7.46542 111.622L6.86819 112.925L5.3751 114.228L6.56957 114.88L6.86819 117.16V118.789L8.06265 119.767L6.56957 120.744L6.27095 122.048L4.77787 123.025L4.18063 125.306L4.47925 128.564L6.27095 128.889L3.5834 131.496L4.18063 133.451L5.67372 136.709L8.06265 138.012L5.67372 141.922L3.5834 141.27L6.86819 144.202V148.764L10.153 148.112L11.3474 149.741L11.0488 153.651L8.65989 154.954L6.27095 156.583L10.153 157.886L11.0488 161.47L9.25712 164.402V168.964L6.86819 169.941L8.65989 173.525L6.86819 175.48H4.18063L6.86819 180.041L7.76404 182.648L4.47925 185.254L1.49308 185.906L4.47925 188.838L4.77787 192.422L2.68755 196.657L0 196.006L2.68755 201.544L7.46542 202.848V208.386L2.68755 214.577H7.46542L9.85435 219.138L5.07648 221.418L2.68755 228.912V239.664L0 246.831Z" fill="#F4F4F4"/>
</svg>
