<svg width="1512" height="292" viewBox="0 0 1512 292" fill="none" xmlns="http://www.w3.org/2000/svg">
<rect y="54.1621" width="1512" height="229" fill="#F4F4F4"/>
<path d="M0 46.9447V10.9381L9.47012 7.34613L10.4386 8.47353H11.9299V8.92613H12.6755L13.4211 9.74081L14.1667 9.37873L14.5608 9.74081L15.6579 9.83134L16.4035 10.2839H17.1492L17.434 10.7365H18.1796L18.3338 11.3373L19.6708 11.1891V10.7365H20.4164L20.8983 10.572L21.9076 9.83134L22.6533 10.2839L23.3989 9.83134L23.8597 9.74081L27.5878 10.2839L29.079 8.54347L32.8071 7.56832L33.5737 7.61943L33.9289 7.56832L34.3193 7.16683H35.065L34.8707 7.40374L35.8106 7.16683V7.40374L36.5562 6.95114V6.49854L37.3018 6.71423L38.0474 6.49854L38.4008 6.66312L38.8642 6.21052H39.5387L40.2843 6.49854H41.0299V6.95114H41.7755L42.0995 6.66312L42.5211 6.95114L43.2667 7.40374L44.0123 6.95114H44.758V6.49854H45.5036L46.4073 6.1488L46.9738 6.21052L47.7194 6.66312H48.465H49.2106L48.465 7.11572L49.2106 7.56832L49.9562 8.02092L50.7019 7.56832L51.4475 7.34613L52.1931 7.56832V8.02092L53.6843 7.56832L53.8552 8.14436L54.4299 7.56832L55.8864 7.34613H56.5635L57.2406 6.94702L56.5635 6.54791H57.2406L57.9176 6.94702V6.54791L59.2718 6.94702V6.1488L59.9489 6.54791V6.94702H60.626V6.54791L61.303 6.94702V6.54791L61.9801 6.1488L62.6572 6.54791H63.3343V6.94702L64.0114 7.34613L64.6884 7.74525L65.3655 7.34613V7.74525H66.0426L66.7196 8.14436L66.0426 8.54347H66.7196L67.3967 7.74525H68.0737L67.3967 7.34613H68.0737H68.7508L70.105 6.94702L72.1362 8.94258L76.1987 9.74081L76.8758 8.94258L78.2299 9.3417V8.54347L78.907 8.94258H79.5841L80.2612 8.54347L81.6153 8.94258L82.2924 9.3417L84.3236 8.94258L86.3548 9.74081L87.709 8.54347L88.386 9.74081H90.4173L91.7714 10.9381L93.1256 10.1399L93.8027 9.3417H95.1568L96.511 8.54347L101.25 8.14436L102.605 5.74969L105.99 4.15323H108.021L110.052 4.95146L112.761 4.15323H115.469L118.177 2.9559H120.886L122.917 2.15767L124.948 0.162109L129.011 6.1488H139.167L150 10.9381V102.162H0V46.9447Z" fill="#F4F4F4"/>
<path d="M150 46.9447V10.9381L159.47 7.34613L160.439 8.47353H161.93V8.92613H162.675L163.421 9.74081L164.167 9.37873L164.561 9.74081L165.658 9.83134L166.404 10.2839H167.149L167.434 10.7365H168.18L168.334 11.3373L169.671 11.1891V10.7365H170.416L170.898 10.572L171.908 9.83134L172.653 10.2839L173.399 9.83134L173.86 9.74081L177.588 10.2839L179.079 8.54347L182.807 7.56832L183.574 7.61943L183.929 7.56832L184.319 7.16683H185.065L184.871 7.40374L185.811 7.16683V7.40374L186.556 6.95114V6.49854L187.302 6.71423L188.047 6.49854L188.401 6.66312L188.864 6.21052H189.539L190.284 6.49854H191.03V6.95114H191.776L192.099 6.66312L192.521 6.95114L193.267 7.40374L194.012 6.95114H194.758V6.49854H195.504L196.407 6.1488L196.974 6.21052L197.719 6.66312H198.465H199.211L198.465 7.11572L199.211 7.56832L199.956 8.02092L200.702 7.56832L201.447 7.34613L202.193 7.56832V8.02092L203.684 7.56832L203.855 8.14436L204.43 7.56832L205.886 7.34613H206.563L207.241 6.94702L206.563 6.54791H207.241L207.918 6.94702V6.54791L209.272 6.94702V6.1488L209.949 6.54791V6.94702H210.626V6.54791L211.303 6.94702V6.54791L211.98 6.1488L212.657 6.54791H213.334V6.94702L214.011 7.34613L214.688 7.74525L215.366 7.34613V7.74525H216.043L216.72 8.14436L216.043 8.54347H216.72L217.397 7.74525H218.074L217.397 7.34613H218.074H218.751L220.105 6.94702L222.136 8.94258L226.199 9.74081L226.876 8.94258L228.23 9.3417V8.54347L228.907 8.94258H229.584L230.261 8.54347L231.615 8.94258L232.292 9.3417L234.324 8.94258L236.355 9.74081L237.709 8.54347L238.386 9.74081H240.417L241.771 10.9381L243.126 10.1399L243.803 9.3417H245.157L246.511 8.54347L251.25 8.14436L252.605 5.74969L255.99 4.15323H258.021L260.052 4.95146L262.761 4.15323H265.469L268.177 2.9559H270.886L272.917 2.15767L274.948 0.162109L279.011 6.1488H289.167L300 10.9381V102.162H150V46.9447Z" fill="#F4F4F4"/>
<path d="M300 46.9447V10.9381L309.47 7.34613L310.439 8.47353H311.93V8.92613H312.675L313.421 9.74081L314.167 9.37873L314.561 9.74081L315.658 9.83134L316.404 10.2839H317.149L317.434 10.7365H318.18L318.334 11.3373L319.671 11.1891V10.7365H320.416L320.898 10.572L321.908 9.83134L322.653 10.2839L323.399 9.83134L323.86 9.74081L327.588 10.2839L329.079 8.54347L332.807 7.56832L333.574 7.61943L333.929 7.56832L334.319 7.16683H335.065L334.871 7.40374L335.811 7.16683V7.40374L336.556 6.95114V6.49854L337.302 6.71423L338.047 6.49854L338.401 6.66312L338.864 6.21052H339.539L340.284 6.49854H341.03V6.95114H341.776L342.099 6.66312L342.521 6.95114L343.267 7.40374L344.012 6.95114H344.758V6.49854H345.504L346.407 6.1488L346.974 6.21052L347.719 6.66312H348.465H349.211L348.465 7.11572L349.211 7.56832L349.956 8.02092L350.702 7.56832L351.447 7.34613L352.193 7.56832V8.02092L353.684 7.56832L353.855 8.14436L354.43 7.56832L355.886 7.34613H356.563L357.241 6.94702L356.563 6.54791H357.241L357.918 6.94702V6.54791L359.272 6.94702V6.1488L359.949 6.54791V6.94702H360.626V6.54791L361.303 6.94702V6.54791L361.98 6.1488L362.657 6.54791H363.334V6.94702L364.011 7.34613L364.688 7.74525L365.366 7.34613V7.74525H366.043L366.72 8.14436L366.043 8.54347H366.72L367.397 7.74525H368.074L367.397 7.34613H368.074H368.751L370.105 6.94702L372.136 8.94258L376.199 9.74081L376.876 8.94258L378.23 9.3417V8.54347L378.907 8.94258H379.584L380.261 8.54347L381.615 8.94258L382.292 9.3417L384.324 8.94258L386.355 9.74081L387.709 8.54347L388.386 9.74081H390.417L391.771 10.9381L393.126 10.1399L393.803 9.3417H395.157L396.511 8.54347L401.25 8.14436L402.605 5.74969L405.99 4.15323H408.021L410.052 4.95146L412.761 4.15323H415.469L418.177 2.9559H420.886L422.917 2.15767L424.948 0.162109L429.011 6.1488H439.167L450 10.9381V102.162H300V46.9447Z" fill="#F4F4F4"/>
<path d="M600 46.9447V10.9381L590.53 7.34613L589.561 8.47353H588.07V8.92613H587.325L586.579 9.74081L585.833 9.37873L585.439 9.74081L584.342 9.83134L583.596 10.2839H582.851L582.566 10.7365H581.82L581.666 11.3373L580.329 11.1891V10.7365H579.584L579.102 10.572L578.092 9.83134L577.347 10.2839L576.601 9.83134L576.14 9.74081L572.412 10.2839L570.921 8.54347L567.193 7.56832L566.426 7.61943L566.071 7.56832L565.681 7.16683H564.935L565.129 7.40374L564.189 7.16683V7.40374L563.444 6.95114V6.49854L562.698 6.71423L561.953 6.49854L561.599 6.66312L561.136 6.21052H560.461L559.716 6.49854H558.97V6.95114H558.224L557.901 6.66312L557.479 6.95114L556.733 7.40374L555.988 6.95114H555.242V6.49854H554.496L553.593 6.1488L553.026 6.21052L552.281 6.66312H551.535H550.789L551.535 7.11572L550.789 7.56832L550.044 8.02092L549.298 7.56832L548.553 7.34613L547.807 7.56832V8.02092L546.316 7.56832L546.145 8.14436L545.57 7.56832L544.114 7.34613H543.437L542.759 6.94702L543.437 6.54791H542.759L542.082 6.94702V6.54791L540.728 6.94702V6.1488L540.051 6.54791V6.94702H539.374V6.54791L538.697 6.94702V6.54791L538.02 6.1488L537.343 6.54791H536.666V6.94702L535.989 7.34613L535.312 7.74525L534.634 7.34613V7.74525H533.957L533.28 8.14436L533.957 8.54347H533.28L532.603 7.74525H531.926L532.603 7.34613H531.926H531.249L529.895 6.94702L527.864 8.94258L523.801 9.74081L523.124 8.94258L521.77 9.3417V8.54347L521.093 8.94258H520.416L519.739 8.54347L518.385 8.94258L517.708 9.3417L515.676 8.94258L513.645 9.74081L512.291 8.54347L511.614 9.74081H509.583L508.229 10.9381L506.874 10.1399L506.197 9.3417H504.843L503.489 8.54347L498.75 8.14436L497.395 5.74969L494.01 4.15323H491.979L489.948 4.95146L487.239 4.15323H484.531L481.823 2.9559H479.114L477.083 2.15767L475.052 0.162109L470.989 6.1488H460.833L450 10.9381V102.162H600V46.9447Z" fill="#F4F4F4"/>
<path d="M600 46.9447V10.9381L616.794 7.34613L618.511 8.47353H621.156V8.92613H622.478L623.8 9.74081L625.122 9.37873L625.821 9.74081L627.767 9.83134L629.089 10.2839H630.411L630.916 10.7365H632.238L632.512 11.3373L634.883 11.1891V10.7365H636.205L637.06 10.572L638.85 9.83134L640.172 10.2839L641.494 9.83134L642.311 9.74081L648.922 10.2839L651.567 8.54347L658.178 7.56832L659.537 7.61943L660.167 7.56832L660.86 7.16683H662.182L661.837 7.40374L663.504 7.16683V7.40374L664.826 6.95114V6.49854L666.149 6.71423L667.471 6.49854L668.097 6.66312L668.919 6.21052H670.115L671.437 6.49854H672.76V6.95114H674.082L674.656 6.66312L675.404 6.95114L676.726 7.40374L678.049 6.95114H679.371V6.49854H680.693L682.296 6.1488L683.3 6.21052L684.622 6.66312H685.945H687.267L685.945 7.11572L687.267 7.56832L688.589 8.02092L689.911 7.56832L691.234 7.34613L692.556 7.56832V8.02092L695.2 7.56832L695.503 8.14436L696.522 7.56832L699.105 7.34613H700.306L701.507 6.94702L700.306 6.54791H701.507L702.707 6.94702V6.54791L705.109 6.94702V6.1488L706.309 6.54791V6.94702H707.51V6.54791L708.711 6.94702V6.54791L709.911 6.1488L711.112 6.54791H712.313V6.94702L713.513 7.34613L714.714 7.74525L715.915 7.34613V7.74525H717.116L718.316 8.14436L717.116 8.54347H718.316L719.517 7.74525H720.717L719.517 7.34613H720.717H721.918L724.32 6.94702L727.922 8.94258L735.126 9.74081L736.326 8.94258L738.728 9.3417V8.54347L739.928 8.94258H741.129L742.33 8.54347L744.731 8.94258L745.932 9.3417L749.534 8.94258L753.136 9.74081L755.537 8.54347L756.738 9.74081H760.34L762.741 10.9381L765.143 10.1399L766.343 9.3417H768.745L771.146 8.54347L779.551 8.14436L781.952 5.74969L787.956 4.15323H791.558L795.16 4.95146L799.962 4.15323H804.765L809.568 2.9559H814.371L817.973 2.15767L821.575 0.162109L828.779 6.1488H846.789L866 10.9381V102.162H600V46.9447Z" fill="#F4F4F4"/>
<path d="M866 46.9447V10.9381L874.46 7.34613L875.325 8.47353H876.657V8.92613H877.323L877.99 9.74081L878.656 9.37873L879.008 9.74081L879.988 9.83134L880.654 10.2839H881.32L881.574 10.7365H882.24L882.378 11.3373L883.573 11.1891V10.7365H884.239L884.669 10.572L885.571 9.83134L886.237 10.2839L886.903 9.83134L887.315 9.74081L890.645 10.2839L891.977 8.54347L895.308 7.56832L895.993 7.61943L896.31 7.56832L896.659 7.16683H897.325L897.151 7.40374L897.991 7.16683V7.40374L898.657 6.95114V6.49854L899.323 6.71423L899.989 6.49854L900.305 6.66312L900.719 6.21052H901.321L901.987 6.49854H902.653V6.95114H903.319L903.609 6.66312L903.986 6.95114L904.652 7.40374L905.318 6.95114H905.984V6.49854H906.65L907.457 6.1488L907.963 6.21052L908.629 6.66312H909.295H909.962L909.295 7.11572L909.962 7.56832L910.628 8.02092L911.294 7.56832L911.96 7.34613L912.626 7.56832V8.02092L913.958 7.56832L914.111 8.14436L914.624 7.56832L915.925 7.34613H916.53L917.135 6.94702L916.53 6.54791H917.135L917.74 6.94702V6.54791L918.949 6.94702V6.1488L919.554 6.54791V6.94702H920.159V6.54791L920.764 6.94702V6.54791L921.369 6.1488L921.974 6.54791H922.579V6.94702L923.183 7.34613L923.788 7.74525L924.393 7.34613V7.74525H924.998L925.603 8.14436L924.998 8.54347H925.603L926.208 7.74525H926.813L926.208 7.34613H926.813H927.417L928.627 6.94702L930.442 8.94258L934.071 9.74081L934.676 8.94258L935.885 9.3417V8.54347L936.49 8.94258H937.095L937.7 8.54347L938.91 8.94258L939.515 9.3417L941.329 8.94258L943.144 9.74081L944.353 8.54347L944.958 9.74081H946.773L947.982 10.9381L949.192 10.1399L949.797 9.3417H951.007L952.216 8.54347L956.45 8.14436L957.66 5.74969L960.684 4.15323H962.499L964.314 4.95146L966.733 4.15323H969.152L971.572 2.9559H973.991L975.806 2.15767L977.62 0.162109L981.249 6.1488H990.322L1000 10.9381V102.162H866V46.9447Z" fill="#F4F4F4"/>
<path d="M1000 46.9447V10.9381L1009.47 7.34613L1010.44 8.47353H1011.93V8.92613H1012.68L1013.42 9.74081L1014.17 9.37873L1014.56 9.74081L1015.66 9.83134L1016.4 10.2839H1017.15L1017.43 10.7365H1018.18L1018.33 11.3373L1019.67 11.1891V10.7365H1020.42L1020.9 10.572L1021.91 9.83134L1022.65 10.2839L1023.4 9.83134L1023.86 9.74081L1027.59 10.2839L1029.08 8.54347L1032.81 7.56832L1033.57 7.61943L1033.93 7.56832L1034.32 7.16683H1035.06L1034.87 7.40374L1035.81 7.16683V7.40374L1036.56 6.95114V6.49854L1037.3 6.71423L1038.05 6.49854L1038.4 6.66312L1038.86 6.21052H1039.54L1040.28 6.49854H1041.03V6.95114H1041.78L1042.1 6.66312L1042.52 6.95114L1043.27 7.40374L1044.01 6.95114H1044.76V6.49854H1045.5L1046.41 6.1488L1046.97 6.21052L1047.72 6.66312H1048.47H1049.21L1048.47 7.11572L1049.21 7.56832L1049.96 8.02092L1050.7 7.56832L1051.45 7.34613L1052.19 7.56832V8.02092L1053.68 7.56832L1053.86 8.14436L1054.43 7.56832L1055.89 7.34613H1056.56L1057.24 6.94702L1056.56 6.54791H1057.24L1057.92 6.94702V6.54791L1059.27 6.94702V6.1488L1059.95 6.54791V6.94702H1060.63V6.54791L1061.3 6.94702V6.54791L1061.98 6.1488L1062.66 6.54791H1063.33V6.94702L1064.01 7.34613L1064.69 7.74525L1065.37 7.34613V7.74525H1066.04L1066.72 8.14436L1066.04 8.54347H1066.72L1067.4 7.74525H1068.07L1067.4 7.34613H1068.07H1068.75L1070.1 6.94702L1072.14 8.94258L1076.2 9.74081L1076.88 8.94258L1078.23 9.3417V8.54347L1078.91 8.94258H1079.58L1080.26 8.54347L1081.62 8.94258L1082.29 9.3417L1084.32 8.94258L1086.35 9.74081L1087.71 8.54347L1088.39 9.74081H1090.42L1091.77 10.9381L1093.13 10.1399L1093.8 9.3417H1095.16L1096.51 8.54347L1101.25 8.14436L1102.6 5.74969L1105.99 4.15323H1108.02L1110.05 4.95146L1112.76 4.15323H1115.47L1118.18 2.9559H1120.89L1122.92 2.15767L1124.95 0.162109L1129.01 6.1488H1139.17L1150 10.9381V102.162H1000V46.9447Z" fill="#F4F4F4"/>
<path d="M1150 46.9447V10.9381L1159.47 7.34613L1160.44 8.47353H1161.93V8.92613H1162.68L1163.42 9.74081L1164.17 9.37873L1164.56 9.74081L1165.66 9.83134L1166.4 10.2839H1167.15L1167.43 10.7365H1168.18L1168.33 11.3373L1169.67 11.1891V10.7365H1170.42L1170.9 10.572L1171.91 9.83134L1172.65 10.2839L1173.4 9.83134L1173.86 9.74081L1177.59 10.2839L1179.08 8.54347L1182.81 7.56832L1183.57 7.61943L1183.93 7.56832L1184.32 7.16683H1185.06L1184.87 7.40374L1185.81 7.16683V7.40374L1186.56 6.95114V6.49854L1187.3 6.71423L1188.05 6.49854L1188.4 6.66312L1188.86 6.21052H1189.54L1190.28 6.49854H1191.03V6.95114H1191.78L1192.1 6.66312L1192.52 6.95114L1193.27 7.40374L1194.01 6.95114H1194.76V6.49854H1195.5L1196.41 6.1488L1196.97 6.21052L1197.72 6.66312H1198.47H1199.21L1198.47 7.11572L1199.21 7.56832L1199.96 8.02092L1200.7 7.56832L1201.45 7.34613L1202.19 7.56832V8.02092L1203.68 7.56832L1203.86 8.14436L1204.43 7.56832L1205.89 7.34613H1206.56L1207.24 6.94702L1206.56 6.54791H1207.24L1207.92 6.94702V6.54791L1209.27 6.94702V6.1488L1209.95 6.54791V6.94702H1210.63V6.54791L1211.3 6.94702V6.54791L1211.98 6.1488L1212.66 6.54791H1213.33V6.94702L1214.01 7.34613L1214.69 7.74525L1215.37 7.34613V7.74525H1216.04L1216.72 8.14436L1216.04 8.54347H1216.72L1217.4 7.74525H1218.07L1217.4 7.34613H1218.07H1218.75L1220.1 6.94702L1222.14 8.94258L1226.2 9.74081L1226.88 8.94258L1228.23 9.3417V8.54347L1228.91 8.94258H1229.58L1230.26 8.54347L1231.62 8.94258L1232.29 9.3417L1234.32 8.94258L1236.35 9.74081L1237.71 8.54347L1238.39 9.74081H1240.42L1241.77 10.9381L1243.13 10.1399L1243.8 9.3417H1245.16L1246.51 8.54347L1251.25 8.14436L1252.6 5.74969L1255.99 4.15323H1258.02L1260.05 4.95146L1262.76 4.15323H1265.47L1268.18 2.9559H1270.89L1272.92 2.15767L1274.95 0.162109L1279.01 6.1488H1289.17L1300 10.9381V102.162H1150V46.9447Z" fill="#F4F4F4"/>
<path d="M1300 46.9447V10.9381L1313.38 7.34613L1314.75 8.47353H1316.86V8.92613H1317.91L1318.97 9.74081L1320.02 9.37873L1320.58 9.74081L1322.13 9.83134L1323.18 10.2839H1324.24L1324.64 10.7365H1325.69L1325.91 11.3373L1327.8 11.1891V10.7365H1328.86L1329.54 10.572L1330.96 9.83134L1332.02 10.2839L1333.07 9.83134L1333.72 9.74081L1338.99 10.2839L1341.1 8.54347L1346.37 7.56832L1347.45 7.61943L1347.95 7.56832L1348.5 7.16683H1349.56L1349.28 7.40374L1350.61 7.16683V7.40374L1351.67 6.95114V6.49854L1352.72 6.71423L1353.77 6.49854L1354.27 6.66312L1354.93 6.21052H1355.88L1356.94 6.49854H1357.99V6.95114H1359.04L1359.5 6.66312L1360.1 6.95114L1361.15 7.40374L1362.2 6.95114H1363.26V6.49854H1364.31L1365.59 6.1488L1366.39 6.21052L1367.44 6.66312H1368.5H1369.55L1368.5 7.11572L1369.55 7.56832L1370.6 8.02092L1371.66 7.56832L1372.71 7.34613L1373.77 7.56832V8.02092L1375.87 7.56832L1376.12 8.14436L1376.93 7.56832L1378.99 7.34613H1379.94L1380.9 6.94702L1379.94 6.54791H1380.9L1381.86 6.94702V6.54791L1383.77 6.94702V6.1488L1384.73 6.54791V6.94702H1385.68V6.54791L1386.64 6.94702V6.54791L1387.6 6.1488L1388.56 6.54791H1389.51V6.94702L1390.47 7.34613L1391.43 7.74525L1392.38 7.34613V7.74525H1393.34L1394.3 8.14436L1393.34 8.54347H1394.3L1395.25 7.74525H1396.21L1395.25 7.34613H1396.21H1397.17L1399.08 6.94702L1401.95 8.94258L1407.69 9.74081L1408.65 8.94258L1410.56 9.3417V8.54347L1411.52 8.94258H1412.48L1413.44 8.54347L1415.35 8.94258L1416.31 9.3417L1419.18 8.94258L1422.05 9.74081L1423.96 8.54347L1424.92 9.74081H1427.79L1429.7 10.9381L1431.62 10.1399L1432.57 9.3417H1434.49L1436.4 8.54347L1443.1 8.14436L1445.01 5.74969L1449.8 4.15323H1452.67L1455.54 4.95146L1459.37 4.15323H1463.2L1467.02 2.9559H1470.85L1473.72 2.15767L1476.59 0.162109L1482.34 6.1488H1496.69L1512 10.9381V102.162H1300V46.9447Z" fill="#F4F4F4"/>
<g clip-path="url(#clip0_33_28)">
<path d="M-805 228.037C-805 228.037 -616 157.287 -427 157.287C-238 157.287 -49 228.037 -49 228.037C-49 228.037 140 298.787 329 298.787C518 298.787 707 228.037 707 228.037C707 228.037 896 157.287 1085 157.287C1274 157.287 1463 228.037 1463 228.037C1463 228.037 1652 298.787 1841 298.787C2030 298.787 2219 228.037 2219 228.037" stroke="#F6EAC6" stroke-width="2.5"/>
<path d="M-805 157.287C-805 157.287 -616 86.5371 -427 86.5371C-238 86.5371 -49 157.287 -49 157.287C-49 157.287 140 228.037 329 228.037C518 228.037 707 157.287 707 157.287C707 157.287 896 86.5371 1085 86.5371C1274 86.5371 1463 157.287 1463 157.287C1463 157.287 1652 228.037 1841 228.037C2030 228.037 2219 157.287 2219 157.287" stroke="#F6EAC6" stroke-width="2.5"/>
<path d="M-805 298.787C-805 298.787 -616 228.037 -427 228.037C-238 228.037 -49 298.787 -49 298.787C-49 298.787 140 369.537 329 369.537C518 369.537 707 298.787 707 298.787C707 298.787 896 228.037 1085 228.037C1274 228.037 1463 298.787 1463 298.787C1463 298.787 1652 369.537 1841 369.537C2030 369.537 2219 298.787 2219 298.787" stroke="#F6EAC6" stroke-width="2.5"/>
<path d="M-805 86.5371C-805 86.5371 -616 15.7871 -427 15.7871C-238 15.7871 -49 86.5371 -49 86.5371C-49 86.5371 140 157.287 329 157.287C518 157.287 707 86.5371 707 86.5371C707 86.5371 896 15.7871 1085 15.7871C1274 15.7871 1463 86.5371 1463 86.5371C1463 86.5371 1652 157.287 1841 157.287C2030 157.287 2219 86.5371 2219 86.5371" stroke="#F6EAC6" stroke-width="2.5"/>
<path d="M-805 15.7871C-805 15.7871 -616 -54.9629 -427 -54.9629C-238 -54.9629 -49 15.7871 -49 15.7871C-49 15.7871 140 86.5371 329 86.5371C518 86.5371 707 15.7871 707 15.7871C707 15.7871 896 -54.9629 1085 -54.9629C1274 -54.9629 1463 15.7871 1463 15.7871C1463 15.7871 1652 86.5371 1841 86.5371C2030 86.5371 2219 15.7871 2219 15.7871" stroke="#F6EAC6" stroke-width="2.5"/>
</g>
<defs>
<clipPath id="clip0_33_28">
<rect width="1512" height="283" fill="white" transform="translate(0 8.16211)"/>
</clipPath>
</defs>
</svg>
