<svg width="734" height="463" viewBox="0 0 734 463" fill="none" xmlns="http://www.w3.org/2000/svg">
<path opacity="0.8" d="M0 377.171L5.3751 388.622H14.9308V399.773H23.8893L28.07 405.747L37.6257 404.254L42.4036 410.228L52.5565 404.254L56.1399 399.773L61.5151 405.747L74.057 414.709H89.585L96.1546 426.159L100.932 437.61L104.516 442.588L114.072 441.095L118.849 445.077L126.016 451.052L133.183 448.562L136.766 453.541L147.517 455.532L143.933 457.524L152.295 459.017L156.475 463L162.448 457.524L171.406 459.017L181.559 455.532L188.129 449.558L206.046 453.541L212.615 459.017L218.587 449.558L229.338 443.086L241.88 446.511L244.866 436.056L259.797 441.095V445.575L271.144 441.095L283.089 446.511L299.811 445.575L298.617 438.108L308.172 441.095L311.159 433.627L324.895 436.056L332.659 431.635H348.784L351.771 436.056H358.937L363.118 439.103L367.299 432.631L375.66 429.584L384.618 436.056L394.174 433.627L399.549 441.095H411.494V436.056L419.258 441.095L431.203 438.108L435.98 443.584L445.536 442.588L447.925 447.567L453.897 450.554L457.481 446.511H465.245L474.203 450.554L483.162 447.567L488.537 451.549L494.509 450.554V455.034L501.676 459.017L513.024 449.558H524.968L519.593 442.588L526.76 435.618L529.149 442.588L535.121 440.597L543.482 443.584V449.558L554.233 447.567L561.4 451.549L568.566 446.571L578.719 447.567L587.678 442.588L585.289 439.103L595.442 440.597V434.125L606.192 437.61L619.331 432.133L630.081 435.12L632.47 439.103L633.068 438.605L637.845 440.099L636.054 444.082H641.429L643.818 441.095L647.401 443.584L647.998 441.592L650.387 441.095V439.103L653.971 437.61L657.554 439.103V440.597L660.54 440.099L662.929 435.618L665.915 439.103L668.901 436.116L667.707 434.125L670.096 432.133L671.29 435.618V424.666H677.263V409.73L689.207 402.262L677.263 393.799V379.859L685.624 378.366L685.027 370.898L695.18 368.409L699.958 363.928L697.569 357.456L701.152 354.967L707.722 357.456L714.291 351.482L712.5 347.001L716.083 341.525L721.458 340.529L723.847 338.04L721.458 337.542L719.666 335.053L721.458 332.563L723.847 329.078L721.458 326.091L724.444 324.1L719.666 322.109L718.472 319.121L721.458 317.13L715.486 316.632V313.645L713.694 311.156L716.68 310.658L713.097 308.169L713.694 305.68H716.083L718.472 302.692L720.264 298.212L715.486 294.727L717.277 288.753L712.5 283.276L713.097 277.8H718.472L722.653 273.319L717.875 271.826L713.097 268.341L711.305 265.354L717.277 262.367L713.694 259.877L714.888 255.397L712.5 252.908L720.861 246.933V243.448L717.277 241.457L719.666 239.466H724.444L727.43 236.478L725.639 232.994H731.611L730.417 229.509L734 230.504V226.024L731.611 222.041H725.639L726.833 217.56L722.653 215.071L721.458 212.582L723.25 212.084L725.639 209.595L722.653 208.101L719.666 202.127L717.277 194.659L724.444 193.663L730.417 183.706L720.861 185.2L713.694 179.724L704.138 168.273L702.347 160.805L699.36 149.853H686.221L679.652 135.913L692.194 128.445L686.221 122.471L682.041 111.02L686.221 102.059L682.041 97.5785L685.624 92.1021L677.263 90.6086V87.1236L680.846 82.643L678.457 77.1666L686.221 72.686L678.457 68.7032L674.874 61.2355L677.263 55.7591L671.888 49.7849L664.124 44.8064L660.54 49.2871L659.346 42.8151L654.568 36.343L653.373 27.8795L658.151 21.9053L650.387 17.9225L647.401 6.96991L642.623 8.96127L641.429 12.4462L636.651 10.9527L635.456 4.97849L629.484 0.995667L623.512 4.97849L617.539 1.49353L616.942 4.48065H613.359L611.567 6.96991L608.581 4.97849L609.178 2.98709L607.386 1.49353H604.4L602.609 2.98709H600.817L599.622 1.99139H597.233L595.442 2.48923L594.845 3.98279L594.247 2.98709L592.456 2.48923H590.664L590.067 3.48492V1.99139H588.275L586.483 0.995667L585.289 1.99139L584.094 2.48923L582.303 1.99139L581.705 2.98709V3.48492L581.108 3.98279H579.914L579.316 4.97849L578.122 5.47635V6.47205L576.928 5.97418V5.47635H575.733L575.136 4.97849L574.539 5.97418L573.344 5.47635L572.747 6.47205L571.552 7.46771L570.358 8.46344H572.747L572.15 8.96127L570.358 9.95697L569.164 10.9527L567.372 11.4505L565.58 10.9527L563.191 12.4462L560.802 10.9527L558.413 9.95697L556.622 11.4505V10.4548L554.233 9.95697L553.635 10.9527L552.441 11.4505L550.649 10.9527L549.455 11.4505L548.858 10.4548H547.066L547.663 9.95697V8.96127L547.066 8.46344L546.469 8.96127L545.871 8.46344V7.96558H544.677V6.96991L544.08 7.46771L543.482 6.96991H542.288L539.302 6.47205H537.51L536.913 7.96558L535.718 7.46771L535.121 6.47205H532.732L531.538 5.47635L529.746 6.47205L528.552 5.97418L529.149 6.96991H527.357L526.76 6.47205L524.968 7.46771L524.371 6.96991L523.177 7.96558L522.579 7.46771L521.982 8.46344L519.593 8.96127L518.996 8.46344V7.46771L517.801 6.96991L516.607 7.96558L517.204 8.46344H516.01L515.412 7.96558L514.218 8.96127L513.024 8.46344V7.46771H512.426L513.024 6.47205V5.97418L511.829 4.97849L511.232 5.47635L507.051 6.96991L504.065 5.97418L501.676 8.96127L499.884 7.46771L495.704 6.47205L492.718 7.96558L490.329 8.46344L487.343 7.46771L487.94 5.47635L484.954 5.97418L483.162 3.98279L481.37 5.47635L479.578 3.98279L477.19 4.48065V2.48923L474.203 2.98709L473.606 3.98279H471.217L469.426 2.98709L467.634 1.99139L465.245 3.48492L464.05 2.48923H461.064L461.661 3.98279L459.273 2.98709L459.87 4.48065H458.078L456.884 5.47635V6.47205L455.092 5.97418V4.97849L453.3 5.47635L453.897 3.98279L452.106 4.48065L450.911 4.97849L450.314 3.98279L448.522 3.48492L449.12 2.48923L446.731 2.98709V2.48923L446.133 1.49353L445.536 0.995667L444.342 2.48923V1.49353H443.147H441.953L441.356 1.99139L440.161 1.49353V0.497833L439.564 0.995667L438.369 -3.05176e-05L436.578 1.99139L437.772 2.98709L435.98 3.98279L435.383 2.98709L433.592 1.99139L430.605 2.48923L427.619 3.98279L428.216 5.47635L426.425 3.98279L424.633 4.97849L425.23 6.47205L423.812 7.96558L422.841 6.47205V5.47635H420.452L419.855 6.47205H418.063L417.242 5.47635L415.077 6.47205V8.46344L413.883 8.71234L413.286 9.95697L413.883 10.9527L412.688 11.4505V12.1973L409.702 11.9484L407.91 13.4419H405.522L403.133 12.1973V14.4376L400.744 13.4419L399.549 15.9312L398.355 14.4376H396.563L395.369 15.4333L393.577 13.9398V12.1973L390.591 12.9441L389.993 14.4376L388.799 13.9398H387.007V14.9355L385.216 15.9312L384.618 14.9355L383.424 14.4376L382.229 14.9355V13.4419H380.438L379.243 12.1973L378.049 12.9441L378.646 13.9398L376.854 13.4419L375.063 13.9398V14.9355L373.271 15.4333L372.076 14.4376V13.4419L371.479 12.9441L370.882 12.4462H369.688V13.4419L367.896 12.9441V11.4505L366.701 10.9527V9.95697H364.91L360.132 12.9441H354.757L352.965 10.9527L348.187 13.4419V15.9312L343.409 16.429L339.826 13.9398L334.451 15.9312L333.256 14.4376L332.062 17.9225L328.478 15.4333L329.673 18.9182L324.895 17.9225L320.714 18.6417L319.52 16.9268L315.937 15.9312L313.548 17.9225L311.159 15.4333L309.367 12.1696L305.784 14.4376L303.395 12.4462L301.603 9.95697H298.617L296.825 12.9441L294.436 10.9527V8.46344L290.853 10.4548L287.269 8.96127L285.478 6.96991L287.867 4.97849L283.089 5.47635L281.297 3.98279L280.103 5.47635L275.922 6.96991L273.533 5.47635L269.95 4.97849L268.755 6.47205L264.574 5.47635L262.783 6.96991L263.38 8.46344L259.797 8.96127L257.408 7.46771L255.019 8.46344L253.227 6.96991L250.838 8.96127L249.046 7.46771L247.852 10.9527L246.657 8.46344L243.671 7.96558L244.268 10.9527L241.88 11.4505L240.088 13.4419L237.699 11.4505L234.713 14.9355L234.116 12.9441L230.532 15.9312L226.949 15.4333L229.338 17.9225L225.157 16.9268L223.963 19.914L221.574 16.9268L220.976 14.4376L216.796 16.9268L214.407 14.9355L213.81 16.9268L212.615 13.9398L207.837 12.4462L205.448 13.4419L206.046 15.9312L201.268 15.4333L198.879 13.4419L197.684 15.9312L194.101 14.4376L194.698 12.4462L189.92 11.9484L187.531 14.4376L185.74 12.4462L185.142 9.95697L181.559 11.9484L179.17 10.4548L177.378 12.4462L173.198 10.4548L175.587 7.96558L172.6 6.47205L169.017 7.46771L169.614 4.97849L166.031 5.97418L163.045 4.48065L161.85 2.98709L157.072 4.97849L153.489 2.48923H149.906L149.308 6.47205L144.531 8.46344L140.35 4.97849L135.572 8.46344L133.183 6.47205L129.002 9.95697L123.03 10.4548L119.447 13.4419L115.863 10.9527L117.058 13.4419L114.072 15.9312L112.28 13.4419H106.905L102.724 15.4333L103.919 18.9182L100.335 19.914L97.9463 18.4204L98.5435 14.4376H94.9601L90.7795 15.9312L90.1823 13.4419L91.3767 10.9527H88.3906L86.0016 12.4462L83.0155 10.9527L80.0293 10.4548L77.6404 12.4462L75.2514 12.9441L73.4597 10.9527L71.0708 12.4462L70.4735 14.4376L67.4874 14.9355L66.2929 12.9441L64.5012 12.4462L62.7095 14.9355L60.3206 12.4462L57.9316 12.9441L56.7372 14.4376L56.1399 13.4419L54.9455 13.9398H53.1538L53.751 14.9355L52.5565 15.9312L53.751 16.429L53.1538 17.4247H51.3621L50.1676 18.4204L48.9731 19.914L47.1814 19.4161L46.5842 20.4118L45.3897 19.914L44.1953 20.9097H43.0008L42.4036 19.914L40.6119 18.9182L40.0146 20.9097L38.8202 20.4118H37.6257L37.0285 19.4161H36.4312L37.0285 18.4204L36.4312 17.9225L35.2368 16.9268H33.4451V17.9225L31.0561 17.4247L29.8617 16.2306L29.2644 17.7241H28.6672L27.7183 17.4247L26.8755 18.222L25.681 19.2177L24.4866 17.9225L23.8893 19.7155H22.0976L20.3059 20.9097L19.7087 22.4032V23.3989H20.3059L19.1115 24.3946L17.917 23.8967V24.8925L17.3198 25.8882V26.8839L16.1253 27.3817V28.3774L17.3198 28.8752H16.7225L15.5281 30.3688V31.8623L16.1253 33.8538H13.7364L14.3336 35.3473L12.5419 35.8451V36.8408L11.9447 37.3387L12.5419 38.8322L11.3474 40.3258H13.1391L13.7364 41.8193L13.1391 43.3129H11.9447L13.1391 45.3043L11.3474 47.2957L13.7364 49.2871L10.7502 50.2828V52.2742L11.3474 55.2613H13.1391V57.2527L11.3474 59.7419L7.76404 61.7333L10.7502 64.2226V67.7075L11.9447 69.6989L11.3474 71.6903H13.1391L13.7364 73.6817L11.3474 74.1795L12.5419 76.6688L10.7502 77.1666L12.5419 78.1624L11.9447 80.6516L13.1391 83.1408L15.5281 82.643L16.1253 84.6344L15.5281 86.6258H17.3198L16.7225 89.115L19.1115 90.1107V92.1021L20.9032 93.0978V95.0892L19.7087 96.0849L20.3059 97.5785L19.1115 98.5742H17.917L19.1115 100.566L18.2156 102.059L18.5142 104.051L19.7087 105.046L17.3198 105.544L18.5142 107.535L21.5004 108.033L23.8893 110.523L23.2921 113.012L21.5004 114.505L18.5142 115.003L19.7087 116.995L17.0212 117.492L16.7225 118.488L17.3198 120.088L15.5281 120.977L17.3198 122.471L16.1253 124.462V126.454L13.7364 126.952H11.3474V128.943L7.76404 127.947L8.36127 129.939L10.153 131.432L8.9585 132.822L7.1668 133.225L8.9585 135.913L11.3474 136.411L11.9447 138.402L8.9585 140.195L10.7502 140.891V142.883L12.5419 144.676L9.55574 144.178L8.36127 146.667L10.153 148.658L7.76404 147.663L8.36127 150.65L4.77787 151.646L9.55574 154.135L8.36127 158.118L9.55574 158.615L8.36127 163.096L10.7502 164.092L12.5419 164.59L11.9447 167.079L13.7364 168.075L14.9308 170.564L13.7364 172.555L10.7502 174.547L13.1391 175.542L13.7364 179.027V181.517L16.1253 183.01L13.1391 184.504L12.5419 186.495L9.55574 187.989L8.36127 191.474L8.9585 196.452L12.5419 196.95L7.1668 200.933L8.36127 203.92L11.3474 208.898L16.1253 210.89L11.3474 216.864L7.1668 215.868L13.7364 220.349V227.319L20.3059 226.323L22.6949 228.812L22.0976 234.786L17.3198 236.778L12.5419 239.267L20.3059 241.259L22.0976 246.735L18.5142 251.215V258.185L13.7364 259.679L17.3198 265.155L13.7364 268.142H8.36127L13.7364 275.112L15.5281 279.095L8.9585 283.078L2.98617 284.074L8.9585 288.554L9.55574 294.031L5.3751 300.503L0 299.507L5.3751 307.97L14.9308 309.962V318.425L5.3751 327.884H14.9308L19.7087 334.854L10.153 338.339L5.3751 349.79V366.219L0 377.171Z" fill="#E9B572"/>
</svg>
