<svg width="255" height="124" viewBox="0 0 255 124" fill="none" xmlns="http://www.w3.org/2000/svg">
    <path d="M-23 98.6036L-20.9642 101.992H-17.345V105.291H-13.952L-12.3686 107.059L-8.74939 106.617L-6.93979 108.385L-3.09439 106.617L-1.73718 105.291L0.298618 107.059L5.04882 109.711H10.93L13.4182 113.099L15.2278 116.487L16.585 117.96L20.2042 117.518L22.0138 118.697L24.7282 120.465L27.4426 119.728L28.7998 121.201L32.8714 121.79L31.5142 122.38L34.681 122.822L36.2644 124L38.5264 122.38L41.9194 122.822L45.7648 121.79L48.2531 120.023L55.0391 121.201L57.5273 122.822L59.7893 120.023L63.8609 118.108L68.6111 119.121L69.7421 116.027L75.3971 117.518V118.844L79.6949 117.518L84.2189 119.121L90.5525 118.844L90.1001 116.634L93.7193 117.518L94.8503 115.309L100.053 116.027L102.993 114.719H109.101L110.232 116.027H112.946L114.53 116.929L116.113 115.014L119.28 114.112L122.673 116.027L126.292 115.309L128.328 117.518H132.852V116.027L135.793 117.518L140.317 116.634L142.126 118.255L145.745 117.96L146.65 119.433L148.912 120.317L150.269 119.121H153.21L156.603 120.317L159.996 119.433L162.032 120.612L164.294 120.317V121.643L167.008 122.822L171.306 120.023H175.83L173.794 117.96L176.509 115.898L177.413 117.96L179.675 117.371L182.842 118.255V120.023L186.914 119.433L189.628 120.612L192.343 119.139L196.188 119.433L199.581 117.96L198.676 116.929L202.522 117.371V115.456L206.593 116.487L211.57 114.867L215.641 115.751L216.546 116.929L216.772 116.782L218.582 117.224L217.903 118.402H219.939L220.844 117.518L222.201 118.255L222.427 117.666L223.332 117.518V116.929L224.689 116.487L226.046 116.929V117.371L227.177 117.224L228.082 115.898L229.213 116.929L230.344 116.045L229.892 115.456L230.797 114.867L231.249 115.898V112.657H233.511V108.238L238.035 106.028L233.511 103.524V99.3989L236.678 98.957L236.452 96.7473L240.297 96.0108L242.107 94.6849L241.202 92.7699L242.559 92.0333L245.047 92.7699L247.535 91.0022L246.857 89.6763L248.214 88.0559L250.25 87.7613L251.155 87.0247L250.25 86.8774L249.571 86.1409L250.25 85.4043L251.155 84.3731L250.25 83.4892L251.381 82.9L249.571 82.3108L249.119 81.4269L250.25 80.8376L247.988 80.6903V79.8064L247.309 79.0699L248.44 78.9226L247.083 78.186L247.309 77.4495H248.214L249.119 76.5656L249.797 75.2398L247.988 74.2086L248.666 72.4409L246.857 70.8204L247.083 69.2H249.119L250.702 67.8742L248.893 67.4323L247.083 66.4011L246.404 65.5172L248.666 64.6333L247.309 63.8968L247.762 62.571L246.857 61.8344L250.024 60.0667V59.0355L248.666 58.4462L249.571 57.857H251.381L252.512 56.9731L251.833 55.9419H254.095L253.643 54.9108L255 55.2054V53.8796L254.095 52.7011H251.833L252.286 51.3753L250.702 50.6387L250.25 49.9022L250.928 49.7548L251.833 49.0183L250.702 48.5763L249.571 46.8086L248.666 44.5989L251.381 44.3043L253.643 41.3581L250.024 41.8L247.309 40.1796L243.69 36.7914L243.011 34.5817L241.88 31.3409H236.904L234.416 27.2161L239.166 25.0065L236.904 23.2387L235.321 19.8505L236.904 17.1989L235.321 15.8731L236.678 14.2527L233.511 13.8108V12.7796L234.868 11.4538L233.963 9.83334L236.904 8.50753L233.963 7.32904L232.606 5.11935L233.511 3.49892L231.475 1.73119L228.535 0.258072L227.177 1.58388L226.725 -0.331177L224.915 -2.24624L224.463 -4.75053L226.273 -6.51828L223.332 -7.69678L222.201 -10.9376L220.391 -10.3484L219.939 -9.3172L218.129 -9.75914L217.677 -11.5269L215.415 -12.7054L213.153 -11.5269L210.891 -12.5581L210.665 -11.6742H209.308L208.629 -10.9376L207.498 -11.5269L207.724 -12.1161L207.046 -12.5581H205.915L205.236 -12.1161H204.557L204.105 -12.4107H203.2L202.522 -12.2634L202.295 -11.8215L202.069 -12.1161L201.391 -12.2634H200.712L200.486 -11.9688V-12.4107H199.807L199.129 -12.7054L198.676 -12.4107L198.224 -12.2634L197.545 -12.4107L197.319 -12.1161V-11.9688L197.093 -11.8215H196.64L196.414 -11.5269L195.962 -11.3796V-11.0849L195.509 -11.2323V-11.3796H195.057L194.831 -11.5269L194.605 -11.2323L194.152 -11.3796L193.926 -11.0849L193.474 -10.7903L193.021 -10.4957H193.926L193.7 -10.3484L193.021 -10.0538L192.569 -9.75914L191.89 -9.61182L191.212 -9.75914L190.307 -9.3172L189.402 -9.75914L188.497 -10.0538L187.819 -9.61182V-9.90645L186.914 -10.0538L186.688 -9.75914L186.235 -9.61182L185.557 -9.75914L185.104 -9.61182L184.878 -9.90645H184.199L184.426 -10.0538V-10.3484L184.199 -10.4957L183.973 -10.3484L183.747 -10.4957V-10.643H183.295V-10.9376L183.068 -10.7903L182.842 -10.9376H182.39L181.259 -11.0849H180.58L180.354 -10.643L179.902 -10.7903L179.675 -11.0849H178.771L178.318 -11.3796L177.64 -11.0849L177.187 -11.2323L177.413 -10.9376H176.735L176.509 -11.0849L175.83 -10.7903L175.604 -10.9376L175.151 -10.643L174.925 -10.7903L174.699 -10.4957L173.794 -10.3484L173.568 -10.4957V-10.7903L173.116 -10.9376L172.663 -10.643L172.889 -10.4957H172.437L172.211 -10.643L171.758 -10.3484L171.306 -10.4957V-10.7903H171.08L171.306 -11.0849V-11.2323L170.854 -11.5269L170.627 -11.3796L169.044 -10.9376L167.913 -11.2323L167.008 -10.3484L166.33 -10.7903L164.746 -11.0849L163.615 -10.643L162.71 -10.4957L161.579 -10.7903L161.806 -11.3796L160.675 -11.2323L159.996 -11.8215L159.317 -11.3796L158.639 -11.8215L157.734 -11.6742V-12.2634L156.603 -12.1161L156.377 -11.8215H155.472L154.793 -12.1161L154.115 -12.4107L153.21 -11.9688L152.758 -12.2634H151.627L151.853 -11.8215L150.948 -12.1161L151.174 -11.6742H150.496L150.043 -11.3796V-11.0849L149.365 -11.2323V-11.5269L148.686 -11.3796L148.912 -11.8215L148.234 -11.6742L147.781 -11.5269L147.555 -11.8215L146.876 -11.9688L147.103 -12.2634L146.198 -12.1161V-12.2634L145.972 -12.5581L145.745 -12.7054L145.293 -12.2634V-12.5581H144.841H144.388L144.162 -12.4107L143.71 -12.5581V-12.8527L143.483 -12.7054L143.031 -13L142.352 -12.4107L142.805 -12.1161L142.126 -11.8215L141.9 -12.1161L141.221 -12.4107L140.09 -12.2634L138.959 -11.8215L139.186 -11.3796L138.507 -11.8215L137.828 -11.5269L138.055 -11.0849L137.517 -10.643L137.15 -11.0849V-11.3796H136.245L136.019 -11.0849H135.34L135.029 -11.3796L134.209 -11.0849V-10.4957L133.757 -10.422L133.531 -10.0538L133.757 -9.75914L133.304 -9.61182V-9.39085L132.173 -9.46451L131.495 -9.02258H130.59L129.685 -9.39085V-8.72795L128.78 -9.02258L128.328 -8.28603L127.876 -8.72795H127.197L126.745 -8.43333L126.066 -8.87526V-9.39085L124.935 -9.16989L124.709 -8.72795L124.256 -8.87526H123.578V-8.58064L122.899 -8.28603L122.673 -8.58064L122.221 -8.72795L121.768 -8.58064V-9.02258H121.09L120.637 -9.39085L120.185 -9.16989L120.411 -8.87526L119.732 -9.02258L119.054 -8.87526V-8.58064L118.375 -8.43333L117.923 -8.72795V-9.02258L117.697 -9.16989L117.47 -9.3172H117.018V-9.02258L116.339 -9.16989V-9.61182L115.887 -9.75914V-10.0538H115.208L113.399 -9.16989H111.363L110.684 -9.75914L108.875 -9.02258V-8.28603L107.065 -8.1387L105.708 -8.87526L103.672 -8.28603L103.22 -8.72795L102.767 -7.69678L101.41 -8.43333L101.862 -7.40215L100.053 -7.69678L98.4695 -7.48398L98.0171 -7.99139L96.6599 -8.28603L95.7551 -7.69678L94.8503 -8.43333L94.1717 -9.39903L92.8145 -8.72795L91.9097 -9.3172L91.2311 -10.0538H90.1001L89.4215 -9.16989L88.5167 -9.75914V-10.4957L87.1595 -9.90645L85.8023 -10.3484L85.1237 -10.9376L86.0285 -11.5269L84.2189 -11.3796L83.5403 -11.8215L83.0879 -11.3796L81.5045 -10.9376L80.5997 -11.3796L79.2425 -11.5269L78.7901 -11.0849L77.2067 -11.3796L76.5281 -10.9376L76.7543 -10.4957L75.3971 -10.3484L74.4923 -10.7903L73.5875 -10.4957L72.9089 -10.9376L72.0041 -10.3484L71.3255 -10.7903L70.8731 -9.75914L70.4207 -10.4957L69.2897 -10.643L69.5159 -9.75914L68.6111 -9.61182L67.9325 -9.02258L67.0277 -9.61182L65.8967 -8.58064L65.6705 -9.16989L64.3133 -8.28603L62.9561 -8.43333L63.8609 -7.69678L62.2775 -7.99139L61.8251 -7.10751L60.9203 -7.99139L60.6941 -8.72795L59.1107 -7.99139L58.2059 -8.58064L57.9797 -7.99139L57.5273 -8.87526L55.7177 -9.3172L54.8129 -9.02258L55.0391 -8.28603L53.2295 -8.43333L52.3247 -9.02258L51.8723 -8.28603L50.5151 -8.72795L50.7412 -9.3172L48.9317 -9.46451L48.0269 -8.72795L47.3483 -9.3172L47.1221 -10.0538L45.7648 -9.46451L44.8601 -9.90645L44.1814 -9.3172L42.598 -9.90645L43.5028 -10.643L42.3718 -11.0849L41.0146 -10.7903L41.2408 -11.5269L39.8836 -11.2323L38.7526 -11.6742L38.3002 -12.1161L36.4906 -11.5269L35.1334 -12.2634H33.7762L33.55 -11.0849L31.7404 -10.4957L30.157 -11.5269L28.3474 -10.4957L27.4426 -11.0849L25.8592 -10.0538L23.5972 -9.90645L22.24 -9.02258L20.8828 -9.75914L21.3352 -9.02258L20.2042 -8.28603L19.5256 -9.02258H17.4898L15.9064 -8.43333L16.3588 -7.40215L15.0016 -7.10751L14.0968 -7.54947L14.323 -8.72795H12.9658L11.3824 -8.28603L11.1562 -9.02258L11.6086 -9.75914H10.4776L9.57283 -9.3172L8.44182 -9.75914L7.31082 -9.90645L6.40602 -9.3172L5.50122 -9.16989L4.82262 -9.75914L3.91782 -9.3172L3.69162 -8.72795L2.56062 -8.58064L2.10822 -9.16989L1.42962 -9.3172L0.751017 -8.58064L-0.153782 -9.3172L-1.05858 -9.16989L-1.51098 -8.72795L-1.73718 -9.02258L-2.18958 -8.87526H-2.86819L-2.64198 -8.58064L-3.09439 -8.28603L-2.64198 -8.1387L-2.86819 -7.84409H-3.54678L-3.99919 -7.54947L-4.45159 -7.10751L-5.13019 -7.25484L-5.35639 -6.96022L-5.80879 -7.10751L-6.26119 -6.8129H-6.71359L-6.93979 -7.10751L-7.61839 -7.40215L-7.84459 -6.8129L-8.29699 -6.96022H-8.74939L-8.97559 -7.25484H-9.20179L-8.97559 -7.54947L-9.20179 -7.69678L-9.65419 -7.99139H-10.3328V-7.69678L-11.2376 -7.84409L-11.69 -8.19742L-11.9162 -7.75549H-12.1424L-12.5018 -7.84409L-12.821 -7.60817L-13.2734 -7.31355L-13.7258 -7.69678L-13.952 -7.16623H-14.6306L-15.3092 -6.8129L-15.5354 -6.37096V-6.07634H-15.3092L-15.7616 -5.78171L-16.214 -5.92903V-5.6344L-16.4402 -5.33978V-5.04515L-16.8926 -4.89784V-4.60323L-16.4402 -4.45592H-16.6664L-17.1188 -4.01398V-3.57204L-16.8926 -2.9828H-17.7974L-17.5712 -2.54086L-18.2498 -2.39355V-2.09892L-18.476 -1.95161L-18.2498 -1.50967L-18.7022 -1.06774H-18.0236L-17.7974 -0.625809L-18.0236 -0.183876H-18.476L-18.0236 0.405388L-18.7022 0.994629L-17.7974 1.58388L-18.9284 1.8785V2.46774L-18.7022 3.35162H-18.0236V3.94086L-18.7022 4.67741L-20.0594 5.26668L-18.9284 6.00323V7.03442L-18.476 7.62366L-18.7022 8.21291H-18.0236L-17.7974 8.80215L-18.7022 8.94946L-18.2498 9.68603L-18.9284 9.83334L-18.2498 10.128L-18.476 10.8645L-18.0236 11.6011L-17.1188 11.4538L-16.8926 12.043L-17.1188 12.6323H-16.4402L-16.6664 13.3688L-15.7616 13.6634V14.2527L-15.083 14.5473V15.1366L-15.5354 15.4312L-15.3092 15.8731L-15.7616 16.1677H-16.214L-15.7616 16.757L-16.1009 17.1989L-15.9878 17.7882L-15.5354 18.0828L-16.4402 18.2301L-15.9878 18.8194L-14.8568 18.9667L-13.952 19.7032L-14.1782 20.4398L-14.8568 20.8817L-15.9878 21.029L-15.5354 21.6183L-16.5533 21.7656L-16.6664 22.0602L-16.4402 22.5335L-17.1188 22.7968L-16.4402 23.2387L-16.8926 23.828V24.4172L-17.7974 24.5645H-18.7022V25.1538L-20.0594 24.8591L-19.8332 25.4484L-19.1546 25.8903L-19.607 26.3016L-20.2856 26.4208L-19.607 27.2161L-18.7022 27.3634L-18.476 27.9527L-19.607 28.4832L-18.9284 28.6892V29.2785L-18.2498 29.809L-19.3808 29.6617L-19.8332 30.3983L-19.1546 30.9875L-20.0594 30.6929L-19.8332 31.5768L-21.1904 31.8714L-19.3808 32.6079L-19.8332 33.7864L-19.3808 33.9337L-19.8332 35.2596L-18.9284 35.5542L-18.2498 35.7015L-18.476 36.438L-17.7974 36.7327L-17.345 37.4692L-17.7974 38.0585L-18.9284 38.6477L-18.0236 38.9423L-17.7974 39.9735V40.7101L-16.8926 41.152L-18.0236 41.594L-18.2498 42.1832L-19.3808 42.6251L-19.8332 43.6563L-19.607 45.1294L-18.2498 45.2768L-20.2856 46.4552L-19.8332 47.3391L-18.7022 48.8122L-16.8926 49.4015L-18.7022 51.1692L-20.2856 50.8746L-17.7974 52.2004V54.2628L-15.3092 53.9682L-14.4044 54.7047L-14.6306 56.4725L-16.4402 57.0617L-18.2498 57.7983L-15.3092 58.3875L-14.6306 60.0079L-15.9878 61.3337V63.3961L-17.7974 63.838L-16.4402 65.4585L-17.7974 66.3423H-19.8332L-17.7974 68.4047L-17.1188 69.5832L-19.607 70.7617L-21.869 71.0563L-19.607 72.3821L-19.3808 74.0026L-20.9642 75.9176L-23 75.623L-20.9642 78.1273L-17.345 78.7165V81.2208L-20.9642 84.0198H-17.345L-15.5354 86.0821L-19.1546 87.1133L-20.9642 90.5015V95.3628L-23 98.6036Z" fill="#F4F4F4" />
</svg>