<svg width="1512" height="1174" viewBox="0 0 1512 1174" fill="none" xmlns="http://www.w3.org/2000/svg">
<path d="M-431 522.834V98.5259L-400.896 100.924L-393.812 84.4162L-382.302 96.3715L-359.281 98.5259L-353.969 88.7832L-330.948 84.4162L-339.802 74.8159L-302.615 80.1495L-292.875 66.0183L-261.958 56.1969L-244.671 69.4824H-218.052V74.8159H-204.743L-191.434 84.4162L-178.124 80.1495L-171.089 84.4162L-151.506 85.483L-138.197 90.8166H-124.887L-119.804 96.1501H-106.495L-103.742 103.229L-79.8762 101.484V96.1501H-66.567L-57.966 94.2106L-39.9485 85.483L-26.6392 90.8166L-13.33 85.483L-5.10431 84.4162L61.4419 90.8166L88.0604 70.3066L154.607 58.8152L168.291 59.4175L174.631 58.8152L181.6 54.084H194.91L191.442 56.8757L208.219 54.084V56.8757L221.528 51.5422V46.2087L234.837 48.7504L248.147 46.2087L254.455 48.1481L262.726 42.8146H274.765L288.074 46.2087H301.383V51.5422H314.693L320.475 48.1481L328.002 51.5422L341.311 56.8757L354.62 51.5422H367.93V46.2087H381.239L397.371 42.0873L407.482 42.8146L420.791 48.1481H434.101H447.41L434.101 53.4817L447.41 58.8152L460.719 64.1488L474.028 58.8152L487.338 56.1969L500.647 58.8152V64.1488L527.265 58.8152L530.315 65.6034L540.575 58.8152L566.572 56.1969H578.658L590.744 51.4937L578.658 46.7905H590.744L602.83 51.4937V46.7905L627.002 51.4937V42.0873L639.088 46.7905V51.4937H651.174V46.7905L663.259 51.4937V46.7905L675.345 42.0873L687.431 46.7905H699.517V51.4937L711.603 56.1969L723.689 60.9001L735.775 56.1969V60.9001H747.86L759.945 65.6034L747.86 70.3066H759.945L772.031 60.9001H784.116L772.031 56.1969H784.116H796.202L820.374 51.4937L831.604 56.9123L844.65 48.5652L854.625 60.9001L859.052 75.0098H870.562L888.271 65.6034V81.9537L929.147 84.4162L941.233 75.0098L965.404 79.713V70.3066L977.49 75.0098H989.576L1001.66 70.3066L1025.83 75.0098L1037.92 79.713L1056.5 84.4162L1074.18 75.0098L1078.64 86.5067L1110.43 84.4162L1134.6 70.3066L1146.69 84.4162L1164.52 95.6127L1182.95 84.4162V95.6127L1207.12 98.5259L1231.29 89.1195L1243.38 79.713H1267.55L1291.72 70.3066L1309.73 79.713L1323.01 59.1888L1344.26 55.3946L1376.32 65.6034L1400.49 37.3841L1437.23 42.4945V27.9776L1460.92 18.5712H1497.18L1505.41 37.3841H1550.56L1559.42 18.5712L1586.86 27.9776L1598.38 18.5712H1630.12L1659.47 0L1665.67 4.46151L1686.03 18.5712H1704.62L1709.94 7.02215L1731.19 18.5712H1741.81H1767.49L1783.43 7.02215L1794.05 11.757L1813.53 2.68268V11.757L1821.5 18.5712H1842.75L1846.29 30.7277L1867.54 33.7631L1871.84 42.0873L1882.59 50.0828L1892.33 44.0122L1902.07 50.0828L1916.24 51.6005L1920.67 45.5298L1922.44 33.7631H1935.72L1939.26 38.7004L1950.77 36.4239L1963.17 25.8002L1964.05 30.3532L1968.48 29.5944L1975.56 34.9062V31.1121L1984.42 27.3179H1987.96L1992.39 30.3532L1990.61 35.665L1994.16 34.9062L1996.81 37.9415L2003.01 38.7004L2006.55 34.1474L2012.75 36.4239L2013.64 31.8709L2018.95 30.3532L2022.49 32.6297L2027.8 30.3532L2034 35.665L2038.43 31.1121L2045.51 31.8709L2042.85 37.1827L2053.48 34.9062L2057.02 30.3532L2064.99 43.2533H2072.96L2077.39 50.8417L2082.7 50.0828L2088.9 43.2533L2092.44 47.0475L2104.83 50.8417V56.1535L2116.34 58.43L2112.8 59.9476L2110.15 66.0183L2114.57 65.2594L2119.89 68.2948L2119 75.1242L2125.2 73.6066L2127.85 79.6772L2133.17 80.4361L2138.48 88.7832H2143.79L2149.99 83.087L2157.07 83.8459L2164.16 91.4342L2167.7 87.64L2176.55 89.5322L2181.86 94.8538L2179.21 98.5259L2187.18 97.8892L2189.83 100.924H2196.03L2202.23 98.5259L2203.11 94.8538L2210.2 97.1303L2218.17 94.095L2225.25 91.8185L2228.79 98.5259L2234.1 96.3715L2246.5 98.5259V1173.53H-431V522.834Z" fill="white"/>
</svg>
