<svg width="1143" height="919" viewBox="0 0 1143 919" fill="none" xmlns="http://www.w3.org/2000/svg">
<path opacity="0.8" d="M0 748.64L8.37022 771.368H23.2506V793.502H37.201L43.7111 805.36L58.5915 802.396L66.0317 814.254L81.8421 802.396L87.4223 793.502L95.7925 805.36L115.323 823.147H139.504L149.734 845.875L157.174 868.603L162.754 878.485L177.635 875.52L185.075 883.426L196.235 895.284L207.395 890.343L212.976 900.225L229.716 904.177L224.136 908.13L237.156 911.095L243.666 919L252.967 908.13L266.917 911.095L282.727 904.177L292.958 892.319L320.858 900.225L331.089 911.095L340.389 892.319L357.129 879.473L376.66 886.272L381.31 865.52L404.561 875.52V884.414L422.231 875.52L440.832 886.272L466.872 884.414L465.012 869.591L479.893 875.52L484.543 860.698L505.933 865.52L518.024 856.745H543.134L547.784 865.52H558.945L565.455 871.568L571.965 858.722L584.985 852.674L598.936 865.52L613.816 860.698L622.186 875.52H640.787V865.52L652.877 875.52L671.478 869.591L678.918 880.461L693.798 878.485L697.518 888.367L706.819 894.296L712.399 886.272H724.489L738.439 894.296L752.39 888.367L760.76 896.272L770.06 894.296V903.189L781.22 911.095L798.891 892.319H817.491L809.121 878.485L820.281 864.651L824.002 878.485L833.302 874.532L846.322 880.461V892.319L863.063 888.367L874.223 896.272L885.383 886.39L901.194 888.367L915.144 878.485L911.424 871.568L927.234 874.532V861.686L943.975 868.603L964.435 857.733L981.176 863.662L984.896 871.568L985.826 870.58L993.266 873.544L990.476 881.449H998.846L1002.57 875.52L1008.15 880.461L1009.08 876.509L1012.8 875.52V871.568L1018.38 868.603L1023.96 871.568V874.532L1028.61 873.544L1032.33 864.651L1036.98 871.568L1041.63 865.639L1039.77 861.686L1043.49 857.733L1045.35 864.651V842.911H1054.65V813.266L1073.25 798.443L1054.65 781.644V753.975L1067.67 751.011L1066.74 736.188L1082.55 731.247L1089.99 722.354L1086.27 709.508L1091.85 704.567L1102.08 709.508L1112.31 697.649L1109.52 688.756L1115.1 677.886L1123.47 675.91L1127.19 670.969L1123.47 669.981L1120.68 665.04L1123.47 660.099L1127.19 653.182L1123.47 647.253L1128.12 643.3L1120.68 639.347L1118.82 633.418L1123.47 629.466L1114.17 628.477V622.548L1111.38 617.608L1116.03 616.619L1110.45 611.678L1111.38 606.738H1115.1L1118.82 600.809L1121.61 591.915L1114.17 584.998L1116.96 573.14L1109.52 562.27L1110.45 551.4H1118.82L1125.33 542.506L1117.89 539.542L1110.45 532.625L1107.66 526.696L1116.96 520.767L1111.38 515.826L1113.24 506.932L1109.52 501.991L1122.54 490.133V483.216L1116.96 479.263L1120.68 475.311H1128.12L1132.77 469.382L1129.98 462.465H1139.28L1137.42 455.547L1143 457.524V448.63L1139.28 440.725H1129.98L1131.84 431.831L1125.33 426.89L1123.47 421.949L1126.26 420.961L1129.98 416.02L1125.33 413.056L1120.68 401.198L1116.96 386.375L1128.12 384.399L1137.42 364.635L1122.54 367.6L1111.38 356.73L1096.5 334.002L1093.71 319.18L1089.06 297.44H1068.6L1058.37 269.771L1077.9 254.948L1068.6 243.09L1062.09 220.362L1068.6 202.575L1062.09 193.682L1067.67 182.812L1054.65 179.847V172.93L1060.23 164.036L1056.51 153.167L1068.6 144.273L1056.51 136.368L1050.93 121.545L1054.65 110.675L1046.28 98.8172L1034.19 88.9355L1028.61 97.829L1026.75 84.9828L1019.31 72.1366L1017.45 55.3376L1024.89 43.4796L1012.8 35.5742L1008.15 13.8345L1000.71 17.7871L998.846 24.7043L991.406 21.7399L989.546 9.88171L980.246 1.97632L970.945 9.88171L961.645 2.96454L960.715 8.89362H955.135L952.345 13.8345L947.695 9.88171L948.625 5.92908L945.835 2.96454H941.185L938.395 5.92908H935.605L933.744 3.95276H930.024L927.234 4.94086L926.304 7.9054L925.374 5.92908L922.584 4.94086H919.794L918.864 6.91718V3.95276H916.074L913.284 1.97632L911.424 3.95276L909.564 4.94086L906.774 3.95276L905.844 5.92908V6.91718L904.914 7.9054H903.054L902.124 9.88171L900.264 10.8699V12.8463L898.404 11.858V10.8699H896.544L895.613 9.88171L894.683 11.858L892.823 10.8699L891.893 12.8463L890.033 14.8226L888.173 16.799H891.893L890.963 17.7871L888.173 19.7634L886.313 21.7399L883.523 22.728L880.733 21.7399L877.013 24.7043L873.293 21.7399L869.573 19.7634L866.783 22.728V20.7516L863.063 19.7634L862.133 21.7399L860.273 22.728L857.482 21.7399L855.622 22.728L854.692 20.7516H851.902L852.832 19.7634V17.7871L851.902 16.799L850.972 17.7871L850.042 16.799V15.8108H848.182V13.8345L847.252 14.8226L846.322 13.8345H844.462L839.812 12.8463H837.022L836.092 15.8108L834.232 14.8226L833.302 12.8463H829.582L827.722 10.8699L824.932 12.8463L823.072 11.858L824.002 13.8345H821.212L820.281 12.8463L817.491 14.8226L816.561 13.8345L814.701 15.8108L813.771 14.8226L812.841 16.799L809.121 17.7871L808.191 16.799V14.8226L806.331 13.8345L804.471 15.8108L805.401 16.799H803.541L802.611 15.8108L800.751 17.7871L798.891 16.799V14.8226H797.961L798.891 12.8463V11.858L797.031 9.88171L796.101 10.8699L789.591 13.8345L784.941 11.858L781.22 17.7871L778.43 14.8226L771.92 12.8463L767.27 15.8108L763.55 16.799L758.9 14.8226L759.83 10.8699L755.18 11.858L752.39 7.9054L749.6 10.8699L746.81 7.9054L743.089 8.89362V4.94086L738.439 5.92908L737.509 7.9054H733.789L730.999 5.92908L728.209 3.95276L724.489 6.91718L722.629 4.94086H717.979L718.909 7.9054L715.189 5.92908L716.119 8.89362H713.329L711.469 10.8699V12.8463L708.679 11.858V9.88171L705.888 10.8699L706.819 7.9054L704.028 8.89362L702.168 9.88171L701.238 7.9054L698.448 6.91718L699.378 4.94086L695.658 5.92908V4.94086L694.728 2.96454L693.798 1.97632L691.938 4.94086V2.96454H690.078H688.218L687.288 3.95276L685.428 2.96454V0.98822L684.498 1.97632L682.638 0L679.848 3.95276L681.708 5.92908L678.918 7.9054L677.988 5.92908L675.198 3.95276L670.548 4.94086L665.897 7.9054L666.827 10.8699L664.037 7.9054L661.247 9.88171L662.177 12.8463L659.969 15.8108L658.457 12.8463V10.8699H654.737L653.807 12.8463H651.017L649.738 10.8699L646.367 12.8463V16.799L644.507 17.293L643.577 19.7634L644.507 21.7399L642.647 22.728V24.2103L637.997 23.7162L635.207 26.6806H631.487L627.766 24.2103V28.657L624.046 26.6806L622.186 31.6215L620.326 28.657H617.536L615.676 30.6333L612.886 27.6688V24.2103L608.236 25.6925L607.306 28.657L605.446 27.6688H602.656V29.6451L599.866 31.6215L598.936 29.6451L597.076 28.657L595.216 29.6451V26.6806H592.426L590.565 24.2103L588.705 25.6925L589.635 27.6688L586.845 26.6806L584.055 27.6688V29.6451L581.265 30.6333L579.405 28.657V26.6806L578.475 25.6925L577.545 24.7043H575.685V26.6806L572.895 25.6925V22.728L571.035 21.7399V19.7634H568.245L560.805 25.6925H552.435L549.644 21.7399L542.204 26.6806V31.6215L534.764 32.6096L529.184 27.6688L520.814 31.6215L518.954 28.657L517.094 35.5742L511.513 30.6333L513.373 37.5505L505.933 35.5742L499.423 37.0016L497.563 33.5978L491.983 31.6215L488.263 35.5742L484.543 30.6333L481.753 24.1553L476.172 28.657L472.452 24.7043L469.662 19.7634H465.012L462.222 25.6925L458.502 21.7399V16.799L452.922 20.7516L447.342 17.7871L444.552 13.8345L448.272 9.88171L440.832 10.8699L438.041 7.9054L436.181 10.8699L429.671 13.8345L425.951 10.8699L420.371 9.88171L418.511 12.8463L412.001 10.8699L409.211 13.8345L410.141 16.799L404.561 17.7871L400.84 14.8226L397.12 16.799L394.33 13.8345L390.61 17.7871L387.82 14.8226L385.96 21.7399L384.1 16.799L379.45 15.8108L380.38 21.7399L376.66 22.728L373.87 26.6806L370.15 22.728L365.5 29.6451L364.57 25.6925L358.989 31.6215L353.409 30.6333L357.129 35.5742L350.619 33.5978L348.759 39.5269L345.039 33.5978L344.109 28.657L337.599 33.5978L333.879 29.6451L332.949 33.5978L331.089 27.6688L323.648 24.7043L319.928 26.6806L320.858 31.6215L313.418 30.6333L309.698 26.6806L307.838 31.6215L302.258 28.657L303.188 24.7043L295.748 23.7162L292.028 28.657L289.238 24.7043L288.308 19.7634L282.727 23.7162L279.007 20.7516L276.217 24.7043L269.707 20.7516L273.427 15.8108L268.777 12.8463L263.197 14.8226L264.127 9.88171L258.547 11.858L253.897 8.89362L252.037 5.92908L244.596 9.88171L239.016 4.94086H233.436L232.506 12.8463L225.066 16.799L218.556 9.88171L211.116 16.799L207.395 12.8463L200.885 19.7634L191.585 20.7516L186.005 26.6806L180.425 21.7399L182.285 26.6806L177.635 31.6215L174.845 26.6806H166.474L159.964 30.6333L161.824 37.5505L156.244 39.5269L152.524 36.5624L153.454 28.657H147.874L141.364 31.6215L140.434 26.6806L142.294 21.7399H137.644L133.924 24.7043L129.273 21.7399L124.623 20.7516L120.903 24.7043L117.183 25.6925L114.393 21.7399L110.673 24.7043L109.743 28.657L105.093 29.6451L103.233 25.6925L100.443 24.7043L97.6526 29.6451L93.9325 24.7043L90.2124 25.6925L88.3523 28.657L87.4223 26.6806L85.5622 27.6688H82.7722L83.7022 29.6451L81.8421 31.6215L83.7022 32.6096L82.7722 34.5859H79.9821L78.122 36.5624L76.262 39.5269L73.4719 38.5387L72.5419 40.515L70.6819 39.5269L68.8218 41.5032H66.9618L66.0317 39.5269L63.2417 37.5505L62.3116 41.5032L60.4516 40.515H58.5915L57.6615 38.5387H56.7315L57.6615 36.5624L56.7315 35.5742L54.8714 33.5978H52.0814V35.5742L48.3613 34.5859L46.5012 32.2158L45.5712 35.1803H44.6412L43.1635 34.5859L41.8511 36.1685L39.9911 38.1448L38.131 35.5742L37.201 39.1331H34.4109L31.6208 41.5032L30.6908 44.4677V46.4441H31.6208L29.7608 48.4204L27.9007 47.4322V49.4086L26.9707 51.3849V53.3613L25.1107 54.3495V56.3258L26.9707 57.3139H26.0407L24.1806 60.2784V63.243L25.1107 67.1957H21.3906L22.3206 70.1602L19.5305 71.1484V73.1247L18.6005 74.1129L19.5305 77.0775L17.6705 80.0419H20.4605L21.3906 83.0064L20.4605 85.9709H18.6005L20.4605 89.9237L17.6705 93.8763L21.3906 97.829L16.7404 99.8054V103.758L17.6705 109.687H20.4605V113.64L17.6705 118.581L12.0903 122.533L16.7404 127.474V134.391L18.6005 138.344L17.6705 142.297H20.4605L21.3906 146.249L17.6705 147.238L19.5305 152.178L16.7404 153.167L19.5305 155.143L18.6005 160.084L20.4605 165.025L24.1806 164.036L25.1107 167.989L24.1806 171.942H26.9707L26.0407 176.883L29.7608 178.859V182.812L32.5509 184.788V188.741L30.6908 190.717L31.6208 193.682L29.7608 195.658H27.9007L29.7608 199.611L28.3657 202.575L28.8308 206.528L30.6908 208.504L26.9707 209.492L28.8308 213.445L33.4809 214.433L37.201 219.374L36.271 224.315L33.4809 227.28L28.8308 228.268L30.6908 232.22L26.5057 233.209L26.0407 235.185L26.9707 238.36L24.1806 240.126L26.9707 243.09L25.1107 247.043V250.996L21.3906 251.984H17.6705V255.937L12.0903 253.96L13.0203 257.913L15.8104 260.877L13.9504 263.636L11.1603 264.436L13.9504 269.771L17.6705 270.759L18.6005 274.712L13.9504 278.271L16.7404 279.653V283.605L19.5305 287.164L14.8804 286.176L13.0203 291.117L15.8104 295.069L12.0903 293.093L13.0203 299.022L7.4402 300.998L14.8804 305.939L13.0203 313.845L14.8804 314.833L13.0203 323.726L16.7404 325.703L19.5305 326.691L18.6005 331.632L21.3906 333.608L23.2506 338.549L21.3906 342.502L16.7404 346.454L20.4605 348.431L21.3906 355.348V360.289L25.1107 363.253L20.4605 366.218L19.5305 370.171L14.8804 373.135L13.0203 380.052L13.9504 389.934L19.5305 390.922L11.1603 398.828L13.0203 404.757L17.6705 414.638L25.1107 418.591L17.6705 430.449L11.1603 428.473L21.3906 437.366V451.201L31.6208 449.224L35.3409 454.165L34.4109 466.023L26.9707 469.976L19.5305 474.917L31.6208 478.87L34.4109 489.739L28.8308 498.633V512.467L21.3906 515.432L26.9707 526.302L21.3906 532.231H13.0203L21.3906 546.065L24.1806 553.971L13.9504 561.876L4.65012 563.852L13.9504 572.746L14.8804 583.616L8.37022 596.462L0 594.486L8.37022 611.285L23.2506 615.237V632.036L8.37022 650.811H23.2506L30.6908 664.646L15.8104 671.563L8.37022 694.291V726.901L0 748.64Z" fill="#F4F4F4"/>
</svg>
