<svg width="567" height="289" viewBox="0 0 567 289" fill="none" xmlns="http://www.w3.org/2000/svg">
<path opacity="0.8" d="M0 235.427L4.15216 242.574H11.5338V249.534H18.454L21.6835 253.263L29.0651 252.331L32.7559 256.06L40.5989 252.331L43.367 249.534L47.5191 253.263L57.2075 258.857H69.2026L74.2775 266.004L77.9683 273.152L80.7364 276.259L88.118 275.327L91.8088 277.813L97.345 281.542L102.881 279.988L105.649 283.096L113.954 284.339L111.186 285.582L117.644 286.514L120.874 289L125.487 285.582L132.408 286.514L140.251 284.339L145.325 280.61L159.166 283.096L164.241 286.514L168.854 280.61L177.159 276.57L186.847 278.708L189.154 272.182L200.688 275.327V278.124L209.453 275.327L218.68 278.708L231.598 278.124L230.675 273.462L238.057 275.327L240.364 270.666L250.975 272.182L256.972 269.423H269.429L271.736 272.182H277.272L280.501 274.084L283.731 270.044L290.19 268.142L297.11 272.182L304.491 270.666L308.644 275.327H317.871V272.182L323.868 275.327L333.095 273.462L336.786 276.881L344.168 276.259L346.013 279.367L350.627 281.231L353.395 278.708H359.392L366.312 281.231L373.233 279.367L377.385 281.853L381.998 281.231V284.028L387.535 286.514L396.3 280.61H405.527L401.375 276.259L406.911 271.909L408.757 276.259L413.37 275.016L419.829 276.881V280.61L428.133 279.367L433.67 281.853L439.206 278.745L447.049 279.367L453.969 276.259L452.124 274.084L459.967 275.016V270.976L468.271 273.152L478.421 269.733L486.725 271.598L488.57 274.084L489.032 273.773L492.723 274.705L491.338 277.191H495.491L497.336 275.327L500.104 276.881L500.565 275.638L502.411 275.327V274.084L505.179 273.152L507.947 274.084V275.016L510.254 274.705L512.099 271.909L514.406 274.084L516.713 272.219L515.79 270.976L517.635 269.733L518.558 271.909V265.072H523.172V255.749L532.399 251.088L523.172 245.805V237.104L529.631 236.172L529.169 231.511L537.012 229.957L540.703 227.16L538.858 223.12L541.626 221.567L546.701 223.12L551.775 219.391L550.391 216.595L553.159 213.176L557.312 212.555L559.157 211.001L557.312 210.69L555.927 209.137L557.312 207.583L559.157 205.408L557.312 203.543L559.618 202.3L555.927 201.057L555.005 199.192L557.312 197.949L552.698 197.639V195.774L551.314 194.22L553.621 193.91L550.853 192.356L551.314 190.802H553.159L555.005 188.938L556.389 186.141L552.698 183.966L554.082 180.237L550.391 176.818L550.853 173.4H555.005L558.234 170.603L554.544 169.671L550.853 167.496L549.469 165.631L554.082 163.767L551.314 162.213L552.237 159.416L550.391 157.862L556.85 154.133V151.958L554.082 150.715L555.927 149.472H559.618L561.925 147.608L560.541 145.432H565.155L564.232 143.257L567 143.879V141.082L565.155 138.596H560.541L561.464 135.799L558.234 134.245L557.312 132.691L558.696 132.381L560.541 130.827L558.234 129.895L555.927 126.166L554.082 121.504L559.618 120.883L564.232 114.668L556.85 115.6L551.314 112.182L543.932 105.034L542.548 100.373L540.242 93.5366H530.092L525.017 84.8355L534.705 80.1742L530.092 76.4452L526.862 69.2978L530.092 63.7043L526.862 60.9075L529.631 57.4892L523.172 56.557V54.3817L525.94 51.5849L524.094 48.1667L530.092 45.3699L524.094 42.8839L521.326 38.2226L523.172 34.8043L519.019 31.0753L513.022 27.9677L510.254 30.7645L509.331 26.7248L505.64 22.685L504.718 17.4021L508.408 13.6731L502.411 11.1871L500.104 4.35056L496.413 5.59357L495.491 7.76883L491.8 6.83661L490.877 3.10751L486.264 0.62149L481.65 3.10751L477.037 0.932251L476.575 2.79681H473.807L472.423 4.35056L470.116 3.10751L470.578 1.86453L469.194 0.932251H466.887L465.503 1.86453H464.119L463.196 1.24304H461.351L459.967 1.55377L459.505 2.48602L459.044 1.86453L457.66 1.55377H456.276L455.814 2.17523V1.24304H454.43L453.046 0.62149L452.124 1.24304L451.201 1.55377L449.817 1.24304L449.356 1.86453V2.17523L448.894 2.48602H447.971L447.51 3.10751L446.587 3.41827V4.03979L445.665 3.72903V3.41827H444.742L444.281 3.10751L443.819 3.72903L442.897 3.41827L442.435 4.03979L441.513 4.66129L440.59 5.28281H442.435L441.974 5.59357L440.59 6.21503L439.667 6.83661L438.283 7.14731L436.899 6.83661L435.054 7.76883L433.208 6.83661L431.363 6.21503L429.979 7.14731V6.52582L428.133 6.21503L427.672 6.83661L426.749 7.14731L425.365 6.83661L424.443 7.14731L423.981 6.52582H422.597L423.059 6.21503V5.59357L422.597 5.28281L422.136 5.59357L421.674 5.28281V4.97205H420.752V4.35056L420.29 4.66129L419.829 4.35056H418.906L416.6 4.03979H415.216L414.754 4.97205L413.832 4.66129L413.37 4.03979H411.525L410.602 3.41827L409.218 4.03979L408.295 3.72903L408.757 4.35056H407.373L406.911 4.03979L405.527 4.66129L405.066 4.35056L404.143 4.97205L403.682 4.66129L403.22 5.28281L401.375 5.59357L400.914 5.28281V4.66129L399.991 4.35056L399.068 4.97205L399.53 5.28281H398.607L398.146 4.97205L397.223 5.59357L396.3 5.28281V4.66129H395.839L396.3 4.03979V3.72903L395.378 3.10751L394.916 3.41827L391.687 4.35056L389.38 3.72903L387.535 5.59357L386.151 4.66129L382.921 4.03979L380.614 4.97205L378.769 5.28281L376.462 4.66129L376.923 3.41827L374.617 3.72903L373.233 2.48602L371.849 3.41827L370.465 2.48602L368.619 2.79681V1.55377L366.312 1.86453L365.851 2.48602H364.006L362.622 1.86453L361.238 1.24304L359.392 2.17523L358.469 1.55377H356.163L356.624 2.48602L354.779 1.86453L355.24 2.79681H353.856L352.933 3.41827V4.03979L351.549 3.72903V3.10751L350.165 3.41827L350.627 2.48602L349.242 2.79681L348.32 3.10751L347.858 2.48602L346.474 2.17523L346.936 1.55377L345.09 1.86453V1.55377L344.629 0.932251L344.168 0.62149L343.245 1.55377V0.932251H342.322H341.399L340.938 1.24304L340.015 0.932251V0.31076L339.554 0.62149L338.631 0L337.247 1.24304L338.17 1.86453L336.786 2.48602L336.325 1.86453L334.941 1.24304L332.634 1.55377L330.327 2.48602L330.788 3.41827L329.404 2.48602L328.02 3.10751L328.482 4.03979L327.386 4.97205L326.636 4.03979V3.41827H324.791L324.33 4.03979H322.945L322.311 3.41827L320.639 4.03979V5.28281L319.716 5.43817L319.255 6.21503L319.716 6.83661L318.793 7.14731V7.61343L316.487 7.45807L315.103 8.39029H313.257L311.412 7.61343V9.01181L309.566 8.39029L308.644 9.94409L307.721 9.01181H306.337L305.414 9.63333L304.03 8.70108V7.61343L301.723 8.07959L301.262 9.01181L300.339 8.70108H298.955V9.32257L297.571 9.94409L297.11 9.32257L296.187 9.01181L295.264 9.32257V8.39029H293.88L292.958 7.61343L292.035 8.07959L292.496 8.70108L291.112 8.39029L289.728 8.70108V9.32257L288.344 9.63333L287.421 9.01181V8.39029L286.96 8.07959L286.499 7.76883H285.576V8.39029L284.192 8.07959V7.14731L283.269 6.83661V6.21503H281.885L278.194 8.07959H274.042L272.658 6.83661L268.967 8.39029V9.94409L265.277 10.2548L262.509 8.70108L258.356 9.94409L257.434 9.01181L256.511 11.1871L253.743 9.63333L254.666 11.8086L250.975 11.1871L247.745 11.636L246.823 10.5656L244.055 9.94409L242.209 11.1871L240.364 9.63333L238.98 7.59619L236.212 9.01181L234.366 7.76883L232.982 6.21503H230.675L229.291 8.07959L227.446 6.83661V5.28281L224.678 6.52582L221.91 5.59357L220.526 4.35056L222.371 3.10751L218.68 3.41827L217.296 2.48602L216.373 3.41827L213.144 4.35056L211.299 3.41827L208.531 3.10751L207.608 4.03979L204.378 3.41827L202.994 4.35056L203.456 5.28281L200.688 5.59357L198.842 4.66129L196.997 5.28281L195.613 4.35056L193.767 5.59357L192.383 4.66129L191.461 6.83661L190.538 5.28281L188.231 4.97205L188.692 6.83661L186.847 7.14731L185.463 8.39029L183.618 7.14731L181.311 9.32257L180.849 8.07959L178.081 9.94409L175.313 9.63333L177.159 11.1871L173.929 10.5656L173.006 12.4301L171.161 10.5656L170.7 9.01181L167.47 10.5656L165.625 9.32257L165.164 10.5656L164.241 8.70108L160.55 7.76883L158.705 8.39029L159.166 9.94409L155.475 9.63333L153.63 8.39029L152.707 9.94409L149.939 9.01181L150.4 7.76883L146.71 7.45807L144.864 9.01181L143.48 7.76883L143.019 6.21503L140.251 7.45807L138.405 6.52582L137.021 7.76883L133.792 6.52582L135.637 4.97205L133.33 4.03979L130.562 4.66129L131.024 3.10751L128.255 3.72903L125.949 2.79681L125.026 1.86453L121.335 3.10751L118.567 1.55377H115.799L115.338 4.03979L111.647 5.28281L108.417 3.10751L104.727 5.28281L102.881 4.03979L99.6517 6.21503L95.0382 6.52582L92.2701 8.39029L89.502 6.83661L90.4247 8.39029L88.118 9.94409L86.7339 8.39029H82.5818L79.3523 9.63333L80.275 11.8086L77.5069 12.4301L75.6615 11.4978L76.1229 9.01181H73.3548L70.1253 9.94409L69.664 8.39029L70.5867 6.83661H68.2799L66.4345 7.76883L64.1277 6.83661L61.821 6.52582L59.9756 7.76883L58.1302 8.07959L56.7461 6.83661L54.9007 7.76883L54.4394 9.01181L52.1326 9.32257L51.2099 8.07959L49.8259 7.76883L48.4418 9.32257L46.5964 7.76883L44.751 8.07959L43.8283 9.01181L43.367 8.39029L42.4443 8.70108H41.0602L41.5216 9.32257L40.5989 9.94409L41.5216 10.2548L41.0602 10.8763H39.6762L38.7535 11.4978L37.8308 12.4301L36.4467 12.1194L35.9854 12.7408L35.0626 12.4301L34.14 13.0516H33.2172L32.7559 12.4301L31.3718 11.8086L30.9105 13.0516L29.9878 12.7408H29.0651L28.6037 12.1194H28.1424L28.6037 11.4978L28.1424 11.1871L27.2197 10.5656H25.8356V11.1871L23.9902 10.8763L23.0675 10.131L22.6062 11.0632H22.1448L21.4118 10.8763L20.7608 11.374L19.8381 11.9955L18.9154 11.1871L18.454 12.3063H17.07L15.6859 13.0516L15.2246 13.9839V14.6054H15.6859L14.7632 15.2269L13.8405 14.9161V15.5376L13.3792 16.1591V16.7806L12.4565 17.0914V17.7129L13.3792 18.0236H12.9178L11.9951 18.9559V19.8882L12.4565 21.1312H10.6111L11.0724 22.0634L9.68836 22.3742V22.9957L9.22701 23.3065L9.68836 24.2387L8.76566 25.171H10.1497L10.6111 26.1032L10.1497 27.0355H9.22701L10.1497 28.2785L8.76566 29.5215L10.6111 30.7645L8.30431 31.386V32.629L8.76566 34.4935H10.1497V35.7366L8.76566 37.2903L5.99756 38.5333L8.30431 40.0871V42.2624L9.22701 43.5054L8.76566 44.7484H10.1497L10.6111 45.9914L8.76566 46.3021L9.68836 47.8559L8.30431 48.1667L9.68836 48.7882L9.22701 50.3419L10.1497 51.8957L11.9951 51.5849L12.4565 52.828L11.9951 54.071H13.3792L12.9178 55.6247L14.7632 56.2462V57.4892L16.1473 58.1107V59.3538L15.2246 59.9753L15.6859 60.9075L14.7632 61.529H13.8405L14.7632 62.772L14.0712 63.7043L14.3019 64.9473L15.2246 65.5688L13.3792 65.8795L14.3019 67.1226L16.6086 67.4333L18.454 68.9871L17.9927 70.5408L16.6086 71.4731L14.3019 71.7839L15.2246 73.0269L13.1485 73.3376L12.9178 73.9591L13.3792 74.9575L11.9951 75.5129L13.3792 76.4452L12.4565 77.6882V78.9312L10.6111 79.2419H8.76566V80.485L5.99756 79.8635L6.45891 81.1064L7.84296 82.0387L6.92026 82.9063L5.53621 83.1578L6.92026 84.8355L8.76566 85.1462L9.22701 86.3892L6.92026 87.5084L8.30431 87.943V89.186L9.68836 90.3051L7.38161 89.9944L6.45891 91.5481L7.84296 92.7912L5.99756 92.1696L6.45891 94.0342L3.69081 94.6557L7.38161 96.2094L6.45891 98.6954L7.38161 99.0062L6.45891 101.803L8.30431 102.424L9.68836 102.735L9.22701 104.289L10.6111 104.911L11.5338 106.464L10.6111 107.707L8.30431 108.95L10.1497 109.572L10.6111 111.747V113.301L12.4565 114.233L10.1497 115.165L9.68836 116.408L7.38161 117.341L6.45891 119.516L6.92026 122.623L9.68836 122.934L5.53621 125.42L6.45891 127.285L8.76566 130.392L12.4565 131.635L8.76566 135.364L5.53621 134.743L10.6111 137.54V141.89L15.6859 141.269L17.5313 142.822L17.07 146.551L13.3792 147.794L9.68836 149.348L15.6859 150.591L17.07 154.009L14.3019 156.806V161.157L10.6111 162.089L13.3792 165.507L10.6111 167.372H6.45891L10.6111 171.722L11.9951 174.208L6.92026 176.694L2.30675 177.316L6.92026 180.113L7.38161 183.531L4.15216 187.571L0 186.949L4.15216 192.232L11.5338 193.475V198.758L4.15216 204.662H11.5338L15.2246 209.013L7.84296 211.188L4.15216 218.335V228.59L0 235.427Z" fill="#B84416" fill-opacity="0.28"/>
</svg>
