<svg width="1510" height="102" viewBox="0 0 1510 102" fill="none" xmlns="http://www.w3.org/2000/svg">
<path d="M1512 55.2174L1512 91.224L1502.53 94.816L1501.56 93.6886L1500.07 93.6886L1500.07 93.236L1499.32 93.236L1498.58 92.4213L1497.83 92.7834L1497.44 92.4213L1496.34 92.3308L1495.6 91.8782L1494.85 91.8782L1494.57 91.4256L1493.82 91.4256L1493.67 90.8248L1492.33 90.973L1492.33 91.4256L1491.58 91.4256L1491.1 91.5902L1490.09 92.3308L1489.35 91.8782L1488.6 92.3308L1488.14 92.4213L1484.41 91.8782L1482.92 93.6186L1479.19 94.5938L1478.43 94.5427L1478.07 94.5938L1477.68 94.9953L1476.94 94.9953L1477.13 94.7584L1476.19 94.9953L1476.19 94.7584L1475.44 95.211L1475.44 95.6636L1474.7 95.4479L1473.95 95.6636L1473.6 95.499L1473.14 95.9516L1472.46 95.9516L1471.72 95.6636L1470.97 95.6636L1470.97 95.211L1470.22 95.211L1469.9 95.499L1469.48 95.211L1468.73 94.7584L1467.99 95.211L1467.24 95.211L1467.24 95.6636L1466.5 95.6636L1465.59 96.0133L1465.03 95.9516L1464.28 95.499L1463.53 95.499L1462.79 95.499L1463.53 95.0464L1462.79 94.5938L1462.04 94.1412L1461.3 94.5938L1460.55 94.816L1459.81 94.5938L1459.81 94.1412L1458.32 94.5938L1458.14 94.0177L1457.57 94.5938L1456.11 94.816L1455.44 94.816L1454.76 95.2151L1455.44 95.6142L1454.76 95.6142L1454.08 95.2151L1454.08 95.6142L1452.73 95.2151L1452.73 96.0133L1452.05 95.6142L1452.05 95.2151L1451.37 95.2151L1451.37 95.6142L1450.7 95.2151L1450.7 95.6142L1450.02 96.0133L1449.34 95.6142L1448.67 95.6142L1448.67 95.2151L1447.99 94.816L1447.31 94.4169L1446.63 94.816L1446.63 94.4169L1445.96 94.4169L1445.28 94.0177L1445.96 93.6186L1445.28 93.6186L1444.6 94.4169L1443.93 94.4169L1444.6 94.816L1443.93 94.816L1443.25 94.816L1441.9 95.2151L1439.86 93.2195L1435.8 92.4213L1435.12 93.2195L1433.77 92.8204L1433.77 93.6186L1433.09 93.2195L1432.42 93.2195L1431.74 93.6186L1430.38 93.2195L1429.71 92.8204L1427.68 93.2195L1425.65 92.4213L1424.29 93.6186L1423.61 92.4213L1421.58 92.4213L1420.23 91.224L1418.87 92.0222L1418.2 92.8204L1416.84 92.8204L1415.49 93.6186L1410.75 94.0177L1409.4 96.4124L1406.01 98.0089L1403.98 98.0089L1401.95 97.2106L1399.24 98.0089L1396.53 98.0089L1393.82 99.2062L1391.11 99.2062L1389.08 100.004L1387.05 102L1382.99 96.0133L1372.83 96.0133L1362 91.2239L1362 -1.31134e-05L1512 0L1512 55.2174Z" fill="#F4F4F4"/>
<path d="M1362 55.2174L1362 91.224L1352.53 94.816L1351.56 93.6886L1350.07 93.6886L1350.07 93.236L1349.32 93.236L1348.58 92.4213L1347.83 92.7834L1347.44 92.4213L1346.34 92.3308L1345.6 91.8782L1344.85 91.8782L1344.57 91.4256L1343.82 91.4256L1343.67 90.8248L1342.33 90.973L1342.33 91.4256L1341.58 91.4256L1341.1 91.5902L1340.09 92.3308L1339.35 91.8782L1338.6 92.3308L1338.14 92.4213L1334.41 91.8782L1332.92 93.6186L1329.19 94.5938L1328.43 94.5427L1328.07 94.5938L1327.68 94.9953L1326.94 94.9953L1327.13 94.7584L1326.19 94.9953L1326.19 94.7584L1325.44 95.211L1325.44 95.6636L1324.7 95.4479L1323.95 95.6636L1323.6 95.499L1323.14 95.9516L1322.46 95.9516L1321.72 95.6636L1320.97 95.6636L1320.97 95.211L1320.22 95.211L1319.9 95.499L1319.48 95.211L1318.73 94.7584L1317.99 95.211L1317.24 95.211L1317.24 95.6636L1316.5 95.6636L1315.59 96.0133L1315.03 95.9516L1314.28 95.499L1313.53 95.499L1312.79 95.499L1313.53 95.0464L1312.79 94.5938L1312.04 94.1412L1311.3 94.5938L1310.55 94.816L1309.81 94.5938L1309.81 94.1412L1308.32 94.5938L1308.14 94.0177L1307.57 94.5938L1306.11 94.816L1305.44 94.816L1304.76 95.2151L1305.44 95.6142L1304.76 95.6142L1304.08 95.2151L1304.08 95.6142L1302.73 95.2151L1302.73 96.0133L1302.05 95.6142L1302.05 95.2151L1301.37 95.2151L1301.37 95.6142L1300.7 95.2151L1300.7 95.6142L1300.02 96.0133L1299.34 95.6142L1298.67 95.6142L1298.67 95.2151L1297.99 94.816L1297.31 94.4169L1296.63 94.816L1296.63 94.4169L1295.96 94.4169L1295.28 94.0177L1295.96 93.6186L1295.28 93.6186L1294.6 94.4169L1293.93 94.4169L1294.6 94.816L1293.93 94.816L1293.25 94.816L1291.9 95.2151L1289.86 93.2195L1285.8 92.4213L1285.12 93.2195L1283.77 92.8204L1283.77 93.6186L1283.09 93.2195L1282.42 93.2195L1281.74 93.6186L1280.38 93.2195L1279.71 92.8204L1277.68 93.2195L1275.65 92.4213L1274.29 93.6186L1273.61 92.4213L1271.58 92.4213L1270.23 91.224L1268.87 92.0222L1268.2 92.8204L1266.84 92.8204L1265.49 93.6186L1260.75 94.0177L1259.4 96.4124L1256.01 98.0089L1253.98 98.0089L1251.95 97.2106L1249.24 98.0089L1246.53 98.0089L1243.82 99.2062L1241.11 99.2062L1239.08 100.004L1237.05 102L1232.99 96.0133L1222.83 96.0133L1212 91.2239L1212 -1.31134e-05L1362 0L1362 55.2174Z" fill="#F4F4F4"/>
<path d="M1212 55.2174L1212 91.224L1202.53 94.816L1201.56 93.6886L1200.07 93.6886L1200.07 93.236L1199.32 93.236L1198.58 92.4213L1197.83 92.7834L1197.44 92.4213L1196.34 92.3308L1195.6 91.8782L1194.85 91.8782L1194.57 91.4256L1193.82 91.4256L1193.67 90.8248L1192.33 90.973L1192.33 91.4256L1191.58 91.4256L1191.1 91.5902L1190.09 92.3308L1189.35 91.8782L1188.6 92.3308L1188.14 92.4213L1184.41 91.8782L1182.92 93.6186L1179.19 94.5938L1178.43 94.5427L1178.07 94.5938L1177.68 94.9953L1176.94 94.9953L1177.13 94.7584L1176.19 94.9953L1176.19 94.7584L1175.44 95.211L1175.44 95.6636L1174.7 95.4479L1173.95 95.6636L1173.6 95.499L1173.14 95.9516L1172.46 95.9516L1171.72 95.6636L1170.97 95.6636L1170.97 95.211L1170.22 95.211L1169.9 95.499L1169.48 95.211L1168.73 94.7584L1167.99 95.211L1167.24 95.211L1167.24 95.6636L1166.5 95.6636L1165.59 96.0133L1165.03 95.9516L1164.28 95.499L1163.53 95.499L1162.79 95.499L1163.53 95.0464L1162.79 94.5938L1162.04 94.1412L1161.3 94.5938L1160.55 94.816L1159.81 94.5938L1159.81 94.1412L1158.32 94.5938L1158.14 94.0177L1157.57 94.5938L1156.11 94.816L1155.44 94.816L1154.76 95.2151L1155.44 95.6142L1154.76 95.6142L1154.08 95.2151L1154.08 95.6142L1152.73 95.2151L1152.73 96.0133L1152.05 95.6142L1152.05 95.2151L1151.37 95.2151L1151.37 95.6142L1150.7 95.2151L1150.7 95.6142L1150.02 96.0133L1149.34 95.6142L1148.67 95.6142L1148.67 95.2151L1147.99 94.816L1147.31 94.4169L1146.63 94.816L1146.63 94.4169L1145.96 94.4169L1145.28 94.0177L1145.96 93.6186L1145.28 93.6186L1144.6 94.4169L1143.93 94.4169L1144.6 94.816L1143.93 94.816L1143.25 94.816L1141.9 95.2151L1139.86 93.2195L1135.8 92.4213L1135.12 93.2195L1133.77 92.8204L1133.77 93.6186L1133.09 93.2195L1132.42 93.2195L1131.74 93.6186L1130.38 93.2195L1129.71 92.8204L1127.68 93.2195L1125.65 92.4213L1124.29 93.6186L1123.61 92.4213L1121.58 92.4213L1120.23 91.224L1118.87 92.0222L1118.2 92.8204L1116.84 92.8204L1115.49 93.6186L1110.75 94.0177L1109.4 96.4124L1106.01 98.0089L1103.98 98.0089L1101.95 97.2106L1099.24 98.0089L1096.53 98.0089L1093.82 99.2062L1091.11 99.2062L1089.08 100.004L1087.05 102L1082.99 96.0133L1072.83 96.0133L1062 91.2239L1062 -1.31134e-05L1212 0L1212 55.2174Z" fill="#F4F4F4"/>
<path d="M912 55.2174L912 91.224L921.47 94.816L922.439 93.6886L923.93 93.6886L923.93 93.236L924.675 93.236L925.421 92.4213L926.167 92.7834L926.561 92.4213L927.658 92.3308L928.404 91.8782L929.149 91.8782L929.434 91.4256L930.18 91.4256L930.334 90.8249L931.671 90.973L931.671 91.4256L932.416 91.4256L932.898 91.5902L933.908 92.3308L934.653 91.8782L935.399 92.3308L935.86 92.4213L939.588 91.8782L941.079 93.6186L944.807 94.5938L945.574 94.5427L945.929 94.5938L946.319 94.9953L947.065 94.9953L946.871 94.7584L947.811 94.9953L947.811 94.7584L948.556 95.211L948.556 95.6636L949.302 95.4479L950.047 95.6636L950.401 95.499L950.864 95.9516L951.539 95.9516L952.284 95.6636L953.03 95.6636L953.03 95.211L953.776 95.211L954.099 95.499L954.521 95.211L955.267 94.7584L956.012 95.211L956.758 95.211L956.758 95.6636L957.504 95.6636L958.407 96.0133L958.974 95.9516L959.719 95.499L960.465 95.499L961.211 95.499L960.465 95.0464L961.211 94.5938L961.956 94.1412L962.702 94.5938L963.447 94.816L964.193 94.5938L964.193 94.1412L965.684 94.5938L965.855 94.0178L966.43 94.5938L967.886 94.816L968.563 94.816L969.241 95.2151L968.563 95.6142L969.241 95.6142L969.918 95.2151L969.918 95.6142L971.272 95.2151L971.272 96.0133L971.949 95.6142L971.949 95.2151L972.626 95.2151L972.626 95.6142L973.303 95.2151L973.303 95.6142L973.98 96.0133L974.657 95.6142L975.334 95.6142L975.334 95.2151L976.011 94.816L976.688 94.4169L977.366 94.816L977.366 94.4169L978.043 94.4169L978.72 94.0178L978.043 93.6186L978.72 93.6186L979.397 94.4169L980.074 94.4169L979.397 94.816L980.074 94.816L980.751 94.816L982.105 95.2151L984.136 93.2195L988.199 92.4213L988.876 93.2195L990.23 92.8204L990.23 93.6186L990.907 93.2195L991.584 93.2195L992.261 93.6186L993.615 93.2195L994.292 92.8204L996.324 93.2195L998.355 92.4213L999.709 93.6186L1000.39 92.4213L1002.42 92.4213L1003.77 91.224L1005.13 92.0222L1005.8 92.8204L1007.16 92.8204L1008.51 93.6186L1013.25 94.0178L1014.6 96.4124L1017.99 98.0089L1020.02 98.0089L1022.05 97.2107L1024.76 98.0089L1027.47 98.0089L1030.18 99.2062L1032.89 99.2062L1034.92 100.004L1036.95 102L1041.01 96.0133L1051.17 96.0133L1062 91.224L1062 1.31134e-05L912 0L912 55.2174Z" fill="#F4F4F4"/>
<path d="M912 55.2174L912 91.224L895.206 94.816L893.489 93.6886L890.844 93.6886L890.844 93.236L889.522 93.236L888.2 92.4213L886.878 92.7834L886.179 92.4213L884.233 92.3308L882.911 91.8782L881.589 91.8782L881.084 91.4256L879.762 91.4256L879.488 90.8248L877.117 90.973L877.117 91.4256L875.795 91.4256L874.94 91.5902L873.15 92.3308L871.828 91.8782L870.506 92.3308L869.689 92.4213L863.078 91.8782L860.433 93.6186L853.822 94.5938L852.463 94.5427L851.833 94.5938L851.14 94.9953L849.818 94.9953L850.163 94.7584L848.496 94.9953L848.496 94.7584L847.174 95.211L847.174 95.6636L845.851 95.4479L844.529 95.6636L843.903 95.499L843.081 95.9516L841.885 95.9516L840.563 95.6636L839.24 95.6636L839.24 95.211L837.918 95.211L837.344 95.499L836.596 95.211L835.274 94.7584L833.951 95.211L832.629 95.211L832.629 95.6636L831.307 95.6636L829.704 96.0133L828.7 95.9516L827.378 95.499L826.055 95.499L824.733 95.499L826.055 95.0464L824.733 94.5938L823.411 94.1412L822.089 94.5938L820.766 94.816L819.444 94.5938L819.444 94.1412L816.8 94.5938L816.497 94.0177L815.478 94.5938L812.895 94.816L811.694 94.816L810.493 95.2151L811.694 95.6142L810.493 95.6142L809.293 95.2151L809.293 95.6142L806.891 95.2151L806.891 96.0133L805.691 95.6142L805.691 95.2151L804.49 95.2151L804.49 95.6142L803.289 95.2151L803.289 95.6142L802.089 96.0133L800.888 95.6142L799.687 95.6142L799.687 95.2151L798.487 94.816L797.286 94.4169L796.085 94.816L796.085 94.4169L794.884 94.4169L793.684 94.0177L794.884 93.6186L793.684 93.6186L792.483 94.4169L791.283 94.4169L792.483 94.816L791.283 94.816L790.082 94.816L787.68 95.2151L784.078 93.2195L776.874 92.4213L775.674 93.2195L773.272 92.8204L773.272 93.6186L772.072 93.2195L770.871 93.2195L769.67 93.6186L767.269 93.2195L766.068 92.8204L762.466 93.2195L758.864 92.4213L756.463 93.6186L755.262 92.4213L751.66 92.4213L749.259 91.2239L746.857 92.0222L745.657 92.8204L743.255 92.8204L740.854 93.6186L732.449 94.0177L730.048 96.4124L724.044 98.0089L720.442 98.0089L716.84 97.2106L712.038 98.0089L707.235 98.0089L702.432 99.2062L697.629 99.2062L694.027 100.004L690.425 102L683.221 96.0133L665.211 96.0133L646 91.2239L646 -2.32545e-05L912 0L912 55.2174Z" fill="#F4F4F4"/>
<path d="M646 55.2174L646 91.224L637.54 94.816L636.675 93.6886L635.343 93.6886L635.343 93.236L634.677 93.236L634.011 92.4213L633.344 92.7834L632.992 92.4213L632.012 92.3308L631.346 91.8782L630.68 91.8782L630.426 91.4256L629.76 91.4256L629.622 90.8248L628.427 90.973L628.427 91.4256L627.761 91.4256L627.331 91.5902L626.429 92.3308L625.763 91.8782L625.097 92.3308L624.685 92.4213L621.355 91.8782L620.023 93.6186L616.692 94.5938L616.007 94.5427L615.69 94.5938L615.341 94.9953L614.675 94.9953L614.849 94.7584L614.009 94.9953L614.009 94.7584L613.343 95.211L613.343 95.6636L612.677 95.4479L612.011 95.6636L611.695 95.499L611.281 95.9516L610.679 95.9516L610.013 95.6636L609.347 95.6636L609.347 95.211L608.681 95.211L608.391 95.499L608.014 95.211L607.348 94.7584L606.682 95.211L606.016 95.211L606.016 95.6636L605.35 95.6636L604.543 96.0133L604.037 95.9516L603.371 95.499L602.705 95.499L602.038 95.499L602.705 95.0464L602.038 94.5938L601.372 94.1412L600.706 94.5938L600.04 94.816L599.374 94.5938L599.374 94.1412L598.042 94.5938L597.889 94.0177L597.376 94.5938L596.075 94.816L595.47 94.816L594.865 95.2151L595.47 95.6142L594.865 95.6142L594.26 95.2151L594.26 95.6142L593.051 95.2151L593.051 96.0133L592.446 95.6142L592.446 95.2151L591.841 95.2151L591.841 95.6142L591.236 95.2151L591.236 95.6142L590.631 96.0133L590.026 95.6142L589.421 95.6142L589.421 95.2151L588.817 94.816L588.212 94.4169L587.607 94.816L587.607 94.4169L587.002 94.4169L586.397 94.0177L587.002 93.6186L586.397 93.6186L585.792 94.4169L585.187 94.4169L585.792 94.816L585.187 94.816L584.583 94.816L583.373 95.2151L581.558 93.2195L577.929 92.4213L577.324 93.2195L576.115 92.8204L576.115 93.6186L575.51 93.2195L574.905 93.2195L574.3 93.6186L573.09 93.2195L572.485 92.8204L570.671 93.2195L568.856 92.4213L567.647 93.6186L567.042 92.4213L565.227 92.4213L564.018 91.224L562.808 92.0222L562.203 92.8204L560.993 92.8204L559.784 93.6186L555.55 94.0177L554.34 96.4124L551.316 98.0089L549.501 98.0089L547.686 97.2106L545.267 98.0089L542.848 98.0089L540.428 99.2062L538.009 99.2062L536.194 100.004L534.38 102L530.751 96.0133L521.678 96.0133L512 91.224L512 -1.17147e-05L646 0L646 55.2174Z" fill="#F4F4F4"/>
<path d="M512 55.2174L512 91.224L502.53 94.816L501.561 93.6886L500.07 93.6886L500.07 93.236L499.325 93.236L498.579 92.4213L497.833 92.7834L497.439 92.4213L496.342 92.3308L495.596 91.8782L494.851 91.8782L494.566 91.4256L493.82 91.4256L493.666 90.8248L492.329 90.973L492.329 91.4256L491.584 91.4256L491.102 91.5902L490.092 92.3308L489.347 91.8782L488.601 92.3308L488.14 92.4213L484.412 91.8782L482.921 93.6186L479.193 94.5938L478.426 94.5427L478.071 94.5938L477.681 94.9953L476.935 94.9953L477.129 94.7584L476.189 94.9953L476.189 94.7584L475.444 95.211L475.444 95.6636L474.698 95.4479L473.953 95.6636L473.599 95.499L473.136 95.9516L472.461 95.9516L471.716 95.6636L470.97 95.6636L470.97 95.211L470.224 95.211L469.901 95.499L469.479 95.211L468.733 94.7584L467.988 95.211L467.242 95.211L467.242 95.6636L466.496 95.6636L465.593 96.0133L465.026 95.9516L464.281 95.499L463.535 95.499L462.789 95.499L463.535 95.0464L462.789 94.5938L462.044 94.1412L461.298 94.5938L460.553 94.816L459.807 94.5938L459.807 94.1412L458.316 94.5938L458.145 94.0177L457.57 94.5938L456.114 94.816L455.437 94.816L454.759 95.2151L455.437 95.6142L454.759 95.6142L454.082 95.2151L454.082 95.6142L452.728 95.2151L452.728 96.0133L452.051 95.6142L452.051 95.2151L451.374 95.2151L451.374 95.6142L450.697 95.2151L450.697 95.6142L450.02 96.0133L449.343 95.6142L448.666 95.6142L448.666 95.2151L447.989 94.816L447.312 94.4169L446.634 94.816L446.634 94.4169L445.957 94.4169L445.28 94.0177L445.957 93.6186L445.28 93.6186L444.603 94.4169L443.926 94.4169L444.603 94.816L443.926 94.816L443.249 94.816L441.895 95.2151L439.864 93.2195L435.801 92.4213L435.124 93.2195L433.77 92.8204L433.77 93.6186L433.093 93.2195L432.416 93.2195L431.739 93.6186L430.385 93.2195L429.708 92.8204L427.676 93.2195L425.645 92.4213L424.291 93.6186L423.614 92.4213L421.583 92.4213L420.229 91.224L418.874 92.0222L418.197 92.8204L416.843 92.8204L415.489 93.6186L410.75 94.0177L409.395 96.4124L406.01 98.0089L403.979 98.0089L401.948 97.2106L399.239 98.0089L396.531 98.0089L393.823 99.2062L391.114 99.2062L389.083 100.004L387.052 102L382.989 96.0133L372.833 96.0133L362 91.2239L362 -1.31134e-05L512 0L512 55.2174Z" fill="#F4F4F4"/>
<path d="M362 55.2174L362 91.224L352.53 94.816L351.561 93.6886L350.07 93.6886L350.07 93.236L349.325 93.236L348.579 92.4213L347.833 92.7834L347.439 92.4213L346.342 92.3308L345.596 91.8782L344.851 91.8782L344.566 91.4256L343.82 91.4256L343.666 90.8248L342.329 90.973L342.329 91.4256L341.584 91.4256L341.102 91.5902L340.092 92.3308L339.347 91.8782L338.601 92.3308L338.14 92.4213L334.412 91.8782L332.921 93.6186L329.193 94.5938L328.426 94.5427L328.071 94.5938L327.681 94.9953L326.935 94.9953L327.129 94.7584L326.189 94.9953L326.189 94.7584L325.444 95.211L325.444 95.6636L324.698 95.4479L323.953 95.6636L323.599 95.499L323.136 95.9516L322.461 95.9516L321.716 95.6636L320.97 95.6636L320.97 95.211L320.224 95.211L319.901 95.499L319.479 95.211L318.733 94.7584L317.988 95.211L317.242 95.211L317.242 95.6636L316.496 95.6636L315.593 96.0133L315.026 95.9516L314.281 95.499L313.535 95.499L312.789 95.499L313.535 95.0464L312.789 94.5938L312.044 94.1412L311.298 94.5938L310.553 94.816L309.807 94.5938L309.807 94.1412L308.316 94.5938L308.145 94.0177L307.57 94.5938L306.114 94.816L305.437 94.816L304.759 95.2151L305.437 95.6142L304.759 95.6142L304.082 95.2151L304.082 95.6142L302.728 95.2151L302.728 96.0133L302.051 95.6142L302.051 95.2151L301.374 95.2151L301.374 95.6142L300.697 95.2151L300.697 95.6142L300.02 96.0133L299.343 95.6142L298.666 95.6142L298.666 95.2151L297.989 94.816L297.312 94.4169L296.634 94.816L296.634 94.4169L295.957 94.4169L295.28 94.0177L295.957 93.6186L295.28 93.6186L294.603 94.4169L293.926 94.4169L294.603 94.816L293.926 94.816L293.249 94.816L291.895 95.2151L289.864 93.2195L285.801 92.4213L285.124 93.2195L283.77 92.8204L283.77 93.6186L283.093 93.2195L282.416 93.2195L281.739 93.6186L280.385 93.2195L279.708 92.8204L277.676 93.2195L275.645 92.4213L274.291 93.6186L273.614 92.4213L271.583 92.4213L270.229 91.224L268.874 92.0222L268.197 92.8204L266.843 92.8204L265.489 93.6186L260.75 94.0177L259.395 96.4124L256.01 98.0089L253.979 98.0089L251.948 97.2106L249.239 98.0089L246.531 98.0089L243.823 99.2062L241.114 99.2062L239.083 100.004L237.052 102L232.989 96.0133L222.833 96.0133L212 91.2239L212 -1.31134e-05L362 0L362 55.2174Z" fill="#F4F4F4"/>
<path d="M212 55.2174L212 91.224L198.616 94.816L197.247 93.6886L195.139 93.6886L195.139 93.236L194.085 93.236L193.032 92.4213L191.978 92.7834L191.421 92.4213L189.87 92.3308L188.816 91.8782L187.763 91.8782L187.36 91.4256L186.306 91.4256L186.088 90.8248L184.199 90.973L184.199 91.4256L183.145 91.4256L182.464 91.5902L181.037 92.3308L179.983 91.8782L178.93 92.3308L178.278 92.4213L173.009 91.8782L170.902 93.6186L165.633 94.5938L164.549 94.5427L164.047 94.5938L163.495 94.9953L162.442 94.9953L162.716 94.7584L161.388 94.9953L161.388 94.7584L160.334 95.211L160.334 95.6636L159.28 95.4479L158.226 95.6636L157.727 95.499L157.072 95.9516L156.119 95.9516L155.065 95.6636L154.011 95.6636L154.011 95.211L152.957 95.211L152.499 95.499L151.903 95.211L150.85 94.7584L149.796 95.211L148.742 95.211L148.742 95.6636L147.688 95.6636L146.411 96.0133L145.61 95.9516L144.557 95.499L143.503 95.499L142.449 95.499L143.503 95.0464L142.449 94.5938L141.395 94.1412L140.341 94.5938L139.288 94.816L138.234 94.5938L138.234 94.1412L136.126 94.5938L135.885 94.0177L135.072 94.5938L133.014 94.816L132.057 94.816L131.1 95.2151L132.057 95.6142L131.1 95.6142L130.143 95.2151L130.143 95.6142L128.229 95.2151L128.229 96.0133L127.272 95.6142L127.272 95.2151L126.315 95.2151L126.315 95.6142L125.358 95.2151L125.358 95.6142L124.401 96.0133L123.444 95.6142L122.488 95.6142L122.488 95.2151L121.531 94.816L120.574 94.4169L119.617 94.816L119.617 94.4169L118.66 94.4169L117.703 94.0177L118.66 93.6186L117.703 93.6186L116.746 94.4169L115.789 94.4169L116.746 94.816L115.789 94.816L114.832 94.816L112.918 95.2151L110.047 93.2195L104.306 92.4213L103.349 93.2195L101.435 92.8204L101.435 93.6186L100.478 93.2195L99.5211 93.2195L98.5642 93.6186L96.6503 93.2195L95.6934 92.8204L92.8227 93.2195L89.9519 92.4213L88.038 93.6186L87.0811 92.4213L84.2103 92.4213L82.2964 91.224L80.3825 92.0222L79.4256 92.8204L77.5117 92.8204L75.5978 93.6186L68.8994 94.0177L66.9855 96.4124L62.2008 98.0089L59.33 98.0089L56.4592 97.2106L52.6314 98.0089L48.8036 98.0089L44.976 99.2062L41.1483 99.2062L38.2774 100.004L35.4066 102L29.665 96.0133L15.311 96.0133L1.62009e-05 91.2239L2.41759e-05 -1.85336e-05L212 0L212 55.2174Z" fill="#F4F4F4"/>
</svg>
