<svg width="1512" height="121" viewBox="0 0 1512 121" fill="none" xmlns="http://www.w3.org/2000/svg">
<path d="M1512 55.497L1512 12.7834L1502.53 8.52224L1501.56 9.85964L1500.07 9.85964L1500.07 10.3965L1499.32 10.3965L1498.58 11.363L1497.83 10.9335L1497.44 11.363L1496.34 11.4704L1495.6 12.0073L1494.85 12.0073L1494.57 12.5442L1493.82 12.5442L1493.67 13.2568L1492.33 13.0811L1492.33 12.5442L1491.58 12.5442L1491.1 12.3489L1490.09 11.4704L1489.35 12.0073L1488.6 11.4704L1488.14 11.363L1484.41 12.0073L1482.92 9.94261L1479.19 8.78581L1478.43 8.84644L1478.07 8.78581L1477.68 8.30953L1476.94 8.30953L1477.13 8.59057L1476.19 8.30953L1476.19 8.59057L1475.44 8.05366L1475.44 7.51675L1474.7 7.77262L1473.95 7.51675L1473.6 7.71199L1473.14 7.17507L1472.46 7.17507L1471.72 7.51675L1470.97 7.51675L1470.97 8.05366L1470.22 8.05366L1469.9 7.71199L1469.48 8.05366L1468.73 8.59057L1467.99 8.05366L1467.24 8.05366L1467.24 7.51675L1466.5 7.51675L1465.59 7.10186L1465.03 7.17507L1464.28 7.71199L1463.53 7.71199L1462.79 7.71199L1463.53 8.2489L1462.79 8.78581L1462.04 9.32272L1461.3 8.78581L1460.55 8.52223L1459.81 8.78581L1459.81 9.32272L1458.32 8.78581L1458.14 9.46915L1457.57 8.78581L1456.11 8.52223L1455.44 8.52223L1454.76 8.04877L1455.44 7.57532L1454.76 7.57532L1454.08 8.04877L1454.08 7.57532L1452.73 8.04877L1452.73 7.10186L1452.05 7.57532L1452.05 8.04877L1451.37 8.04877L1451.37 7.57531L1450.7 8.04877L1450.7 7.57531L1450.02 7.10186L1449.34 7.57531L1448.67 7.57531L1448.67 8.04877L1447.99 8.52223L1447.31 8.99569L1446.63 8.52223L1446.63 8.99569L1445.96 8.99569L1445.28 9.46915L1445.96 9.9426L1445.28 9.9426L1444.6 8.99569L1443.93 8.99569L1444.6 8.52223L1443.93 8.52223L1443.25 8.52223L1441.9 8.04877L1439.86 10.4161L1435.8 11.363L1435.12 10.4161L1433.77 10.8895L1433.77 9.9426L1433.09 10.4161L1432.42 10.4161L1431.74 9.9426L1430.38 10.4161L1429.71 10.8895L1427.68 10.4161L1425.65 11.363L1424.29 9.9426L1423.61 11.363L1421.58 11.363L1420.23 12.7833L1418.87 11.8364L1418.2 10.8895L1416.84 10.8895L1415.49 9.9426L1410.75 9.46914L1409.4 6.6284L1406.01 4.73457L1403.98 4.73457L1401.95 5.68148L1399.24 4.73456L1396.53 4.73456L1393.82 3.31419L1391.11 3.31419L1389.08 2.36728L1387.05 -1.09233e-05L1382.99 7.10185L1372.83 7.10185L1362 12.7833L1362 121L1512 121L1512 55.497Z" fill="#F4F4F4"/>
<path d="M1362 55.497L1362 12.7834L1352.53 8.52224L1351.56 9.85964L1350.07 9.85964L1350.07 10.3965L1349.32 10.3965L1348.58 11.363L1347.83 10.9335L1347.44 11.363L1346.34 11.4704L1345.6 12.0073L1344.85 12.0073L1344.57 12.5442L1343.82 12.5442L1343.67 13.2568L1342.33 13.0811L1342.33 12.5442L1341.58 12.5442L1341.1 12.3489L1340.09 11.4704L1339.35 12.0073L1338.6 11.4704L1338.14 11.363L1334.41 12.0073L1332.92 9.94261L1329.19 8.78581L1328.43 8.84644L1328.07 8.78581L1327.68 8.30953L1326.94 8.30953L1327.13 8.59057L1326.19 8.30953L1326.19 8.59057L1325.44 8.05366L1325.44 7.51675L1324.7 7.77262L1323.95 7.51675L1323.6 7.71199L1323.14 7.17507L1322.46 7.17507L1321.72 7.51675L1320.97 7.51675L1320.97 8.05366L1320.22 8.05366L1319.9 7.71199L1319.48 8.05366L1318.73 8.59057L1317.99 8.05366L1317.24 8.05366L1317.24 7.51675L1316.5 7.51675L1315.59 7.10186L1315.03 7.17507L1314.28 7.71199L1313.53 7.71199L1312.79 7.71199L1313.53 8.2489L1312.79 8.78581L1312.04 9.32272L1311.3 8.78581L1310.55 8.52223L1309.81 8.78581L1309.81 9.32272L1308.32 8.78581L1308.14 9.46915L1307.57 8.78581L1306.11 8.52223L1305.44 8.52223L1304.76 8.04877L1305.44 7.57532L1304.76 7.57532L1304.08 8.04877L1304.08 7.57532L1302.73 8.04877L1302.73 7.10186L1302.05 7.57532L1302.05 8.04877L1301.37 8.04877L1301.37 7.57531L1300.7 8.04877L1300.7 7.57531L1300.02 7.10186L1299.34 7.57531L1298.67 7.57531L1298.67 8.04877L1297.99 8.52223L1297.31 8.99569L1296.63 8.52223L1296.63 8.99569L1295.96 8.99569L1295.28 9.46915L1295.96 9.9426L1295.28 9.9426L1294.6 8.99569L1293.93 8.99569L1294.6 8.52223L1293.93 8.52223L1293.25 8.52223L1291.9 8.04877L1289.86 10.4161L1285.8 11.363L1285.12 10.4161L1283.77 10.8895L1283.77 9.9426L1283.09 10.4161L1282.42 10.4161L1281.74 9.9426L1280.38 10.4161L1279.71 10.8895L1277.68 10.4161L1275.65 11.363L1274.29 9.9426L1273.61 11.363L1271.58 11.363L1270.23 12.7833L1268.87 11.8364L1268.2 10.8895L1266.84 10.8895L1265.49 9.9426L1260.75 9.46914L1259.4 6.6284L1256.01 4.73457L1253.98 4.73457L1251.95 5.68148L1249.24 4.73456L1246.53 4.73456L1243.82 3.31419L1241.11 3.31419L1239.08 2.36728L1237.05 -1.09233e-05L1232.99 7.10185L1222.83 7.10185L1212 12.7833L1212 121L1362 121L1362 55.497Z" fill="#F4F4F4"/>
<path d="M1212 55.497L1212 12.7834L1202.53 8.52224L1201.56 9.85964L1200.07 9.85964L1200.07 10.3965L1199.32 10.3965L1198.58 11.363L1197.83 10.9335L1197.44 11.363L1196.34 11.4704L1195.6 12.0073L1194.85 12.0073L1194.57 12.5442L1193.82 12.5442L1193.67 13.2568L1192.33 13.0811L1192.33 12.5442L1191.58 12.5442L1191.1 12.3489L1190.09 11.4704L1189.35 12.0073L1188.6 11.4704L1188.14 11.363L1184.41 12.0073L1182.92 9.94261L1179.19 8.78581L1178.43 8.84644L1178.07 8.78581L1177.68 8.30953L1176.94 8.30953L1177.13 8.59057L1176.19 8.30953L1176.19 8.59057L1175.44 8.05366L1175.44 7.51675L1174.7 7.77262L1173.95 7.51675L1173.6 7.71199L1173.14 7.17507L1172.46 7.17507L1171.72 7.51675L1170.97 7.51675L1170.97 8.05366L1170.22 8.05366L1169.9 7.71199L1169.48 8.05366L1168.73 8.59057L1167.99 8.05366L1167.24 8.05366L1167.24 7.51675L1166.5 7.51675L1165.59 7.10186L1165.03 7.17507L1164.28 7.71199L1163.53 7.71199L1162.79 7.71199L1163.53 8.2489L1162.79 8.78581L1162.04 9.32272L1161.3 8.78581L1160.55 8.52223L1159.81 8.78581L1159.81 9.32272L1158.32 8.78581L1158.14 9.46915L1157.57 8.78581L1156.11 8.52223L1155.44 8.52223L1154.76 8.04877L1155.44 7.57532L1154.76 7.57532L1154.08 8.04877L1154.08 7.57532L1152.73 8.04877L1152.73 7.10186L1152.05 7.57532L1152.05 8.04877L1151.37 8.04877L1151.37 7.57531L1150.7 8.04877L1150.7 7.57531L1150.02 7.10186L1149.34 7.57531L1148.67 7.57531L1148.67 8.04877L1147.99 8.52223L1147.31 8.99569L1146.63 8.52223L1146.63 8.99569L1145.96 8.99569L1145.28 9.46915L1145.96 9.9426L1145.28 9.9426L1144.6 8.99569L1143.93 8.99569L1144.6 8.52223L1143.93 8.52223L1143.25 8.52223L1141.9 8.04877L1139.86 10.4161L1135.8 11.363L1135.12 10.4161L1133.77 10.8895L1133.77 9.9426L1133.09 10.4161L1132.42 10.4161L1131.74 9.9426L1130.38 10.4161L1129.71 10.8895L1127.68 10.4161L1125.65 11.363L1124.29 9.9426L1123.61 11.363L1121.58 11.363L1120.23 12.7833L1118.87 11.8364L1118.2 10.8895L1116.84 10.8895L1115.49 9.9426L1110.75 9.46914L1109.4 6.6284L1106.01 4.73457L1103.98 4.73457L1101.95 5.68148L1099.24 4.73456L1096.53 4.73456L1093.82 3.31419L1091.11 3.31419L1089.08 2.36728L1087.05 -1.09233e-05L1082.99 7.10185L1072.83 7.10185L1062 12.7833L1062 121L1212 121L1212 55.497Z" fill="#F4F4F4"/>
<path d="M912 55.497L912 12.7834L921.47 8.52224L922.439 9.85964L923.93 9.85964L923.93 10.3965L924.675 10.3965L925.421 11.363L926.167 10.9335L926.561 11.363L927.658 11.4704L928.404 12.0073L929.149 12.0073L929.434 12.5442L930.18 12.5442L930.334 13.2568L931.671 13.0811L931.671 12.5442L932.416 12.5442L932.898 12.3489L933.908 11.4704L934.653 12.0073L935.399 11.4704L935.86 11.363L939.588 12.0073L941.079 9.94261L944.807 8.78581L945.574 8.84645L945.929 8.78581L946.319 8.30953L947.065 8.30953L946.871 8.59057L947.811 8.30953L947.811 8.59057L948.556 8.05366L948.556 7.51675L949.302 7.77262L950.047 7.51675L950.401 7.71199L950.864 7.17508L951.539 7.17508L952.284 7.51675L953.03 7.51675L953.03 8.05366L953.776 8.05366L954.099 7.71199L954.521 8.05366L955.267 8.59057L956.012 8.05366L956.758 8.05366L956.758 7.51675L957.504 7.51675L958.407 7.10187L958.974 7.17508L959.719 7.71199L960.465 7.71199L961.211 7.71199L960.465 8.2489L961.211 8.78581L961.956 9.32273L962.702 8.78581L963.447 8.52224L964.193 8.78582L964.193 9.32273L965.684 8.78582L965.855 9.46916L966.43 8.78582L967.886 8.52224L968.563 8.52224L969.241 8.04878L968.563 7.57533L969.241 7.57533L969.918 8.04878L969.918 7.57533L971.272 8.04878L971.272 7.10187L971.949 7.57533L971.949 8.04878L972.626 8.04878L972.626 7.57533L973.303 8.04878L973.303 7.57533L973.98 7.10187L974.657 7.57533L975.334 7.57533L975.334 8.04879L976.011 8.52224L976.688 8.9957L977.366 8.52224L977.366 8.9957L978.043 8.9957L978.72 9.46916L978.043 9.94261L978.72 9.94261L979.397 8.9957L980.074 8.9957L979.397 8.52224L980.074 8.52224L980.751 8.52224L982.105 8.04879L984.136 10.4161L988.199 11.363L988.876 10.4161L990.23 10.8895L990.23 9.94262L990.907 10.4161L991.584 10.4161L992.261 9.94262L993.615 10.4161L994.292 10.8895L996.324 10.4161L998.355 11.363L999.709 9.94262L1000.39 11.363L1002.42 11.363L1003.77 12.7834L1005.13 11.8364L1005.8 10.8895L1007.16 10.8895L1008.51 9.94262L1013.25 9.46916L1014.6 6.62842L1017.99 4.73458L1020.02 4.73458L1022.05 5.6815L1024.76 4.73458L1027.47 4.73458L1030.18 3.31421L1032.89 3.31421L1034.92 2.3673L1036.95 1.09233e-05L1041.01 7.10187L1051.17 7.10188L1062 12.7834L1062 121L912 121L912 55.497Z" fill="#F4F4F4"/>
<path d="M912 55.497L912 12.7834L895.206 8.52223L893.489 9.85964L890.844 9.85964L890.844 10.3965L889.522 10.3965L888.2 11.363L886.878 10.9335L886.179 11.363L884.233 11.4704L882.911 12.0073L881.589 12.0073L881.084 12.5442L879.762 12.5442L879.488 13.2568L877.117 13.0811L877.117 12.5442L875.795 12.5442L874.94 12.3489L873.15 11.4704L871.828 12.0073L870.506 11.4704L869.689 11.363L863.078 12.0073L860.433 9.9426L853.822 8.78581L852.463 8.84644L851.833 8.78581L851.14 8.30953L849.818 8.30953L850.163 8.59057L848.496 8.30953L848.496 8.59056L847.174 8.05365L847.174 7.51674L845.851 7.77261L844.529 7.51674L843.903 7.71198L843.081 7.17507L841.885 7.17507L840.563 7.51674L839.24 7.51674L839.24 8.05365L837.918 8.05365L837.344 7.71198L836.596 8.05365L835.274 8.59056L833.951 8.05365L832.629 8.05365L832.629 7.51674L831.307 7.51674L829.704 7.10186L828.7 7.17507L827.378 7.71198L826.055 7.71198L824.733 7.71198L826.055 8.24889L824.733 8.7858L823.411 9.32271L822.089 8.7858L820.766 8.52223L819.444 8.7858L819.444 9.32271L816.8 8.7858L816.497 9.46914L815.478 8.7858L812.895 8.52223L811.694 8.52223L810.493 8.04877L811.694 7.57531L810.493 7.57531L809.293 8.04877L809.293 7.57531L806.891 8.04877L806.891 7.10185L805.691 7.57531L805.691 8.04877L804.49 8.04877L804.49 7.57531L803.289 8.04877L803.289 7.57531L802.089 7.10185L800.888 7.57531L799.687 7.57531L799.687 8.04877L798.487 8.52223L797.286 8.99568L796.085 8.52223L796.085 8.99568L794.884 8.99568L793.684 9.46914L794.884 9.9426L793.684 9.9426L792.483 8.99568L791.283 8.99568L792.483 8.52223L791.283 8.52223L790.082 8.52223L787.68 8.04877L784.078 10.4161L776.874 11.363L775.674 10.4161L773.272 10.8895L773.272 9.9426L772.072 10.4161L770.871 10.4161L769.67 9.9426L767.269 10.4161L766.068 10.8895L762.466 10.4161L758.864 11.363L756.463 9.9426L755.262 11.363L751.66 11.363L749.259 12.7833L746.857 11.8364L745.657 10.8895L743.255 10.8895L740.854 9.94259L732.449 9.46914L730.048 6.62839L724.044 4.73456L720.442 4.73456L716.84 5.68147L712.038 4.73456L707.235 4.73456L702.432 3.31418L697.629 3.31418L694.027 2.36727L690.425 -1.93707e-05L683.221 7.10184L665.211 7.10184L646 12.7833L646 121L912 121L912 55.497Z" fill="#F4F4F4"/>
<path d="M646 55.497L646 12.7834L637.54 8.52224L636.675 9.85964L635.343 9.85964L635.343 10.3965L634.677 10.3965L634.01 11.363L633.344 10.9335L632.992 11.363L632.012 11.4704L631.346 12.0073L630.68 12.0073L630.426 12.5442L629.76 12.5442L629.622 13.2568L628.427 13.0811L628.427 12.5442L627.761 12.5442L627.331 12.3489L626.429 11.4704L625.763 12.0073L625.097 11.4704L624.685 11.363L621.355 12.0073L620.023 9.94261L616.692 8.78581L616.007 8.84644L615.69 8.78581L615.341 8.30953L614.675 8.30953L614.849 8.59057L614.009 8.30953L614.009 8.59057L613.343 8.05366L613.343 7.51675L612.677 7.77262L612.011 7.51675L611.695 7.71199L611.281 7.17508L610.679 7.17508L610.013 7.51675L609.347 7.51675L609.347 8.05366L608.681 8.05366L608.391 7.71199L608.014 8.05366L607.348 8.59057L606.682 8.05366L606.016 8.05366L606.016 7.51675L605.35 7.51675L604.543 7.10186L604.037 7.17507L603.371 7.71199L602.705 7.71199L602.038 7.71199L602.705 8.2489L602.038 8.78581L601.372 9.32272L600.706 8.78581L600.04 8.52223L599.374 8.78581L599.374 9.32272L598.042 8.78581L597.889 9.46915L597.376 8.78581L596.075 8.52223L595.47 8.52223L594.865 8.04878L595.47 7.57532L594.865 7.57532L594.26 8.04877L594.26 7.57532L593.051 8.04877L593.051 7.10186L592.446 7.57532L592.446 8.04877L591.841 8.04877L591.841 7.57532L591.236 8.04877L591.236 7.57532L590.631 7.10186L590.026 7.57532L589.421 7.57532L589.421 8.04877L588.817 8.52223L588.212 8.99569L587.607 8.52223L587.607 8.99569L587.002 8.99569L586.397 9.46915L587.002 9.9426L586.397 9.9426L585.792 8.99569L585.187 8.99569L585.792 8.52223L585.187 8.52223L584.583 8.52223L583.373 8.04877L581.558 10.4161L577.929 11.363L577.324 10.4161L576.115 10.8895L576.115 9.9426L575.51 10.4161L574.905 10.4161L574.3 9.9426L573.09 10.4161L572.485 10.8895L570.671 10.4161L568.856 11.363L567.647 9.9426L567.042 11.363L565.227 11.363L564.018 12.7833L562.808 11.8364L562.203 10.8895L560.993 10.8895L559.784 9.9426L555.55 9.46914L554.34 6.6284L551.316 4.73457L549.501 4.73457L547.686 5.68148L545.267 4.73457L542.848 4.73457L540.428 3.31419L538.009 3.31419L536.194 2.36728L534.38 -9.75816e-06L530.751 7.10185L521.678 7.10185L512 12.7833L512 121L646 121L646 55.497Z" fill="#F4F4F4"/>
<path d="M512 55.497L512 12.7834L502.53 8.52224L501.561 9.85964L500.07 9.85964L500.07 10.3965L499.325 10.3965L498.579 11.363L497.833 10.9335L497.439 11.363L496.342 11.4704L495.596 12.0073L494.851 12.0073L494.566 12.5442L493.82 12.5442L493.666 13.2568L492.329 13.0811L492.329 12.5442L491.584 12.5442L491.102 12.3489L490.092 11.4704L489.347 12.0073L488.601 11.4704L488.14 11.363L484.412 12.0073L482.921 9.94261L479.193 8.78581L478.426 8.84644L478.071 8.78581L477.681 8.30953L476.935 8.30953L477.129 8.59057L476.189 8.30953L476.189 8.59057L475.444 8.05366L475.444 7.51675L474.698 7.77262L473.953 7.51675L473.599 7.71199L473.136 7.17507L472.461 7.17507L471.716 7.51675L470.97 7.51675L470.97 8.05366L470.224 8.05366L469.901 7.71199L469.479 8.05366L468.733 8.59057L467.988 8.05366L467.242 8.05366L467.242 7.51674L466.496 7.51674L465.593 7.10186L465.026 7.17507L464.281 7.71198L463.535 7.71198L462.789 7.71198L463.535 8.2489L462.789 8.78581L462.044 9.32272L461.298 8.78581L460.553 8.52223L459.807 8.78581L459.807 9.32272L458.316 8.78581L458.145 9.46915L457.57 8.78581L456.114 8.52223L455.437 8.52223L454.759 8.04877L455.437 7.57532L454.759 7.57532L454.082 8.04877L454.082 7.57532L452.728 8.04877L452.728 7.10186L452.051 7.57532L452.051 8.04877L451.374 8.04877L451.374 7.57531L450.697 8.04877L450.697 7.57531L450.02 7.10186L449.343 7.57531L448.666 7.57531L448.666 8.04877L447.989 8.52223L447.312 8.99569L446.634 8.52223L446.634 8.99569L445.957 8.99569L445.28 9.46915L445.957 9.9426L445.28 9.9426L444.603 8.99569L443.926 8.99569L444.603 8.52223L443.926 8.52223L443.249 8.52223L441.895 8.04877L439.864 10.4161L435.801 11.363L435.124 10.4161L433.77 10.8895L433.77 9.9426L433.093 10.4161L432.416 10.4161L431.739 9.9426L430.385 10.4161L429.708 10.8895L427.676 10.4161L425.645 11.363L424.291 9.9426L423.614 11.363L421.583 11.363L420.229 12.7833L418.874 11.8364L418.197 10.8895L416.843 10.8895L415.489 9.9426L410.75 9.46914L409.395 6.6284L406.01 4.73457L403.979 4.73457L401.948 5.68148L399.239 4.73456L396.531 4.73456L393.823 3.31419L391.114 3.31419L389.083 2.36728L387.052 -1.09233e-05L382.989 7.10185L372.833 7.10185L362 12.7833L362 121L512 121L512 55.497Z" fill="#F4F4F4"/>
<path d="M362 55.497L362 12.7834L352.53 8.52224L351.561 9.85964L350.07 9.85964L350.07 10.3965L349.325 10.3965L348.579 11.363L347.833 10.9335L347.439 11.363L346.342 11.4704L345.596 12.0073L344.851 12.0073L344.566 12.5442L343.82 12.5442L343.666 13.2568L342.329 13.0811L342.329 12.5442L341.584 12.5442L341.102 12.3489L340.092 11.4704L339.347 12.0073L338.601 11.4704L338.14 11.363L334.412 12.0073L332.921 9.94261L329.193 8.78581L328.426 8.84644L328.071 8.78581L327.681 8.30953L326.935 8.30953L327.129 8.59057L326.189 8.30953L326.189 8.59057L325.444 8.05366L325.444 7.51675L324.698 7.77262L323.953 7.51675L323.599 7.71199L323.136 7.17507L322.461 7.17507L321.716 7.51675L320.97 7.51675L320.97 8.05366L320.224 8.05366L319.901 7.71199L319.479 8.05366L318.733 8.59057L317.988 8.05366L317.242 8.05366L317.242 7.51675L316.496 7.51675L315.593 7.10186L315.026 7.17507L314.281 7.71199L313.535 7.71199L312.789 7.71199L313.535 8.2489L312.789 8.78581L312.044 9.32272L311.298 8.78581L310.553 8.52223L309.807 8.78581L309.807 9.32272L308.316 8.78581L308.145 9.46915L307.57 8.78581L306.114 8.52223L305.437 8.52223L304.759 8.04877L305.437 7.57532L304.759 7.57532L304.082 8.04877L304.082 7.57532L302.728 8.04877L302.728 7.10186L302.051 7.57532L302.051 8.04877L301.374 8.04877L301.374 7.57531L300.697 8.04877L300.697 7.57531L300.02 7.10186L299.343 7.57531L298.666 7.57531L298.666 8.04877L297.989 8.52223L297.312 8.99569L296.634 8.52223L296.634 8.99569L295.957 8.99569L295.28 9.46915L295.957 9.9426L295.28 9.9426L294.603 8.99569L293.926 8.99569L294.603 8.52223L293.926 8.52223L293.249 8.52223L291.895 8.04877L289.864 10.4161L285.801 11.363L285.124 10.4161L283.77 10.8895L283.77 9.9426L283.093 10.4161L282.416 10.4161L281.739 9.9426L280.385 10.4161L279.708 10.8895L277.676 10.4161L275.645 11.363L274.291 9.9426L273.614 11.363L271.583 11.363L270.229 12.7833L268.874 11.8364L268.197 10.8895L266.843 10.8895L265.489 9.9426L260.75 9.46914L259.395 6.6284L256.01 4.73457L253.979 4.73457L251.948 5.68148L249.239 4.73456L246.531 4.73456L243.823 3.31419L241.114 3.31419L239.083 2.36728L237.052 -1.09233e-05L232.989 7.10185L222.833 7.10185L212 12.7833L212 121L362 121L362 55.497Z" fill="#F4F4F4"/>
<path d="M212 55.497L212 12.7834L198.616 8.52223L197.247 9.85964L195.139 9.85964L195.139 10.3965L194.085 10.3965L193.032 11.363L191.978 10.9335L191.421 11.363L189.87 11.4704L188.816 12.0073L187.763 12.0073L187.36 12.5442L186.306 12.5442L186.088 13.2568L184.199 13.0811L184.199 12.5442L183.145 12.5442L182.464 12.3489L181.037 11.4704L179.983 12.0073L178.93 11.4704L178.278 11.363L173.009 12.0073L170.902 9.94261L165.633 8.78581L164.549 8.84644L164.047 8.78581L163.495 8.30953L162.442 8.30953L162.716 8.59057L161.388 8.30953L161.388 8.59057L160.334 8.05365L160.334 7.51674L159.28 7.77262L158.226 7.51674L157.727 7.71198L157.072 7.17507L156.119 7.17507L155.065 7.51674L154.011 7.51674L154.011 8.05365L152.957 8.05365L152.499 7.71198L151.903 8.05365L150.85 8.59057L149.796 8.05365L148.742 8.05365L148.742 7.51674L147.688 7.51674L146.411 7.10186L145.61 7.17507L144.557 7.71198L143.503 7.71198L142.449 7.71198L143.503 8.24889L142.449 8.7858L141.395 9.32272L140.341 8.7858L139.288 8.52223L138.234 8.7858L138.234 9.32272L136.126 8.7858L135.885 9.46914L135.072 8.7858L133.014 8.52223L132.057 8.52223L131.1 8.04877L132.057 7.57531L131.1 7.57531L130.143 8.04877L130.143 7.57531L128.229 8.04877L128.229 7.10186L127.272 7.57531L127.272 8.04877L126.315 8.04877L126.315 7.57531L125.358 8.04877L125.358 7.57531L124.401 7.10186L123.444 7.57531L122.488 7.57531L122.488 8.04877L121.531 8.52223L120.574 8.99569L119.617 8.52223L119.617 8.99569L118.66 8.99569L117.703 9.46914L118.66 9.9426L117.703 9.9426L116.746 8.99568L115.789 8.99568L116.746 8.52223L115.789 8.52223L114.832 8.52223L112.918 8.04877L110.047 10.4161L104.306 11.363L103.349 10.4161L101.435 10.8895L101.435 9.9426L100.478 10.4161L99.5211 10.4161L98.5642 9.9426L96.6503 10.4161L95.6934 10.8895L92.8227 10.4161L89.9519 11.363L88.038 9.9426L87.0811 11.363L84.2102 11.363L82.2964 12.7833L80.3825 11.8364L79.4256 10.8895L77.5117 10.8895L75.5978 9.9426L68.8994 9.46914L66.9855 6.62839L62.2008 4.73456L59.33 4.73456L56.4592 5.68148L52.6314 4.73456L48.8036 4.73456L44.976 3.31419L41.1483 3.31419L38.2774 2.36727L35.4066 -1.54383e-05L29.665 7.10185L15.311 7.10185L1.41412e-05 12.7833L4.68062e-06 121L212 121L212 55.497Z" fill="#F4F4F4"/>
</svg>
