<svg width="751" height="409" viewBox="0 0 751 409" fill="none" xmlns="http://www.w3.org/2000/svg">
<g filter="url(#filter0_d_530_94893)">
<path d="M8 9H741.056L743 16V315H8V9Z" fill="url(#paint0_linear_530_94893)"/>
<path d="M743 313.218L743 349.225L726.206 352.817L724.489 351.69L721.844 351.69L721.844 351.237L720.522 351.237L719.2 350.422L717.878 350.784L717.179 350.422L715.233 350.332L713.911 349.879L712.589 349.879L712.084 349.427L710.762 349.427L710.488 348.826L708.117 348.974L708.117 349.427L706.795 349.427L705.94 349.591L704.15 350.332L702.828 349.879L701.506 350.332L700.689 350.422L694.078 349.879L691.433 351.62L684.822 352.595L683.463 352.544L682.833 352.595L682.14 352.996L680.818 352.996L681.163 352.759L679.496 352.996L679.496 352.759L678.174 353.212L678.174 353.665L676.851 353.449L675.529 353.665L674.903 353.5L674.081 353.953L672.885 353.953L671.563 353.665L670.24 353.665L670.24 353.212L668.918 353.212L668.344 353.5L667.596 353.212L666.274 352.759L664.951 353.212L663.629 353.212L663.629 353.665L662.307 353.665L660.704 354.014L659.7 353.953L658.378 353.5L657.055 353.5L655.733 353.5L657.055 353.047L655.733 352.595L654.411 352.142L653.089 352.595L651.766 352.817L650.444 352.595L650.444 352.142L647.8 352.595L647.497 352.019L646.478 352.595L643.895 352.817L642.694 352.817L641.493 353.216L642.694 353.615L641.493 353.615L640.293 353.216L640.293 353.615L637.891 353.216L637.891 354.014L636.691 353.615L636.691 353.216L635.49 353.216L635.49 353.615L634.289 353.216L634.289 353.615L633.089 354.014L631.888 353.615L630.687 353.615L630.687 353.216L629.487 352.817L628.286 352.418L627.085 352.817L627.085 352.418L625.884 352.418L624.684 352.019L625.884 351.62L624.684 351.62L623.483 352.418L622.283 352.418L623.483 352.817L622.283 352.817L621.082 352.817L618.68 353.216L615.078 351.221L607.874 350.422L606.674 351.221L604.272 350.821L604.272 351.62L603.072 351.221L601.871 351.221L600.67 351.62L598.269 351.221L597.068 350.821L593.466 351.221L589.864 350.422L587.463 351.62L586.262 350.422L582.66 350.422L580.259 349.225L577.857 350.023L576.657 350.821L574.255 350.821L571.854 351.62L563.449 352.019L561.048 354.413L555.044 356.01L551.442 356.01L547.84 355.212L543.038 356.01L538.235 356.01L533.432 357.207L528.629 357.207L525.027 358.005L521.425 360.001L514.221 354.014L496.211 354.014L477 349.225L477 258.001L743 258.001L743 313.218Z" fill="#E0DBCB"/>
<path d="M8 4H729C729 4 738.5 3.99991 741 6.5C743.5 9.00009 743 17 743 17C743 17 740.5 9.50009 735.5 9.50009C730.5 9.50009 729 17 729 17V336H8V4Z" fill="url(#paint1_linear_530_94893)"/>
<path d="M729 350.218L729 386.225L713.11 389.817L711.485 388.69L708.983 388.69L708.983 388.237L707.732 388.237L706.481 387.422L705.229 387.784L704.568 387.422L702.727 387.332L701.476 386.879L700.225 386.879L699.747 386.427L698.496 386.427L698.237 385.826L695.994 385.974L695.994 386.427L694.743 386.427L693.934 386.591L692.241 387.332L690.99 386.879L689.739 387.332L688.965 387.422L682.71 386.879L680.208 388.62L673.952 389.595L672.666 389.544L672.07 389.595L671.415 389.996L670.164 389.996L670.49 389.759L668.913 389.996L668.913 389.759L667.662 390.212L667.662 390.665L666.411 390.449L665.16 390.665L664.567 390.5L663.789 390.953L662.657 390.953L661.406 390.665L660.155 390.665L660.155 390.212L658.904 390.212L658.361 390.5L657.653 390.212L656.402 389.759L655.151 390.212L653.9 390.212L653.9 390.665L652.649 390.665L651.132 391.014L650.182 390.953L648.931 390.5L647.68 390.5L646.429 390.5L647.68 390.047L646.429 389.595L645.178 389.142L643.926 389.595L642.675 389.817L641.424 389.595L641.424 389.142L638.922 389.595L638.635 389.019L637.671 389.595L635.227 389.817L634.091 389.817L632.955 390.216L634.091 390.615L632.955 390.615L631.819 390.216L631.819 390.615L629.547 390.216L629.547 391.014L628.411 390.615L628.411 390.216L627.275 390.216L627.275 390.615L626.139 390.216L626.139 390.615L625.002 391.014L623.866 390.615L622.73 390.615L622.73 390.216L621.594 389.817L620.458 389.418L619.322 389.817L619.322 389.418L618.186 389.418L617.05 389.019L618.186 388.62L617.05 388.62L615.914 389.418L614.778 389.418L615.914 389.817L614.778 389.817L613.642 389.817L611.37 390.216L607.961 388.221L601.145 387.422L600.009 388.221L597.737 387.821L597.737 388.62L596.601 388.221L595.464 388.221L594.328 388.62L592.056 388.221L590.92 387.821L587.512 388.221L584.104 387.422L581.832 388.62L580.696 387.422L577.287 387.422L575.015 386.225L572.743 387.023L571.607 387.821L569.335 387.821L567.063 388.62L559.11 389.019L556.838 391.413L551.157 393.01L547.749 393.01L544.341 392.212L539.797 393.01L535.252 393.01L530.708 394.207L526.164 394.207L522.756 395.005L519.347 397.001L512.531 391.014L495.49 391.014L477.312 386.225L477.312 295.001L729 295.001L729 350.218Z" fill="#FEF6DD"/>
<path d="M477.312 350.218L477.312 386.225L469.308 389.817L468.489 388.69L467.229 388.69L467.229 388.237L466.598 388.237L465.968 387.422L465.338 387.784L465.005 387.422L464.077 387.332L463.447 386.879L462.817 386.879L462.576 386.427L461.946 386.427L461.816 385.826L460.685 385.974L460.685 386.427L460.055 386.427L459.648 386.591L458.795 387.332L458.164 386.879L457.534 387.332L457.145 387.422L453.993 386.879L452.733 388.62L449.582 389.595L448.934 389.544L448.634 389.595L448.303 389.996L447.673 389.996L447.837 389.759L447.043 389.996L447.043 389.759L446.413 390.212L446.413 390.665L445.783 390.449L445.152 390.665L444.854 390.5L444.462 390.953L443.892 390.953L443.262 390.665L442.631 390.665L442.631 390.212L442.001 390.212L441.727 390.5L441.371 390.212L440.741 389.759L440.11 390.212L439.48 390.212L439.48 390.665L438.85 390.665L438.086 391.014L437.607 390.953L436.977 390.5L436.347 390.5L435.716 390.5L436.347 390.047L435.716 389.595L435.086 389.142L434.456 389.595L433.826 389.817L433.195 389.595L433.195 389.142L431.935 389.595L431.791 389.019L431.305 389.595L430.074 389.817L429.501 389.817L428.929 390.216L429.501 390.615L428.929 390.615L428.357 390.216L428.357 390.615L427.212 390.216L427.212 391.014L426.64 390.615L426.64 390.216L426.067 390.216L426.067 390.615L425.495 390.216L425.495 390.615L424.923 391.014L424.35 390.615L423.778 390.615L423.778 390.216L423.206 389.817L422.634 389.418L422.061 389.817L422.061 389.418L421.489 389.418L420.917 389.019L421.489 388.62L420.917 388.62L420.344 389.418L419.772 389.418L420.344 389.817L419.772 389.817L419.2 389.817L418.055 390.216L416.338 388.221L412.904 387.422L412.332 388.221L411.187 387.821L411.187 388.62L410.615 388.221L410.043 388.221L409.47 388.62L408.326 388.221L407.753 387.821L406.037 388.221L404.32 387.422L403.175 388.62L402.603 387.422L400.886 387.422L399.741 386.225L398.597 387.023L398.024 387.821L396.88 387.821L395.735 388.62L391.729 389.019L390.584 391.413L387.723 393.01L386.006 393.01L384.289 392.212L382 393.01L379.71 393.01L377.421 394.207L375.132 394.207L373.415 395.005L371.698 397.001L368.264 391.014L359.679 391.014L350.522 386.225L350.522 295.001L477.312 295.001L477.312 350.218Z" fill="#FEF6DD"/>
<path d="M350.522 350.218L350.522 386.225L341.562 389.817L340.645 388.69L339.235 388.69L339.235 388.237L338.529 388.237L337.824 387.422L337.118 387.784L336.745 387.422L335.707 387.332L335.002 386.879L334.296 386.879L334.027 386.427L333.321 386.427L333.175 385.826L331.91 385.974L331.91 386.427L331.205 386.427L330.749 386.591L329.794 387.332L329.088 386.879L328.383 387.332L327.947 387.422L324.419 386.879L323.008 388.62L319.481 389.595L318.755 389.544L318.419 389.595L318.05 389.996L317.344 389.996L317.528 389.759L316.639 389.996L316.639 389.759L315.933 390.212L315.933 390.665L315.228 390.449L314.522 390.665L314.188 390.5L313.749 390.953L313.111 390.953L312.406 390.665L311.7 390.665L311.7 390.212L310.995 390.212L310.688 390.5L310.289 390.212L309.584 389.759L308.878 390.212L308.173 390.212L308.173 390.665L307.467 390.665L306.612 391.014L306.076 390.953L305.371 390.5L304.665 390.5L303.96 390.5L304.665 390.047L303.96 389.595L303.254 389.142L302.549 389.595L301.843 389.817L301.138 389.595L301.138 389.142L299.727 389.595L299.565 389.019L299.021 389.595L297.643 389.817L297.002 389.817L296.362 390.216L297.002 390.615L296.362 390.615L295.721 390.216L295.721 390.615L294.44 390.216L294.44 391.014L293.799 390.615L293.799 390.216L293.159 390.216L293.159 390.615L292.518 390.216L292.518 390.615L291.877 391.014L291.237 390.615L290.596 390.615L290.596 390.216L289.955 389.817L289.315 389.418L288.674 389.817L288.674 389.418L288.033 389.418L287.393 389.019L288.033 388.62L287.393 388.62L286.752 389.418L286.111 389.418L286.752 389.817L286.111 389.817L285.471 389.817L284.19 390.216L282.268 388.221L278.424 387.422L277.783 388.221L276.502 387.821L276.502 388.62L275.861 388.221L275.22 388.221L274.58 388.62L273.299 388.221L272.658 387.821L270.736 388.221L268.814 387.422L267.533 388.62L266.892 387.422L264.97 387.422L263.689 386.225L262.408 387.023L261.767 387.821L260.486 387.821L259.204 388.62L254.72 389.019L253.439 391.413L250.235 393.01L248.313 393.01L246.391 392.212L243.829 393.01L241.266 393.01L238.704 394.207L236.141 394.207L234.219 395.005L232.297 397.001L228.453 391.014L218.844 391.014L208.593 386.225L208.593 295.001L350.522 295.001L350.522 350.218Z" fill="#FEF6DD"/>
<path d="M208.593 350.218L208.593 386.225L195.928 389.817L194.633 388.69L192.639 388.69L192.639 388.237L191.642 388.237L190.645 387.422L189.648 387.784L189.121 387.422L187.654 387.332L186.657 386.879L185.659 386.879L185.279 386.427L184.281 386.427L184.075 385.826L182.287 385.974L182.287 386.427L181.29 386.427L180.646 386.591L179.296 387.332L178.299 386.879L177.302 387.332L176.685 387.422L171.7 386.879L169.706 388.62L164.72 389.595L163.695 389.544L163.22 389.595L162.698 389.996L161.701 389.996L161.961 389.759L160.704 389.996L160.704 389.759L159.707 390.212L159.707 390.665L158.71 390.449L157.712 390.665L157.24 390.5L156.62 390.953L155.718 390.953L154.721 390.665L153.724 390.665L153.724 390.212L152.727 390.212L152.294 390.5L151.73 390.212L150.733 389.759L149.736 390.212L148.738 390.212L148.738 390.665L147.741 390.665L146.533 391.014L145.775 390.953L144.778 390.5L143.781 390.5L142.784 390.5L143.781 390.047L142.784 389.595L141.787 389.142L140.79 389.595L139.793 389.817L138.796 389.595L138.796 389.142L136.801 389.595L136.573 389.019L135.804 389.595L133.857 389.817L132.951 389.817L132.046 390.216L132.951 390.615L132.046 390.615L131.14 390.216L131.14 390.615L129.329 390.216L129.329 391.014L128.424 390.615L128.424 390.216L127.518 390.216L127.518 390.615L126.613 390.216L126.613 390.615L125.708 391.014L124.802 390.615L123.897 390.615L123.897 390.216L122.991 389.817L122.086 389.418L121.18 389.817L121.18 389.418L120.275 389.418L119.369 389.019L120.275 388.62L119.369 388.62L118.464 389.418L117.559 389.418L118.464 389.817L117.559 389.817L116.653 389.817L114.842 390.216L112.126 388.221L106.693 387.422L105.788 388.221L103.977 387.821L103.977 388.62L103.071 388.221L102.166 388.221L101.26 388.62L99.4496 388.221L98.5441 387.821L95.8279 388.221L93.1115 387.422L91.3006 388.62L90.3952 387.422L87.6788 387.422L85.8679 386.225L84.057 387.023L83.1516 387.821L81.3407 387.821L79.5298 388.62L73.1918 389.019L71.3809 391.413L66.8536 393.01L64.1373 393.01L61.4209 392.212L57.7991 393.01L54.1773 393.01L50.5556 394.207L46.9338 394.207L44.2175 395.005L41.5011 397.001L36.0684 391.014L22.4868 391.014L7.99958 386.225L7.99957 295.001L208.593 295.001L208.593 350.218Z" fill="#FEF6DD"/>
</g>
<g opacity="0.5">
<line x1="6" y1="93.501" x2="729" y2="93.501" stroke="#B84416" stroke-width="3"/>
<line x1="6" y1="141.501" x2="729" y2="141.501" stroke="#F78F1E" stroke-width="3"/>
<line x1="6" y1="168.501" x2="729" y2="168.501" stroke="#F78F1E" stroke-width="3"/>
<line x1="6" y1="195.501" x2="729" y2="195.501" stroke="#F78F1E" stroke-width="3"/>
<line x1="6" y1="223.501" x2="729" y2="223.501" stroke="#F78F1E" stroke-width="3"/>
<line x1="6" y1="250.501" x2="729" y2="250.501" stroke="#F78F1E" stroke-width="3"/>
<line x1="6" y1="277.501" x2="729" y2="277.501" stroke="#F78F1E" stroke-width="3"/>
<line x1="6" y1="304.501" x2="729" y2="304.501" stroke="#F78F1E" stroke-width="3"/>
<path d="M69.5117 388.938L69.5101 22.6308C69.5101 22.6308 69.9997 13.3572 73.9997 8.1408C77.9996 2.9244 82.9996 3.50403 82.9996 3.50403" stroke="#B84416" stroke-width="3"/>
</g>
<defs>
<filter id="filter0_d_530_94893" x="0.199512" y="0.2" width="750.642" height="408.601" filterUnits="userSpaceOnUse" color-interpolation-filters="sRGB">
<feFlood flood-opacity="0" result="BackgroundImageFix"/>
<feColorMatrix in="SourceAlpha" type="matrix" values="0 0 0 0 0 0 0 0 0 0 0 0 0 0 0 0 0 0 127 0" result="hardAlpha"/>
<feOffset dy="4"/>
<feGaussianBlur stdDeviation="3.9"/>
<feComposite in2="hardAlpha" operator="out"/>
<feColorMatrix type="matrix" values="0 0 0 0 0 0 0 0 0 0 0 0 0 0 0 0 0 0 0.25 0"/>
<feBlend mode="normal" in2="BackgroundImageFix" result="effect1_dropShadow_530_94893"/>
<feBlend mode="normal" in="SourceGraphic" in2="effect1_dropShadow_530_94893" result="shape"/>
</filter>
<linearGradient id="paint0_linear_530_94893" x1="375.5" y1="9" x2="375.5" y2="315" gradientUnits="userSpaceOnUse">
<stop stop-color="#D3CDBD"/>
<stop offset="1" stop-color="#E4DFCF"/>
</linearGradient>
<linearGradient id="paint1_linear_530_94893" x1="375.52" y1="336" x2="375.52" y2="4" gradientUnits="userSpaceOnUse">
<stop offset="0.955" stop-color="#FEF6DD"/>
<stop offset="1" stop-color="#D3C7A4"/>
</linearGradient>
</defs>
</svg>
