<svg width="1512" preserveAspectRatio="none" height="29" viewBox="0 0 1512 29" class="fill-inherit -rotate-180" xmlns="http://www.w3.org/2000/svg">
<path d="M1512 29L1512 10.7759L1496.69 5.98682L1482.33 5.98682L1476.59 3.09533e-06L1473.72 1.99561L1470.85 2.79395L1467.02 2.79395L1463.2 3.99122L1459.37 3.99122L1455.54 4.78956L1452.67 3.99122L1449.8 3.99122L1445.01 5.58741L1443.1 7.98243L1436.4 8.38135L1434.49 9.17969L1432.57 9.17969L1431.62 9.97803L1429.7 10.7759L1427.79 9.57862L1424.92 9.57862L1423.96 8.38136L1422.05 9.57862L1419.18 8.78028L1416.31 9.1797L1415.35 8.78028L1413.44 8.38136L1412.48 8.78028L1411.52 8.78028L1410.56 8.38136L1410.56 9.1797L1408.65 8.78028L1407.69 9.57862L1401.95 8.78028L1399.08 6.78468L1397.17 7.18409L1395.25 7.18409L1396.21 7.58302L1395.25 7.58302L1394.3 8.38136L1393.34 8.38136L1394.3 7.98243L1393.34 7.58302L1392.38 7.58302L1392.38 7.18409L1391.43 7.58302L1389.51 6.78468L1389.51 6.38575L1388.56 6.38575L1387.6 5.98683L1386.64 6.38575L1386.64 6.78468L1385.68 6.38575L1385.68 6.78468L1384.73 6.78468L1384.73 6.38575L1383.77 5.98683L1383.77 6.78468L1381.86 6.38575L1381.86 6.78468L1380.9 6.38575L1379.94 6.38575L1380.9 6.78468L1379.94 7.18409L1378.99 7.18409L1376.93 7.40626L1376.12 7.98243L1375.87 7.40626L1373.77 7.8589L1373.77 7.40626L1372.71 7.18409L1371.66 7.40626L1370.6 7.8589L1368.5 6.95363L1369.55 6.50099L1367.44 6.50099L1366.39 6.04835L1365.59 5.98683L1364.31 6.33644L1363.26 6.33644L1363.26 6.78908L1362.2 6.78908L1361.15 7.24171L1360.1 6.78908L1359.5 6.50099L1359.04 6.78908L1357.99 6.78908L1357.99 6.33644L1356.94 6.33644L1355.88 6.04835L1354.93 6.04835L1354.27 6.50099L1353.77 6.33644L1352.72 6.55226L1351.67 6.33644L1351.67 6.78908L1350.61 7.24171L1350.61 7.0049L1349.28 7.24171L1349.56 7.0049L1348.5 7.0049L1347.95 7.40626L1347.45 7.45753L1346.37 7.40626L1341.1 8.38136L1338.99 10.1216L1333.72 9.57863L1333.07 9.66945L1332.02 10.1216L1330.96 9.66945L1329.54 10.4097L1328.86 10.5742L1327.8 10.5742L1327.8 11.0269L1325.91 11.1753L1325.69 10.5742L1324.64 10.5742L1324.24 10.1216L1323.18 10.1216L1322.13 9.66945L1320.58 9.57863L1320.02 9.21681L1318.97 9.57863L1317.91 8.76418L1316.86 8.76418L1316.86 8.31154L1314.75 8.31154L1313.38 7.1841L1300 10.7759L1289.17 5.98684L1279.01 5.98684L1274.95 2.07237e-05L1272.92 1.99563L1270.89 2.79397L1268.18 2.79397L1265.47 3.99123L1262.76 3.99123L1260.05 4.78957L1258.02 3.99123L1255.99 3.99123L1252.6 5.58743L1251.25 7.98244L1246.51 8.38137L1245.16 9.17971L1243.8 9.17971L1243.13 9.97805L1241.77 10.7759L1240.42 9.57864L1238.39 9.57864L1237.71 8.38137L1236.35 9.57864L1234.32 8.7803L1232.29 9.17971L1231.62 8.7803L1230.26 8.38137L1229.58 8.7803L1228.91 8.7803L1228.23 8.38137L1228.23 9.17971L1226.88 8.7803L1226.2 9.57864L1222.14 8.7803L1220.1 6.78469L1218.75 7.18411L1217.4 7.18411L1218.07 7.58303L1217.4 7.58303L1216.72 8.38137L1216.04 8.38137L1216.72 7.98245L1216.04 7.58303L1215.37 7.58303L1215.37 7.18411L1214.69 7.58303L1213.33 6.78469L1213.33 6.38577L1212.66 6.38577L1211.98 5.98684L1211.3 6.38577L1211.3 6.78469L1210.63 6.38577L1210.63 6.78469L1209.95 6.78469L1209.95 6.38577L1209.27 5.98684L1209.27 6.78469L1207.92 6.38577L1207.92 6.78469L1207.24 6.38577L1206.56 6.38577L1207.24 6.78469L1206.56 7.18411L1205.89 7.18411L1204.43 7.40628L1203.86 7.98245L1203.68 7.40628L1202.19 7.85891L1202.19 7.40628L1201.45 7.18411L1200.7 7.40628L1199.96 7.85891L1198.47 6.95364L1199.21 6.501L1197.72 6.501L1196.97 6.04837L1196.41 5.98684L1195.5 6.33645L1194.76 6.33645L1194.76 6.78909L1194.01 6.78909L1193.27 7.24173L1192.52 6.78909L1192.1 6.501L1191.78 6.78909L1191.03 6.78909L1191.03 6.33645L1190.28 6.33645L1189.54 6.04837L1188.86 6.04837L1188.4 6.501L1188.05 6.33645L1187.3 6.55227L1186.56 6.33645L1186.56 6.78909L1185.81 7.24173L1185.81 7.00491L1184.87 7.24173L1185.06 7.00491L1184.32 7.00491L1183.93 7.40628L1183.57 7.45755L1182.81 7.40628L1179.08 8.38138L1177.59 10.1216L1173.86 9.57864L1173.4 9.66946L1172.65 10.1216L1171.91 9.66946L1170.9 10.4097L1170.42 10.5742L1169.67 10.5742L1169.67 11.0269L1168.33 11.1753L1168.18 10.5742L1167.43 10.5742L1167.15 10.1216L1166.4 10.1216L1165.66 9.66946L1164.56 9.57864L1164.17 9.21683L1163.42 9.57864L1162.68 8.76419L1161.93 8.76419L1161.93 8.31155L1160.44 8.31155L1159.47 7.18411L1150 10.7759L1139.17 5.98685L1129.01 5.98685L1124.95 3.38371e-05L1122.92 1.99564L1120.89 2.79398L1118.18 2.79398L1115.47 3.99125L1112.76 3.99125L1110.05 4.78959L1108.02 3.99125L1105.99 3.99125L1102.6 5.58744L1101.25 7.98246L1096.51 8.38138L1095.16 9.17972L1093.8 9.17972L1093.13 9.97758L1091.77 10.7759L1090.42 9.57865L1088.39 9.57865L1087.71 8.38138L1086.35 9.57865L1084.32 8.78031L1082.29 9.17973L1081.62 8.78031L1080.26 8.38139L1079.58 8.78031L1078.91 8.78031L1078.23 8.38139L1078.23 9.17973L1076.88 8.78031L1076.2 9.57865L1072.14 8.78031L1070.1 6.78471L1068.75 7.18412L1067.4 7.18412L1068.07 7.58305L1067.4 7.58305L1066.72 8.38139L1066.04 8.38139L1066.72 7.98246L1066.04 7.58305L1065.37 7.58305L1065.37 7.18412L1064.69 7.58305L1063.33 6.78471L1063.33 6.38578L1062.66 6.38578L1061.98 5.98686L1061.3 6.38578L1061.3 6.78471L1060.63 6.38578L1060.63 6.78471L1059.95 6.78471L1059.95 6.38578L1059.27 5.98686L1059.27 6.78471L1057.92 6.38578L1057.92 6.78471L1057.24 6.38578L1056.56 6.38578L1057.24 6.78471L1056.56 7.18412L1055.89 7.18412L1054.43 7.40629L1053.86 7.98246L1053.68 7.40629L1052.19 7.85893L1052.19 7.40629L1051.45 7.18412L1050.7 7.40629L1049.96 7.85893L1048.47 6.95365L1049.21 6.50102L1047.72 6.50102L1046.97 6.04838L1046.41 5.98686L1045.5 6.33647L1044.76 6.33647L1044.76 6.7891L1044.01 6.7891L1043.27 7.24174L1042.52 6.7891L1042.1 6.50102L1041.78 6.7891L1041.03 6.7891L1041.03 6.33647L1040.28 6.33647L1039.54 6.04838L1038.86 6.04838L1038.4 6.50102L1038.05 6.33647L1037.3 6.55229L1036.56 6.33647L1036.56 6.7891L1035.81 7.24174L1035.81 7.00492L1034.87 7.24174L1035.06 7.00492L1034.32 7.00492L1033.93 7.40629L1033.57 7.45756L1032.81 7.40629L1029.08 8.38139L1027.59 10.1216L1023.86 9.57866L1023.4 9.66899L1022.65 10.1216L1021.91 9.66899L1020.9 10.4097L1020.42 10.5743L1019.67 10.5743L1019.67 11.0269L1018.33 11.1753L1018.18 10.5743L1017.43 10.5743L1017.15 10.1216L1016.4 10.1216L1015.66 9.66899L1014.56 9.57866L1014.17 9.21684L1013.42 9.57866L1012.68 8.7642L1011.93 8.7642L1011.93 8.31157L1010.44 8.31157L1009.47 7.18413L1000 10.7759L990.322 5.98686L981.25 5.98686L977.62 4.6717e-05L975.806 1.99565L973.991 2.79399L971.572 2.79399L969.152 3.99126L966.733 3.99126L964.313 4.78911L962.499 3.99126L960.685 3.99126L957.66 5.58745L956.45 7.98247L952.217 8.3814L951.007 9.17974L949.797 9.17974L949.192 9.97759L947.982 10.7759L946.773 9.57866L944.958 9.57866L944.353 8.3814L943.144 9.57866L941.329 8.78032L939.515 9.17974L938.91 8.78032L937.7 8.3814L937.095 8.78032L936.49 8.78032L935.885 8.3814L935.885 9.17974L934.676 8.78032L934.071 9.57866L930.442 8.78032L928.627 6.78472L927.417 7.18413L926.208 7.18413L926.812 7.58306L926.208 7.58306L925.603 8.3814L924.998 8.3814L925.603 7.98247L924.998 7.58306L924.393 7.58306L924.393 7.18413L923.788 7.58306L922.579 6.78472L922.579 6.38579L921.974 6.38579L921.369 5.98687L920.764 6.38579L920.764 6.78472L920.159 6.38579L920.159 6.78472L919.554 6.78472L919.554 6.38579L918.949 5.98687L918.949 6.78472L917.74 6.38579L917.74 6.78472L917.135 6.38579L916.53 6.38579L917.135 6.78472L916.53 7.18413L915.925 7.18413L914.624 7.4063L914.111 7.98247L913.958 7.4063L912.626 7.85894L912.626 7.4063L911.96 7.18413L911.294 7.4063L910.628 7.85894L909.295 6.95367L909.961 6.50103L908.629 6.50103L907.963 6.04839L907.457 5.98687L906.65 6.33648L905.984 6.33648L905.984 6.78912L905.318 6.78912L904.652 7.24175L903.986 6.78912L903.609 6.50103L903.319 6.78912L902.653 6.78912L902.653 6.33648L901.987 6.33648L901.321 6.04839L900.719 6.04839L900.305 6.50103L899.989 6.33648L899.323 6.5523L898.657 6.33648L898.657 6.78912L897.991 7.24175L897.991 7.00494L897.151 7.24175L897.325 7.00494L896.659 7.00494L896.31 7.4063L895.993 7.45709L895.308 7.4063L891.977 8.3814L890.645 10.1216L887.315 9.57867L886.903 9.669L886.237 10.1216L885.571 9.669L884.669 10.4097L884.239 10.5743L883.573 10.5743L883.573 11.0269L882.378 11.1753L882.24 10.5743L881.574 10.5743L881.32 10.1216L880.654 10.1216L879.988 9.669L879.008 9.57867L878.656 9.21685L877.99 9.57867L877.323 8.76422L876.657 8.76422L876.657 8.31158L875.325 8.31158L874.46 7.18414L866 10.7759L846.789 5.98687L828.779 5.98688L821.575 6.03589e-05L817.973 1.99567L814.371 2.79401L809.568 2.79401L804.765 3.99127L799.962 3.99127L795.16 4.78913L791.558 3.99127L787.956 3.99127L781.952 5.58747L779.551 7.98249L771.146 8.38141L768.745 9.17975L766.344 9.17975L765.143 9.9776L762.741 10.7759L760.34 9.57868L756.738 9.57868L755.537 8.38141L753.136 9.57868L749.534 8.78034L745.932 9.17975L744.731 8.78034L742.33 8.38141L741.129 8.78034L739.928 8.78034L738.728 8.38142L738.728 9.17976L736.326 8.78034L735.126 9.57868L727.922 8.78034L724.32 6.78474L721.918 7.18415L719.517 7.18415L720.718 7.58308L719.517 7.58308L718.316 8.38142L717.115 8.38142L718.316 7.98249L717.115 7.58308L715.915 7.58308L715.915 7.18415L714.714 7.58308L712.313 6.78474L712.313 6.38581L711.112 6.38581L709.911 5.98689L708.711 6.38581L708.711 6.78474L707.51 6.38581L707.51 6.78474L706.309 6.78474L706.309 6.38581L705.109 5.98689L705.109 6.78474L702.707 6.38581L702.707 6.78474L701.507 6.38581L700.306 6.38581L701.507 6.78474L700.306 7.18415L699.105 7.18415L696.522 7.40632L695.503 7.98249L695.2 7.40632L692.556 7.85896L692.556 7.40632L691.233 7.18415L689.911 7.40632L688.589 7.85896L685.945 6.95369L687.267 6.50105L684.623 6.50105L683.3 6.04841L682.296 5.98689L680.693 6.3365L679.371 6.3365L679.371 6.78914L678.049 6.78914L676.726 7.24177L675.404 6.78914L674.656 6.50105L674.082 6.78914L672.76 6.78914L672.76 6.3365L671.437 6.3365L670.115 6.04841L668.919 6.04841L668.098 6.50105L667.471 6.3365L666.148 6.55232L664.826 6.3365L664.826 6.78914L663.504 7.24177L663.504 7.00496L661.837 7.24177L662.182 7.00496L660.86 7.00496L660.167 7.40632L659.537 7.45711L658.178 7.40632L651.567 8.38142L648.922 10.1217L642.311 9.57869L641.494 9.66902L640.172 10.1217L638.85 9.66902L637.06 10.4097L636.205 10.5743L634.883 10.5743L634.883 11.0269L632.512 11.1754L632.239 10.5743L630.916 10.5743L630.411 10.1217L629.089 10.1217L627.767 9.66902L625.821 9.57869L625.122 9.21687L623.8 9.57869L622.478 8.76424L621.156 8.76424L621.156 8.3116L618.511 8.3116L616.794 7.18416L600 10.776L590.53 7.18416L589.562 8.3116L588.07 8.3116L588.07 8.76424L587.324 8.76424L586.579 9.57869L585.833 9.21639L585.439 9.57869L584.342 9.66903L583.596 10.1217L582.851 10.1217L582.566 10.5743L581.82 10.5743L581.666 11.1754L580.329 11.0269L580.329 10.5743L579.583 10.5743L579.102 10.4097L578.092 9.66903L577.347 10.1217L576.601 9.66903L576.14 9.5787L572.412 10.1217L570.921 8.38143L567.193 7.40633L566.426 7.45711L566.071 7.40633L565.681 7.00497L564.935 7.00497L565.129 7.24178L564.189 7.00497L564.189 7.24178L563.444 6.78915L563.444 6.33651L562.698 6.55233L561.953 6.33651L561.599 6.50106L561.136 6.04842L560.461 6.04842L559.716 6.33651L558.97 6.33651L558.97 6.78915L558.225 6.78915L557.901 6.50106L557.479 6.78915L556.733 7.24178L555.988 6.78915L555.242 6.78915L555.242 6.33651L554.497 6.33651L553.593 5.9869L553.026 6.04842L552.281 6.50106L550.789 6.50106L551.535 6.9537L550.044 7.85897L549.298 7.40633L548.552 7.18417L547.807 7.40633L547.807 7.85897L546.316 7.40633L546.145 7.98202L545.57 7.40633L544.114 7.18417L543.437 7.18417L542.76 6.78475L543.437 6.38583L542.76 6.38583L542.083 6.78475L542.083 6.38583L540.728 6.78475L540.728 5.9869L540.051 6.38583L540.051 6.78475L539.374 6.78475L539.374 6.38583L538.697 6.78475L538.697 6.38583L538.02 5.9869L537.343 6.38583L536.666 6.38583L536.666 6.78475L535.312 7.58309L534.635 7.18417L534.635 7.58309L533.958 7.58309L533.28 7.98202L533.958 8.38143L533.28 8.38143L532.603 7.58309L531.926 7.58309L532.603 7.18417L531.249 7.18417L529.895 6.78475L527.864 8.78036L523.801 9.5787L523.124 8.78036L521.77 9.17977L521.77 8.38143L521.093 8.78036L520.416 8.78036L519.739 8.38143L518.385 8.78036L517.708 9.17977L515.677 8.78036L513.645 9.5787L512.291 8.38144L511.614 9.5787L509.583 9.5787L508.229 10.776L506.875 9.97763L506.197 9.17978L504.843 9.17978L503.489 8.38144L498.75 7.98202L497.396 5.58749L494.01 3.9913L491.979 3.9913L489.948 4.78915L487.239 3.9913L484.531 3.9913L481.823 2.79404L479.114 2.79404L477.083 1.9957L475.052 9.06529e-05L470.989 5.98691L460.833 5.98691L450 10.776L439.167 5.98691L429.011 5.98691L424.948 9.50331e-05L422.917 1.9957L420.886 2.79355L418.177 2.79355L415.469 3.99131L412.761 3.99131L410.052 4.78916L408.021 3.99131L405.99 3.99131L402.604 5.5875L401.25 7.98203L396.511 8.38145L395.157 9.17979L393.803 9.17979L393.125 9.97764L391.771 10.776L390.417 9.57871L388.386 9.57871L387.709 8.38145L386.355 9.57871L384.324 8.78037L382.292 9.17979L381.615 8.78037L380.261 8.38145L379.584 8.78037L378.907 8.78037L378.23 8.38145L378.23 9.17979L376.876 8.78037L376.199 9.57871L372.136 8.78037L370.105 6.78477L368.751 7.18418L367.397 7.18418L368.074 7.58311L367.397 7.58311L366.72 8.38145L366.042 8.38145L366.72 7.98203L366.042 7.58311L365.365 7.58311L365.365 7.18418L364.688 7.58311L363.334 6.78477L363.334 6.38584L362.657 6.38584L361.98 5.98692L361.303 6.38584L361.303 6.78477L360.626 6.38584L360.626 6.78477L359.949 6.78477L359.949 6.38584L359.272 5.98692L359.272 6.78477L357.917 6.38584L357.917 6.78477L357.241 6.38584L356.563 6.38584L357.241 6.78477L356.563 7.18418L355.886 7.18418L354.43 7.40635L353.855 7.98203L353.684 7.40635L352.193 7.85899L352.193 7.40635L351.448 7.18418L350.702 7.40635L349.956 7.85899L348.465 6.95372L349.211 6.50108L347.719 6.50108L346.974 6.04844L346.407 5.98692L345.503 6.33653L344.758 6.33653L344.758 6.78916L344.012 6.78916L343.267 7.2418L342.521 6.78916L342.1 6.50108L341.775 6.78916L341.03 6.78916L341.03 6.33653L340.284 6.33653L339.539 6.04844L338.864 6.04844L338.401 6.50108L338.047 6.33653L337.302 6.55235L336.556 6.33653L336.556 6.78917L335.811 7.2418L335.811 7.0045L334.871 7.2418L335.065 7.0045L334.319 7.0045L333.929 7.40635L333.574 7.45713L332.807 7.40635L329.079 8.38145L327.588 10.1217L323.86 9.57872L323.399 9.66905L322.653 10.1217L321.908 9.66905L320.898 10.4098L320.417 10.5743L319.671 10.5743L319.671 11.027L318.334 11.1749L318.18 10.5743L317.434 10.5743L317.149 10.1217L316.404 10.1217L315.658 9.66905L314.561 9.57872L314.167 9.21641L313.421 9.57872L312.676 8.76427L311.93 8.76427L311.93 8.31163L310.438 8.31163L309.47 7.18419L300 10.776L289.167 5.98692L279.011 5.98692L274.948 0.000108147L272.917 1.99571L270.886 2.79357L268.177 2.79357L265.469 3.99132L262.761 3.99132L260.052 4.78917L258.021 3.99132L255.99 3.99132L252.605 5.58751L251.25 7.98204L246.511 8.38146L245.157 9.1798L243.803 9.1798L243.126 9.97765L241.771 10.776L240.417 9.57872L238.386 9.57872L237.709 8.38146L236.355 9.57872L234.324 8.78039L232.292 9.1798L231.615 8.78039L230.261 8.38146L229.584 8.78039L228.907 8.78039L228.23 8.38146L228.23 9.1798L226.876 8.78039L226.199 9.57873L222.136 8.78039L220.105 6.78478L218.751 7.1842L217.397 7.1842L218.074 7.58312L217.397 7.58312L216.72 8.38146L216.043 8.38146L216.72 7.98205L216.043 7.58312L215.365 7.58312L215.365 7.1842L214.688 7.58312L213.334 6.78478L213.334 6.38586L212.657 6.38586L211.98 5.98693L211.303 6.38586L211.303 6.78478L210.626 6.38586L210.626 6.78478L209.949 6.78478L209.949 6.38586L209.272 5.98693L209.272 6.78478L207.918 6.38586L207.918 6.78478L207.241 6.38586L206.563 6.38586L207.241 6.78478L206.563 7.1842L205.886 7.1842L204.43 7.40636L203.855 7.98205L203.684 7.40636L202.193 7.859L202.193 7.40636L201.448 7.1842L200.702 7.40636L199.956 7.859L198.465 6.95373L199.211 6.50109L197.719 6.50109L196.974 6.04845L196.407 5.98644L195.504 6.33654L194.758 6.33654L194.758 6.78918L194.012 6.78918L193.267 7.24181L192.521 6.78918L192.099 6.50109L191.776 6.78918L191.03 6.78918L191.03 6.33654L190.284 6.33654L189.539 6.04846L188.864 6.04846L188.401 6.50109L188.047 6.33654L187.302 6.55236L186.556 6.33654L186.556 6.78918L185.811 7.24182L185.811 7.00451L184.871 7.24182L185.065 7.00451L184.319 7.00451L183.929 7.40637L183.574 7.45715L182.807 7.40637L179.079 8.38146L177.588 10.1217L173.86 9.57873L173.399 9.66906L172.653 10.1217L171.908 9.66906L170.898 10.4098L170.416 10.5743L169.671 10.5743L169.671 11.027L168.334 11.1749L168.18 10.5743L167.434 10.5743L167.149 10.1217L166.404 10.1217L165.658 9.66906L164.561 9.57873L164.167 9.21643L163.421 9.57873L162.676 8.76379L161.93 8.76379L161.93 8.31164L160.439 8.31164L159.47 7.1842L150 10.776L139.167 5.98645L129.011 5.98645L124.948 0.00012126L122.917 1.99573L120.886 2.79358L118.177 2.79358L115.469 3.99133L112.761 3.99133L110.052 4.78919L108.021 3.99133L105.99 3.99133L102.605 5.58753L101.25 7.98206L96.511 8.38147L95.1569 9.17981L93.8027 9.17981L93.1256 9.97766L91.7715 10.776L90.4172 9.57874L88.3861 9.57874L87.709 8.38147L86.3549 9.57874L84.3236 8.7804L82.2925 9.17981L81.6154 8.7804L80.2612 8.38147L79.5841 8.7804L78.907 8.7804L78.23 8.38147L78.23 9.17981L76.8757 8.7804L76.1987 9.57874L72.1362 8.7804L70.105 6.78479L68.7509 7.18421L67.3967 7.18421L68.0737 7.58313L67.3967 7.58313L66.7196 8.38147L66.0426 8.38147L66.7196 7.98206L66.0426 7.58313L65.3655 7.58313L65.3655 7.18421L64.6885 7.58313L63.3343 6.78479L63.3343 6.38587L62.6572 6.38587L61.9801 5.98645L61.3031 6.38587L61.3031 6.78479L60.626 6.38587L60.626 6.78479L59.9489 6.78479L59.9489 6.38587L59.2718 5.98646L59.2718 6.78479L57.9176 6.38587L57.9176 6.7848L57.2406 6.38587L56.5635 6.38587L57.2406 6.7848L56.5635 7.18421L55.8865 7.18421L54.4299 7.40638L53.8552 7.98206L53.6843 7.40638L52.1931 7.85901L52.1931 7.40638L51.4475 7.18421L50.7019 7.40638L49.9563 7.85901L48.4651 6.95374L49.2107 6.5011L47.7194 6.5011L46.9738 6.04847L46.4073 5.98646L45.5035 6.33655L44.7579 6.33655L44.7579 6.78919L44.0123 6.78919L43.2667 7.24183L42.5211 6.78919L42.0995 6.50111L41.7755 6.78919L41.0299 6.78919L41.0299 6.33655L40.2843 6.33655L39.5387 6.04847L38.8643 6.04847L38.4009 6.50111L38.0475 6.33655L37.3019 6.55189L36.5562 6.33655L36.5562 6.78919L35.8105 7.24183L35.8105 7.00452L34.8707 7.24183L35.0649 7.00452L34.3193 7.00452L33.9288 7.40638L33.5737 7.45716L32.8071 7.40638L29.079 8.38148L27.5878 10.1217L23.8597 9.57874L23.3989 9.66908L22.6533 10.1217L21.9077 9.66908L20.8983 10.4098L20.4164 10.5743L19.6708 10.5743L19.6708 11.027L18.3337 11.1749L18.1796 10.5743L17.434 10.5743L17.1492 10.1217L16.4036 10.1217L15.658 9.66908L14.5608 9.57874L14.1667 9.21644L13.4211 9.57874L12.6755 8.7638L11.9298 8.7638L11.9298 8.31165L10.4386 8.31165L9.47009 7.18421L-1.5932e-06 10.776L0 29.0001L1512 29Z" />
</svg>

