<svg preserveAspectRatio="none" height="29" viewBox="0 0 1512 29" xmlns="http://www.w3.org/2000/svg">
<path d="M0 0V18.2241L15.311 23.0132H29.665L35.4065 29L38.2773 27.0044L41.1482 26.2061H44.9761L48.8037 25.0088H52.6313L56.4592 24.2104L59.3301 25.0088H62.2007L66.9854 23.4126L68.8994 21.0176L75.5979 20.6187L77.5117 19.8203H79.4255L80.3826 19.022L82.2964 18.2241L84.2102 19.4214H87.0811L88.0381 20.6187L89.9519 19.4214L92.8228 20.2197L95.6934 19.8203L96.6504 20.2197L98.5642 20.6187L99.5212 20.2197H100.478L101.435 20.6187V19.8203L103.349 20.2197L104.306 19.4214L110.047 20.2197L112.918 22.2153L114.832 21.8159H116.746L115.789 21.417H116.746L117.703 20.6187H118.66L117.703 21.0176L118.66 21.417H119.617V21.8159L120.574 21.417L122.488 22.2153V22.6143H123.445L124.401 23.0132L125.358 22.6143V22.2153L126.315 22.6143V22.2153H127.272V22.6143L128.229 23.0132V22.2153L130.143 22.6143V22.2153L131.1 22.6143H132.057L131.1 22.2153L132.057 21.8159H133.014L135.072 21.5938L135.885 21.0176L136.126 21.5938L138.234 21.1411V21.5938L139.288 21.8159L140.341 21.5938L141.395 21.1411L143.503 22.0464L142.449 22.499H144.557L145.61 22.9517L146.411 23.0132L147.688 22.6636H148.742V22.2109H149.796L150.85 21.7583L151.904 22.2109L152.5 22.499L152.957 22.2109H154.011V22.6636H155.065L156.119 22.9517H157.072L157.727 22.499L158.226 22.6636L159.28 22.4478L160.334 22.6636V22.2109L161.388 21.7583V21.9951L162.716 21.7583L162.441 21.9951H163.495L164.047 21.5938L164.549 21.5425L165.633 21.5938L170.902 20.6187L173.009 18.8784L178.278 19.4214L178.93 19.3306L179.983 18.8784L181.037 19.3306L182.464 18.5903L183.145 18.4258H184.198V17.9731L186.088 17.8247L186.306 18.4258H187.36L187.762 18.8784H188.816L189.87 19.3306L191.421 19.4214L191.978 19.7832L193.031 19.4214L194.085 20.2358H195.139V20.6885H197.247L198.615 21.8159L212 18.2241L222.833 23.0132H232.989L237.052 29L239.083 27.0044L241.114 26.2061H243.823L246.531 25.0088H249.239L251.948 24.2104L253.979 25.0088H256.01L259.396 23.4126L260.75 21.0176L265.489 20.6187L266.843 19.8203H268.197L268.875 19.022L270.229 18.2241L271.583 19.4214H273.614L274.291 20.6187L275.645 19.4214L277.677 20.2197L279.708 19.8203L280.385 20.2197L281.739 20.6187L282.416 20.2197H283.093L283.77 20.6187V19.8203L285.124 20.2197L285.801 19.4214L289.864 20.2197L291.895 22.2153L293.249 21.8159H294.603L293.926 21.417H294.603L295.28 20.6187H295.958L295.28 21.0176L295.958 21.417H296.635V21.8159L297.312 21.417L298.666 22.2153V22.6143H299.343L300.02 23.0132L300.697 22.6143V22.2153L301.374 22.6143V22.2153H302.051V22.6143L302.728 23.0132V22.2153L304.082 22.6143V22.2153L304.76 22.6143H305.437L304.76 22.2153L305.437 21.8159H306.114L307.57 21.5938L308.145 21.0176L308.316 21.5938L309.807 21.1411V21.5938L310.552 21.8159L311.298 21.5938L312.044 21.1411L313.535 22.0464L312.789 22.499H314.281L315.026 22.9517L315.593 23.0132L316.496 22.6636H317.242V22.2109H317.988L318.733 21.7583L319.479 22.2109L319.9 22.499L320.225 22.2109H320.97V22.6636H321.716L322.461 22.9517H323.136L323.599 22.499L323.953 22.6636L324.698 22.4478L325.444 22.6636V22.2109L326.189 21.7583V21.9951L327.129 21.7583L326.935 21.9951H327.681L328.071 21.5938L328.426 21.5425L329.193 21.5938L332.921 20.6187L334.412 18.8784L338.14 19.4214L338.601 19.3306L339.347 18.8784L340.092 19.3306L341.102 18.5903L341.583 18.4258H342.329V17.9731L343.666 17.8247L343.82 18.4258H344.566L344.851 18.8784H345.596L346.342 19.3306L347.439 19.4214L347.833 19.7832L348.579 19.4214L349.324 20.2358H350.07V20.6885H351.561L352.53 21.8159L362 18.2241L372.833 23.0132H382.989L387.052 29L389.083 27.0044L391.114 26.2061H393.823L396.531 25.0088H399.239L401.948 24.2104L403.979 25.0088H406.01L409.396 23.4126L410.75 21.0176L415.489 20.6187L416.843 19.8203H418.197L418.875 19.0225L420.229 18.2241L421.583 19.4214H423.614L424.291 20.6187L425.645 19.4214L427.677 20.2197L429.708 19.8203L430.385 20.2197L431.739 20.6187L432.416 20.2197H433.093L433.77 20.6187V19.8203L435.124 20.2197L435.801 19.4214L439.864 20.2197L441.895 22.2153L443.249 21.8159H444.603L443.926 21.417H444.603L445.28 20.6187H445.958L445.28 21.0176L445.958 21.417H446.635V21.8159L447.312 21.417L448.666 22.2153V22.6143H449.343L450.02 23.0132L450.697 22.6143V22.2153L451.374 22.6143V22.2153H452.051V22.6143L452.728 23.0132V22.2153L454.082 22.6143V22.2153L454.76 22.6143H455.437L454.76 22.2153L455.437 21.8159H456.114L457.57 21.5938L458.145 21.0176L458.316 21.5938L459.807 21.1411V21.5938L460.552 21.8159L461.298 21.5938L462.044 21.1411L463.535 22.0464L462.789 22.499H464.281L465.026 22.9517L465.593 23.0132L466.496 22.6636H467.242V22.2109H467.988L468.733 21.7583L469.479 22.2109L469.9 22.499L470.225 22.2109H470.97V22.6636H471.716L472.461 22.9517H473.136L473.599 22.499L473.953 22.6636L474.698 22.4478L475.444 22.6636V22.2109L476.189 21.7583V21.9951L477.129 21.7583L476.935 21.9951H477.681L478.071 21.5938L478.426 21.5425L479.193 21.5938L482.921 20.6187L484.412 18.8784L488.14 19.4214L488.601 19.3311L489.347 18.8784L490.092 19.3311L491.102 18.5903L491.583 18.4258H492.329V17.9731L493.666 17.8247L493.82 18.4258H494.566L494.851 18.8784H495.596L496.342 19.3311L497.439 19.4214L497.833 19.7832L498.579 19.4214L499.324 20.2358H500.07V20.6885H501.561L502.53 21.8159L512 18.2241L521.678 23.0132H530.75L534.38 29L536.194 27.0044L538.009 26.2061H540.428L542.848 25.0088H545.267L547.687 24.2109L549.501 25.0088H551.315L554.34 23.4126L555.55 21.0176L559.783 20.6187L560.993 19.8203H562.203L562.808 19.0225L564.018 18.2241L565.227 19.4214H567.042L567.647 20.6187L568.856 19.4214L570.671 20.2197L572.485 19.8203L573.09 20.2197L574.3 20.6187L574.905 20.2197H575.51L576.115 20.6187V19.8203L577.324 20.2197L577.929 19.4214L581.558 20.2197L583.373 22.2153L584.583 21.8159H585.792L585.188 21.417H585.792L586.397 20.6187H587.002L586.397 21.0176L587.002 21.417H587.607V21.8159L588.212 21.417L589.421 22.2153V22.6143H590.026L590.631 23.0132L591.236 22.6143V22.2153L591.841 22.6143V22.2153H592.446V22.6143L593.051 23.0132V22.2153L594.26 22.6143V22.2153L594.865 22.6143H595.47L594.865 22.2153L595.47 21.8159H596.075L597.376 21.5938L597.889 21.0176L598.042 21.5938L599.374 21.1411V21.5938L600.04 21.8159L600.706 21.5938L601.372 21.1411L602.705 22.0464L602.039 22.499H603.371L604.037 22.9517L604.543 23.0132L605.35 22.6636H606.016V22.2109H606.682L607.348 21.7583L608.014 22.2109L608.391 22.499L608.681 22.2109H609.347V22.6636H610.013L610.679 22.9517H611.281L611.695 22.499L612.011 22.6636L612.677 22.4478L613.343 22.6636V22.2109L614.009 21.7583V21.9951L614.849 21.7583L614.675 21.9951H615.341L615.69 21.5938L616.007 21.543L616.692 21.5938L620.023 20.6187L621.355 18.8784L624.685 19.4214L625.097 19.3311L625.763 18.8784L626.429 19.3311L627.331 18.5903L627.761 18.4258H628.427V17.9731L629.622 17.8247L629.76 18.4258H630.426L630.68 18.8784H631.346L632.012 19.3311L632.992 19.4214L633.344 19.7832L634.01 19.4214L634.677 20.2358H635.343V20.6885H636.675L637.54 21.8159L646 18.2241L665.211 23.0132H683.221L690.425 29L694.027 27.0044L697.629 26.2061H702.432L707.235 25.0088H712.038L716.84 24.2109L720.442 25.0088H724.044L730.048 23.4126L732.449 21.0176L740.854 20.6187L743.255 19.8203H745.656L746.857 19.0225L749.259 18.2241L751.66 19.4214H755.262L756.463 20.6187L758.864 19.4214L762.466 20.2197L766.068 19.8203L767.269 20.2197L769.67 20.6187L770.871 20.2197H772.072L773.272 20.6187V19.8203L775.674 20.2197L776.874 19.4214L784.078 20.2197L787.68 22.2153L790.082 21.8159H792.483L791.282 21.417H792.483L793.684 20.6187H794.885L793.684 21.0176L794.885 21.417H796.085V21.8159L797.286 21.417L799.687 22.2153V22.6143H800.888L802.089 23.0132L803.289 22.6143V22.2153L804.49 22.6143V22.2153H805.691V22.6143L806.891 23.0132V22.2153L809.293 22.6143V22.2153L810.493 22.6143H811.694L810.493 22.2153L811.694 21.8159H812.895L815.478 21.5938L816.497 21.0176L816.8 21.5938L819.444 21.1411V21.5938L820.767 21.8159L822.089 21.5938L823.411 21.1411L826.055 22.0464L824.733 22.499H827.377L828.7 22.9517L829.704 23.0132L831.307 22.6636H832.629V22.2109H833.951L835.274 21.7583L836.596 22.2109L837.344 22.499L837.918 22.2109H839.24V22.6636H840.562L841.885 22.9517H843.081L843.902 22.499L844.529 22.6636L845.852 22.4478L847.174 22.6636V22.2109L848.496 21.7583V21.9951L850.163 21.7583L849.818 21.9951H851.14L851.833 21.5938L852.463 21.543L853.822 21.5938L860.433 20.6187L863.078 18.8784L869.689 19.4214L870.506 19.3311L871.828 18.8784L873.15 19.3311L874.94 18.5903L875.795 18.4258H877.117V17.9731L879.488 17.8247L879.761 18.4258H881.084L881.589 18.8784H882.911L884.233 19.3311L886.179 19.4214L886.878 19.7832L888.2 19.4214L889.522 20.2358H890.844V20.6885H893.489L895.206 21.8159L912 18.2241L921.47 21.8159L922.438 20.6885H923.93V20.2358H924.676L925.421 19.4214L926.167 19.7837L926.561 19.4214L927.658 19.3311L928.404 18.8784H929.149L929.434 18.4258H930.18L930.334 17.8247L931.671 17.9731V18.4258H932.417L932.898 18.5903L933.908 19.3311L934.653 18.8784L935.399 19.3311L935.86 19.4214L939.588 18.8784L941.079 20.6187L944.807 21.5938L945.574 21.543L945.929 21.5938L946.319 21.9951H947.065L946.871 21.7583L947.811 21.9951V21.7583L948.556 22.2109V22.6636L949.302 22.4478L950.047 22.6636L950.401 22.499L950.864 22.9517H951.539L952.284 22.6636H953.03V22.2109H953.775L954.099 22.499L954.521 22.2109L955.267 21.7583L956.012 22.2109H956.758V22.6636H957.503L958.407 23.0132L958.974 22.9517L959.719 22.499H961.211L960.465 22.0464L961.956 21.1411L962.702 21.5938L963.448 21.8159L964.193 21.5938V21.1411L965.684 21.5938L965.855 21.0181L966.43 21.5938L967.886 21.8159H968.563L969.24 22.2153L968.563 22.6143H969.24L969.917 22.2153V22.6143L971.272 22.2153V23.0132L971.949 22.6143V22.2153H972.626V22.6143L973.303 22.2153V22.6143L973.98 23.0132L974.657 22.6143H975.334V22.2153L976.688 21.417L977.365 21.8159V21.417H978.042L978.72 21.0181L978.042 20.6187H978.72L979.397 21.417H980.074L979.397 21.8159H980.751L982.105 22.2153L984.136 20.2197L988.199 19.4214L988.876 20.2197L990.23 19.8203V20.6187L990.907 20.2197H991.584L992.261 20.6187L993.615 20.2197L994.292 19.8203L996.323 20.2197L998.355 19.4214L999.709 20.6187L1000.39 19.4214H1002.42L1003.77 18.2241L1005.13 19.0225L1005.8 19.8203H1007.16L1008.51 20.6187L1013.25 21.0181L1014.6 23.4126L1017.99 25.0088H1020.02L1022.05 24.2109L1024.76 25.0088H1027.47L1030.18 26.2061H1032.89L1034.92 27.0044L1036.95 29L1041.01 23.0132H1051.17L1062 18.2241L1072.83 23.0132H1082.99L1087.05 29L1089.08 27.0044L1091.11 26.2065H1093.82L1096.53 25.0088H1099.24L1101.95 24.2109L1103.98 25.0088H1106.01L1109.4 23.4126L1110.75 21.0181L1115.49 20.6187L1116.84 19.8203H1118.2L1118.87 19.0225L1120.23 18.2241L1121.58 19.4214H1123.61L1124.29 20.6187L1125.65 19.4214L1127.68 20.2197L1129.71 19.8203L1130.38 20.2197L1131.74 20.6187L1132.42 20.2197H1133.09L1133.77 20.6187V19.8203L1135.12 20.2197L1135.8 19.4214L1139.86 20.2197L1141.9 22.2153L1143.25 21.8159H1144.6L1143.93 21.417H1144.6L1145.28 20.6187H1145.96L1145.28 21.0181L1145.96 21.417H1146.63V21.8159L1147.31 21.417L1148.67 22.2153V22.6143H1149.34L1150.02 23.0132L1150.7 22.6143V22.2153L1151.37 22.6143V22.2153H1152.05V22.6143L1152.73 23.0132V22.2153L1154.08 22.6143V22.2153L1154.76 22.6143H1155.44L1154.76 22.2153L1155.44 21.8159H1156.11L1157.57 21.5938L1158.14 21.0181L1158.32 21.5938L1159.81 21.1411V21.5938L1160.55 21.8159L1161.3 21.5938L1162.04 21.1411L1163.53 22.0464L1162.79 22.499H1164.28L1165.03 22.9517L1165.59 23.0132L1166.5 22.6636H1167.24V22.2109H1167.99L1168.73 21.7583L1169.48 22.2109L1169.9 22.499L1170.22 22.2109H1170.97V22.6636H1171.72L1172.46 22.9517H1173.14L1173.6 22.499L1173.95 22.6636L1174.7 22.4478L1175.44 22.6636V22.2109L1176.19 21.7583V21.9956L1177.13 21.7583L1176.94 21.9956H1177.68L1178.07 21.5938L1178.43 21.543L1179.19 21.5938L1182.92 20.6187L1184.41 18.8784L1188.14 19.4214L1188.6 19.3311L1189.35 18.8784L1190.09 19.3311L1191.1 18.5903L1191.58 18.4258H1192.33V17.9731L1193.67 17.8252L1193.82 18.4258H1194.57L1194.85 18.8784H1195.6L1196.34 19.3311L1197.44 19.4214L1197.83 19.7837L1198.58 19.4214L1199.32 20.2358H1200.07V20.6885H1201.56L1202.53 21.8159L1212 18.2241L1222.83 23.0132H1232.99L1237.05 29L1239.08 27.0044L1241.11 26.2065H1243.82L1246.53 25.0088H1249.24L1251.95 24.2109L1253.98 25.0088H1256.01L1259.4 23.4126L1260.75 21.0181L1265.49 20.6187L1266.84 19.8203H1268.2L1268.87 19.0225L1270.23 18.2241L1271.58 19.4214H1273.61L1274.29 20.6187L1275.65 19.4214L1277.68 20.2197L1279.71 19.8203L1280.38 20.2197L1281.74 20.6187L1282.42 20.2197H1283.09L1283.77 20.6187V19.8203L1285.12 20.2197L1285.8 19.4214L1289.86 20.2197L1291.9 22.2153L1293.25 21.8159H1294.6L1293.93 21.417H1294.6L1295.28 20.6187H1295.96L1295.28 21.0181L1295.96 21.417H1296.63V21.8159L1297.31 21.417L1298.67 22.2153V22.6143H1299.34L1300.02 23.0132L1300.7 22.6143V22.2153L1301.37 22.6143V22.2153H1302.05V22.6143L1302.73 23.0132V22.2153L1304.08 22.6143V22.2153L1304.76 22.6143H1305.44L1304.76 22.2153L1305.44 21.8159H1306.11L1307.57 21.5938L1308.14 21.0181L1308.32 21.5938L1309.81 21.1411V21.5938L1310.55 21.8159L1311.3 21.5938L1312.04 21.1411L1313.53 22.0464L1312.79 22.499H1314.28L1315.03 22.9517L1315.59 23.0137L1316.5 22.6636H1317.24V22.2109H1317.99L1318.73 21.7583L1319.48 22.2109L1319.9 22.499L1320.22 22.2109H1320.97V22.6636H1321.72L1322.46 22.9517H1323.14L1323.6 22.499L1323.95 22.6636L1324.7 22.4478L1325.44 22.6636V22.2109L1326.19 21.7583V21.9956L1327.13 21.7583L1326.94 21.9956H1327.68L1328.07 21.5938L1328.43 21.543L1329.19 21.5938L1332.92 20.6187L1334.41 18.8784L1338.14 19.4214L1338.6 19.3311L1339.35 18.8784L1340.09 19.3311L1341.1 18.5903L1341.58 18.4258H1342.33V17.9731L1343.67 17.8252L1343.82 18.4258H1344.57L1344.85 18.8784H1345.6L1346.34 19.3311L1347.44 19.4214L1347.83 19.7837L1348.58 19.4214L1349.32 20.2363H1350.07V20.6885H1351.56L1352.53 21.8159L1362 18.2241L1372.83 23.0137H1382.99L1387.05 29L1389.08 27.0044L1391.11 26.2065H1393.82L1396.53 25.0088H1399.24L1401.95 24.2109L1403.98 25.0088H1406.01L1409.4 23.4126L1410.75 21.0181L1415.49 20.6187L1416.84 19.8203H1418.2L1418.87 19.0225L1420.23 18.2241L1421.58 19.4214H1423.61L1424.29 20.6187L1425.65 19.4214L1427.68 20.2197L1429.71 19.8203L1430.38 20.2197L1431.74 20.6187L1432.42 20.2197H1433.09L1433.77 20.6187V19.8203L1435.12 20.2197L1435.8 19.4214L1439.86 20.2197L1441.9 22.2153L1443.25 21.8159H1444.6L1443.93 21.417H1444.6L1445.28 20.6187H1445.96L1445.28 21.0181L1445.96 21.417H1446.63V21.8159L1447.31 21.417L1448.67 22.2153V22.6143H1449.34L1450.02 23.0137L1450.7 22.6143V22.2153L1451.37 22.6143V22.2153H1452.05V22.6143L1452.73 23.0137V22.2153L1454.08 22.6143V22.2153L1454.76 22.6143H1455.44L1454.76 22.2153L1455.44 21.8159H1456.11L1457.57 21.5938L1458.14 21.0181L1458.32 21.5938L1459.81 21.1411V21.5938L1460.55 21.8159L1461.3 21.5938L1462.04 21.1411L1463.53 22.0464L1462.79 22.499H1464.28L1465.03 22.9517L1465.59 23.0137L1466.5 22.6636H1467.24V22.2109H1467.99L1468.73 21.7583L1469.48 22.2109L1469.9 22.499L1470.22 22.2109H1470.97V22.6636H1471.72L1472.46 22.9517H1473.14L1473.6 22.499L1473.95 22.6636L1474.7 22.4482L1475.44 22.6636V22.2109L1476.19 21.7583V21.9956L1477.13 21.7583L1476.94 21.9956H1477.68L1478.07 21.5938L1478.43 21.543L1479.19 21.5938L1482.92 20.6187L1484.41 18.8784L1488.14 19.4214L1488.6 19.3311L1489.35 18.8784L1490.09 19.3311L1491.1 18.5903L1491.58 18.4258H1492.33V17.9731L1493.67 17.8252L1493.82 18.4258H1494.57L1494.85 18.8784H1495.6L1496.34 19.3311L1497.44 19.4214L1497.83 19.7837L1498.58 19.4214L1499.32 20.2363H1500.07V20.6885H1501.56L1502.53 21.8159L1512 18.2241V0H0Z"/>
</svg>
