<svg width="506" height="352" viewBox="0 0 506 352" fill="none" xmlns="http://www.w3.org/2000/svg">
<path opacity="0.8" d="M0 286.748L3.70545 295.453H10.2929V303.931H16.4687L19.3507 308.473L25.9382 307.338L29.2319 311.88L36.2311 307.338L38.7014 303.931L42.4068 308.473L51.0529 315.286H61.7575L66.2864 323.991L69.5801 332.697L72.0504 336.482L78.6379 335.346L81.9317 338.374L86.8723 342.916L91.8129 341.024L94.2832 344.809L101.694 346.323L99.2238 347.837L104.988 348.972L107.87 352L111.987 347.837L118.163 348.972L125.162 346.323L129.691 341.781L142.042 344.809L146.571 348.972L150.688 341.781L158.099 336.86L166.745 339.464L168.804 331.516L179.097 335.346V338.753L186.919 335.346L195.154 339.464L206.682 338.753L205.858 333.075L212.446 335.346L214.504 329.669L223.974 331.516L229.326 328.155H240.443L242.501 331.516H247.442L250.324 333.832L253.206 328.912L258.97 326.595L265.146 331.516L271.733 329.669L275.439 335.346H283.673V331.516L289.025 335.346L297.26 333.075L300.553 337.239L307.141 336.482L308.788 340.267L312.905 342.538L315.375 339.464H320.727L326.903 342.538L333.079 340.267L336.784 343.295L340.902 342.538V345.944L345.842 348.972L353.665 341.781H361.899L358.194 336.482L363.134 331.183L364.781 336.482L368.898 334.968L374.662 337.239V341.781L382.073 340.267L387.014 343.295L391.954 339.51L398.954 340.267L405.129 336.482L403.483 333.832L410.482 334.968V330.047L417.893 332.697L426.95 328.533L434.361 330.804L436.008 333.832L436.42 333.454L439.714 334.589L438.478 337.617H442.184L443.831 335.346L446.301 337.239L446.713 335.725L448.36 335.346V333.832L450.83 332.697L453.3 333.832V334.968L455.359 334.589L457.006 331.183L459.064 333.832L461.123 331.561L460.299 330.047L461.946 328.533L462.77 331.183V322.856H466.887V311.501L475.121 305.824L466.887 299.389V288.791L472.651 287.656L472.239 281.978L479.238 280.086L482.532 276.68L480.885 271.759L483.356 269.867L487.884 271.759L492.413 267.217L491.178 263.811L493.648 259.647L497.354 258.89L499.001 256.998L497.354 256.619L496.119 254.727L497.354 252.834L499.001 250.185L497.354 247.914L499.413 246.4L496.119 244.886L495.295 242.615L497.354 241.101L493.237 240.723V238.452L492.002 236.559L494.06 236.181L491.59 234.288L492.002 232.396H493.648L495.295 230.125L496.53 226.718L493.237 224.069L494.472 219.527L491.178 215.363L491.59 211.2H495.295L498.177 207.794L494.884 206.658L491.59 204.009L490.355 201.738L494.472 199.467L492.002 197.574L492.825 194.168L491.178 192.275L496.942 187.733V185.084L494.472 183.57L496.119 182.056H499.413L501.471 179.785L500.236 177.135H504.353L503.53 174.486L506 175.243V171.837L504.353 168.809H500.236L501.059 165.402L498.177 163.51L497.354 161.617L498.589 161.239L500.236 159.346L498.177 158.211L496.119 153.669L494.472 147.991L499.413 147.234L503.53 139.665L496.942 140.8L492.002 136.637L485.414 127.931L484.179 122.254L482.12 113.927H473.063L468.534 103.329L477.18 97.6516L473.063 93.1097L470.181 84.4043L473.063 77.5914L470.181 74.1849L472.651 70.0215L466.887 68.886V66.2366L469.357 62.8301L467.71 58.6667L473.063 55.2602L467.71 52.2323L465.24 46.5548L466.887 42.3914L463.181 37.8495L457.829 34.0645L455.359 37.4709L454.535 32.5506L451.242 27.6301L450.418 21.1957L453.712 16.6538L448.36 13.6258L446.301 5.29895L443.007 6.81293L442.184 9.46237L438.89 8.32693L438.067 3.78494L433.95 0.756989L429.832 3.78494L425.715 1.1355L425.304 3.40649H422.833L421.598 5.29895L419.539 3.78494L419.951 2.271L418.716 1.1355H416.657L415.422 2.271H414.187L413.364 1.51401H411.717L410.482 1.89249L410.07 3.02798L409.658 2.271L408.423 1.89249H407.188L406.776 2.64944V1.51401H405.541L404.306 0.756989L403.483 1.51401L402.659 1.89249L401.424 1.51401L401.012 2.271V2.64944L400.6 3.02798H399.777L399.365 3.78494L398.542 4.16345V4.92044L397.718 4.54193V4.16345H396.895L396.483 3.78494L396.072 4.54193L395.248 4.16345L394.836 4.92044L394.013 5.67743L393.19 6.43442H394.836L394.425 6.81293L393.19 7.56989L392.366 8.32693L391.131 8.70538L389.896 8.32693L388.249 9.46237L386.602 8.32693L384.955 7.56989L383.72 8.70538V7.94839L382.073 7.56989L381.662 8.32693L380.838 8.70538L379.603 8.32693L378.78 8.70538L378.368 7.94839H377.133L377.544 7.56989V6.81293L377.133 6.43442L376.721 6.81293L376.309 6.43442V6.05594H375.486V5.29895L375.074 5.67743L374.662 5.29895H373.839L371.78 4.92044H370.545L370.133 6.05594L369.31 5.67743L368.898 4.92044H367.251L366.428 4.16345L365.193 4.92044L364.369 4.54193L364.781 5.29895H363.546L363.134 4.92044L361.899 5.67743L361.487 5.29895L360.664 6.05594L360.252 5.67743L359.841 6.43442L358.194 6.81293L357.782 6.43442V5.67743L356.958 5.29895L356.135 6.05594L356.547 6.43442H355.723L355.312 6.05594L354.488 6.81293L353.665 6.43442V5.67743H353.253L353.665 4.92044V4.54193L352.841 3.78494L352.43 4.16345L349.548 5.29895L347.489 4.54193L345.842 6.81293L344.607 5.67743L341.725 4.92044L339.666 6.05594L338.02 6.43442L335.961 5.67743L336.373 4.16345L334.314 4.54193L333.079 3.02798L331.844 4.16345L330.609 3.02798L328.962 3.40649V1.89249L326.903 2.271L326.491 3.02798H324.845L323.609 2.271L322.374 1.51401L320.727 2.64944L319.904 1.89249H317.845L318.257 3.02798L316.61 2.271L317.022 3.40649H315.787L314.963 4.16345V4.92044L313.728 4.54193V3.78494L312.493 4.16345L312.905 3.02798L311.67 3.40649L310.846 3.78494L310.434 3.02798L309.199 2.64944L309.611 1.89249L307.964 2.271V1.89249L307.552 1.1355L307.141 0.756989L306.317 1.89249V1.1355H305.494H304.67L304.259 1.51401L303.435 1.1355V0.37851L303.024 0.756989L302.2 0L300.965 1.51401L301.788 2.271L300.553 3.02798L300.142 2.271L298.906 1.51401L296.848 1.89249L294.789 3.02798L295.201 4.16345L293.966 3.02798L292.731 3.78494L293.142 4.92044L292.165 6.05594L291.496 4.92044V4.16345H289.849L289.437 4.92044H288.202L287.636 4.16345L286.143 4.92044V6.43442L285.32 6.62366L284.908 7.56989L285.32 8.32693L284.496 8.70538V9.27313L282.438 9.08389L281.203 10.2193H279.556L277.909 9.27313V10.9763L276.262 10.2193L275.439 12.1118L274.615 10.9763H273.38L272.557 11.7333L271.321 10.5979V9.27313L269.263 9.84088L268.851 10.9763L268.028 10.5979H266.793V11.3548L265.557 12.1118L265.146 11.3548L264.322 10.9763L263.499 11.3548V10.2193H262.264L261.44 9.27313L260.617 9.84088L261.028 10.5979L259.793 10.2193L258.558 10.5979V11.3548L257.323 11.7333L256.5 10.9763V10.2193L256.088 9.84088L255.676 9.46237H254.853V10.2193L253.618 9.84088V8.70538L252.794 8.32693V7.56989H251.559L248.265 9.84088H244.56L243.325 8.32693L240.031 10.2193V12.1118L236.737 12.4903L234.267 10.5979L230.561 12.1118L229.738 10.9763L228.915 13.6258L226.444 11.7333L227.268 14.3828L223.974 13.6258L221.092 14.1725L220.269 12.8688L217.798 12.1118L216.151 13.6258L214.504 11.7333L213.269 9.25211L210.799 10.9763L209.152 9.46237L207.917 7.56989H205.858L204.623 9.84088L202.976 8.32693V6.43442L200.506 7.94839L198.036 6.81293L196.801 5.29895L198.448 3.78494L195.154 4.16345L193.919 3.02798L193.095 4.16345L190.213 5.29895L188.566 4.16345L186.096 3.78494L185.273 4.92044L182.391 4.16345L181.155 5.29895L181.567 6.43442L179.097 6.81293L177.45 5.67743L175.803 6.43442L174.568 5.29895L172.921 6.81293L171.686 5.67743L170.862 8.32693L170.039 6.43442L167.98 6.05594L168.392 8.32693L166.745 8.70538L165.51 10.2193L163.863 8.70538L161.805 11.3548L161.393 9.84088L158.923 12.1118L156.452 11.7333L158.099 13.6258L155.217 12.8688L154.394 15.1398L152.747 12.8688L152.335 10.9763L149.453 12.8688L147.806 11.3548L147.395 12.8688L146.571 10.5979L143.277 9.46237L141.631 10.2193L142.042 12.1118L138.749 11.7333L137.102 10.2193L136.278 12.1118L133.808 10.9763L134.22 9.46237L130.926 9.08389L129.279 10.9763L128.044 9.46237L127.632 7.56989L125.162 9.08389L123.515 7.94839L122.28 9.46237L119.398 7.94839L121.045 6.05594L118.986 4.92044L116.516 5.67743L116.928 3.78494L114.457 4.54193L112.399 3.40649L111.575 2.271L108.282 3.78494L105.811 1.89249H103.341L102.929 4.92044L99.6355 6.43442L96.7535 3.78494L93.4597 6.43442L91.8129 4.92044L88.9308 7.56989L84.8137 7.94839L82.3434 10.2193L79.8731 8.32693L80.6965 10.2193L78.6379 12.1118L77.4028 10.2193H73.6973L70.8153 11.7333L71.6387 14.3828L69.1684 15.1398L67.5216 14.0043L67.9333 10.9763H65.463L62.581 12.1118L62.1692 10.2193L62.9927 8.32693H60.9341L59.2872 9.46237L57.2286 8.32693L55.1701 7.94839L53.5232 9.46237L51.8763 9.84088L50.6412 8.32693L48.9943 9.46237L48.5826 10.9763L46.524 11.3548L45.7006 9.84088L44.4654 9.46237L43.2303 11.3548L41.5834 9.46237L39.9365 9.84088L39.1131 10.9763L38.7014 10.2193L37.8779 10.5979H36.6428L37.0545 11.3548L36.2311 12.1118L37.0545 12.4903L36.6428 13.2473H35.4076L34.5842 14.0043L33.7608 15.1398L32.5256 14.7613L32.1139 15.5183L31.2905 15.1398L30.467 15.8968H29.6436L29.2319 15.1398L27.9967 14.3828L27.585 15.8968L26.7616 15.5183H25.9382L25.5264 14.7613H25.1147L25.5264 14.0043L25.1147 13.6258L24.2913 12.8688H23.0561V13.6258L21.4093 13.2473L20.5858 12.3394L20.1741 13.4749H19.7624L19.1083 13.2473L18.5273 13.8535L17.7038 14.6104L16.8804 13.6258L16.4687 14.989H15.2335L13.9984 15.8968L13.5867 17.0323V17.7892H13.9984L13.1749 18.5462L12.3515 18.1677V18.9247L11.9398 19.6817V20.4387L11.1164 20.8172V21.5742L11.9398 21.9527H11.5281L10.7046 23.0882V24.2237L11.1164 25.7377H9.46949L9.8812 26.8731L8.64605 27.2516V28.0086L8.23434 28.3871L8.64605 29.5226L7.82262 30.6581H9.05777L9.46949 31.7935L9.05777 32.929H8.23434L9.05777 34.443L7.82262 35.957L9.46949 37.4709L7.4109 38.228V39.7419L7.82262 42.0129H9.05777V43.5269L7.82262 45.4193L5.35232 46.9333L7.4109 48.8258V51.4753L8.23434 52.9893L7.82262 54.5032H9.05777L9.46949 56.0172L7.82262 56.3957L8.64605 58.2882L7.4109 58.6667L8.64605 59.4236L8.23434 61.3161L9.05777 63.2086L10.7046 62.8301L11.1164 64.3441L10.7046 65.8581H11.9398L11.5281 67.7505L13.1749 68.5075V70.0215L14.4101 70.7785V72.2925L13.5867 73.0495L13.9984 74.1849L13.1749 74.942H12.3515L13.1749 76.4559L12.5574 77.5914L12.7632 79.1054L13.5867 79.8624L11.9398 80.2408L12.7632 81.7549L14.8218 82.1333L16.4687 84.0258L16.057 85.9183L14.8218 87.0538L12.7632 87.4323L13.5867 88.9463L11.7339 89.3247L11.5281 90.0817L11.9398 91.2978L10.7046 91.9742L11.9398 93.1097L11.1164 94.6237V96.1376L9.46949 96.5161H7.82262V98.0301L5.35232 97.2731L5.76404 98.7871L6.99919 99.9226L6.17575 100.979L4.9406 101.286L6.17575 103.329L7.82262 103.708L8.23434 105.221L6.17575 106.585L7.4109 107.114V108.628L8.64605 109.991L6.58747 109.613L5.76404 111.505L6.99919 113.019L5.35232 112.262L5.76404 114.533L3.29373 115.29L6.58747 117.182L5.76404 120.21L6.58747 120.589L5.76404 123.995L7.4109 124.752L8.64605 125.131L8.23434 127.023L9.46949 127.78L10.2929 129.673L9.46949 131.187L7.4109 132.701L9.05777 133.458L9.46949 136.107V138L11.1164 139.135L9.05777 140.271L8.64605 141.785L6.58747 142.92L5.76404 145.57L6.17575 149.354L8.64605 149.733L4.9406 152.761L5.76404 155.032L7.82262 158.817L11.1164 160.331L7.82262 164.873L4.9406 164.116L9.46949 167.522V172.821L13.9984 172.064L15.6452 173.957L15.2335 178.499L11.9398 180.013L8.64605 181.905L13.9984 183.419L15.2335 187.582L12.7632 190.989V196.288L9.46949 197.423L11.9398 201.587L9.46949 203.858H5.76404L9.46949 209.157L10.7046 212.185L6.17575 215.213L2.05858 215.97L6.17575 219.376L6.58747 223.539L3.70545 228.46L0 227.703L3.70545 234.137L10.2929 235.651V242.086L3.70545 249.277H10.2929L13.5867 254.576L6.99919 257.225L3.70545 265.931V278.421L0 286.748Z" fill="#B84416" fill-opacity="0.28"/>
</svg>
