<svg width="204" height="277" viewBox="0 0 204 277" fill="none" xmlns="http://www.w3.org/2000/svg">
<path d="M0 225.651L1.4939 232.502H4.14972V239.173H6.63954L7.80147 242.747L10.4573 241.854L11.7852 245.428L14.607 241.854L15.6029 239.173L17.0968 242.747L20.5826 248.109H24.8983L26.7242 254.959L28.0521 261.81L29.048 264.788L31.7038 263.895L33.0317 266.277L35.0236 269.852L37.0155 268.362L38.0114 271.341L40.9992 272.532L40.0033 273.724L42.3271 274.617L43.489 277L45.1489 273.724L47.6387 274.617L50.4605 272.532L52.2864 268.958L57.2661 271.341L59.0919 274.617L60.7518 268.958L63.7396 265.086L67.2254 267.135L68.0553 260.88L72.205 263.895V266.575L75.3588 263.895L78.6786 267.135L83.3263 266.575L82.9943 262.108L85.6501 263.895L86.4801 259.427L90.2978 260.88L92.4557 258.235H96.9373L97.7673 260.88H99.7592L100.921 262.703L102.083 258.831L104.407 257.008L106.897 260.88L109.552 259.427L111.046 263.895H114.366V260.88L116.524 263.895L119.844 262.108L121.172 265.384L123.828 264.788L124.491 267.767L126.151 269.554L127.147 267.135H129.305L131.795 269.554L134.285 267.767L135.779 270.149L137.439 269.554V272.234L139.43 274.617L142.584 268.958H145.904L144.41 264.788L146.402 260.618L147.066 264.788L148.726 263.597L151.05 265.384V268.958L154.037 267.767L156.029 270.149L158.021 267.171L160.843 267.767L163.333 264.788L162.669 262.703L165.491 263.597V259.725L168.478 261.81L172.13 258.533L175.118 260.32L175.782 262.703L175.948 262.405L177.276 263.299L176.778 265.682H178.272L178.936 263.895L179.932 265.384L180.098 264.192L180.762 263.895V262.703L181.758 261.81L182.753 262.703V263.597L183.583 263.299L184.247 260.618L185.077 262.703L185.907 260.916L185.575 259.725L186.239 258.533L186.571 260.618V254.066H188.231V245.13L191.551 240.662L188.231 235.599V227.259L190.555 226.366L190.389 221.898L193.211 220.409L194.539 217.728L193.875 213.856L194.871 212.367L196.697 213.856L198.522 210.282L198.024 207.601L199.02 204.325L200.514 203.729L201.178 202.24L200.514 201.942L200.016 200.453L200.514 198.963L201.178 196.878L200.514 195.091L201.344 193.9L200.016 192.709L199.684 190.922L200.514 189.73L198.854 189.432V187.645L198.356 186.156L199.186 185.858L198.19 184.369L198.356 182.88H199.02L199.684 181.092L200.182 178.412L198.854 176.327L199.352 172.753L198.024 169.476L198.19 166.2H199.684L200.846 163.519L199.518 162.626L198.19 160.541L197.692 158.754L199.352 156.967L198.356 155.477L198.688 152.797L198.024 151.308L200.348 147.733V145.648L199.352 144.457L200.016 143.266H201.344L202.174 141.479L201.676 139.394H203.336L203.004 137.309L204 137.904V135.224L203.336 132.841H201.676L202.008 130.16L200.846 128.671L200.514 127.182L201.012 126.884L201.676 125.395L200.846 124.501L200.016 120.927L199.352 116.459L201.344 115.863L203.004 109.906L200.348 110.8L198.356 107.524L195.701 100.673L195.203 96.2054L194.373 89.6527H190.721L188.895 81.3129L192.381 76.8452L190.721 73.271L189.559 66.4204L190.721 61.0591L189.559 58.3785L190.555 55.1022L188.231 54.2086V52.1237L189.227 49.443L188.563 46.1667L190.721 43.486L188.563 41.1032L187.567 36.6355L188.231 33.3591L186.737 29.785L184.579 26.8065L183.583 29.4871L183.251 25.6151L181.924 21.743L181.592 16.6796L182.919 13.1054L180.762 10.7226L179.932 4.16989L178.604 5.3613L178.272 7.44623L176.944 6.5527L176.612 2.97849L174.952 0.595703L173.292 2.97849L171.632 0.893555L171.466 2.68066H170.47L169.972 4.16989L169.142 2.97849L169.308 1.78711L168.81 0.893555H167.98L167.483 1.78711H166.985L166.653 1.19141H165.989L165.491 1.48926L165.325 2.38281L165.159 1.78711L164.661 1.48926H164.163L163.997 2.08493V1.19141H163.499L163.001 0.595703L162.669 1.19141L162.337 1.48926L161.839 1.19141L161.673 1.78711V2.08493L161.507 2.38281H161.175L161.009 2.97849L160.677 3.27637V3.87204L160.345 3.57419V3.27637H160.013L159.847 2.97849L159.681 3.57419L159.349 3.27637L159.183 3.87204L158.851 4.46774L158.519 5.06345H159.183L159.017 5.3613L158.519 5.957L158.187 6.5527L157.689 6.85056L157.191 6.5527L156.527 7.44623L155.863 6.5527L155.199 5.957L154.701 6.85056V6.25485L154.037 5.957L153.871 6.5527L153.539 6.85056L153.042 6.5527L152.71 6.85056L152.544 6.25485H152.046L152.212 5.957V5.3613L152.046 5.06345L151.88 5.3613L151.714 5.06345V4.76559H151.382V4.16989L151.216 4.46774L151.05 4.16989H150.718L149.888 3.87204H149.39L149.224 4.76559L148.892 4.46774L148.726 3.87204H148.062L147.73 3.27637L147.232 3.87204L146.9 3.57419L147.066 4.16989H146.568L146.402 3.87204L145.904 4.46774L145.738 4.16989L145.406 4.76559L145.24 4.46774L145.074 5.06345L144.41 5.3613L144.244 5.06345V4.46774L143.912 4.16989L143.58 4.76559L143.746 5.06345H143.414L143.248 4.76559L142.916 5.3613L142.584 5.06345V4.46774H142.418L142.584 3.87204V3.57419L142.252 2.97849L142.086 3.27637L140.924 4.16989L140.094 3.57419L139.43 5.3613L138.932 4.46774L137.771 3.87204L136.941 4.76559L136.277 5.06345L135.447 4.46774L135.613 3.27637L134.783 3.57419L134.285 2.38281L133.787 3.27637L133.289 2.38281L132.625 2.68066V1.48926L131.795 1.78711L131.629 2.38281H130.965L130.467 1.78711L129.969 1.19141L129.305 2.08493L128.973 1.48926H128.143L128.309 2.38281L127.645 1.78711L127.811 2.68066H127.313L126.981 3.27637V3.87204L126.483 3.57419V2.97849L125.985 3.27637L126.151 2.38281L125.653 2.68066L125.321 2.97849L125.155 2.38281L124.657 2.08493L124.823 1.48926L124.159 1.78711V1.48926L123.993 0.893555L123.828 0.595703L123.496 1.48926V0.893555H123.164H122.832L122.666 1.19141L122.334 0.893555V0.297852L122.168 0.595703L121.836 0L121.338 1.19141L121.67 1.78711L121.172 2.38281L121.006 1.78711L120.508 1.19141L119.678 1.48926L118.848 2.38281L119.014 3.27637L118.516 2.38281L118.018 2.97849L118.184 3.87204L117.79 4.76559L117.52 3.87204V3.27637H116.856L116.69 3.87204H116.192L115.964 3.27637L115.362 3.87204V5.06345L115.03 5.21237L114.864 5.957L115.03 6.5527L114.698 6.85056V7.29733L113.868 7.14841L113.37 8.04196H112.706L112.042 7.29733V8.63763L111.378 8.04196L111.046 9.53119L110.714 8.63763H110.216L109.884 9.23334L109.386 8.33978V7.29733L108.557 7.74408L108.391 8.63763L108.059 8.33978H107.561V8.93549L107.063 9.53119L106.897 8.93549L106.565 8.63763L106.233 8.93549V8.04196H105.735L105.403 7.29733L105.071 7.74408L105.237 8.33978L104.739 8.04196L104.241 8.33978V8.93549L103.743 9.23334L103.411 8.63763V8.04196L103.245 7.74408L103.079 7.44623H102.747V8.04196L102.249 7.74408V6.85056L101.917 6.5527V5.957H101.419L100.091 7.74408H98.5972L98.0993 6.5527L96.7714 8.04196V9.53119L95.4435 9.82904L94.4475 8.33978L92.9536 9.53119L92.6216 8.63763L92.2897 10.7226L91.2937 9.23334L91.6257 11.3183L90.2978 10.7226L89.1359 11.1528L88.8039 10.1269L87.808 9.53119L87.144 10.7226L86.4801 9.23334L85.9821 7.28079L84.9862 8.63763L84.3222 7.44623L83.8242 5.957H82.9943L82.4963 7.74408L81.8324 6.5527V5.06345L80.8365 6.25485L79.8405 5.3613L79.3426 4.16989L80.0065 2.97849L78.6786 3.27637L78.1806 2.38281L77.8487 3.27637L76.6867 4.16989L76.0228 3.27637L75.0269 2.97849L74.6949 3.87204L73.533 3.27637L73.035 4.16989L73.201 5.06345L72.205 5.3613L71.5411 4.46774L70.8771 5.06345L70.3792 4.16989L69.7152 5.3613L69.2172 4.46774L68.8853 6.5527L68.5533 5.06345L67.7234 4.76559L67.8893 6.5527L67.2254 6.85056L66.7274 8.04196L66.0635 6.85056L65.2335 8.93549L65.0675 7.74408L64.0716 9.53119L63.0757 9.23334L63.7396 10.7226L62.5777 10.1269L62.2457 11.914L61.5818 10.1269L61.4158 8.63763L60.2539 10.1269L59.5899 8.93549L59.4239 10.1269L59.0919 8.33978L57.764 7.44623L57.1001 8.04196L57.2661 9.53119L55.9382 9.23334L55.2742 8.04196L54.9422 9.53119L53.9463 8.63763L54.1123 7.44623L52.7844 7.14841L52.1204 8.63763L51.6225 7.44623L51.4565 5.957L50.4605 7.14841L49.7966 6.25485L49.2986 7.44623L48.1367 6.25485L48.8007 4.76559L47.9707 3.87204L46.9748 4.46774L47.1408 2.97849L46.1448 3.57419L45.3149 2.68066L44.9829 1.78711L43.655 2.97849L42.6591 1.48926H41.6631L41.4972 3.87204L40.1692 5.06345L39.0073 2.97849L37.6794 5.06345L37.0155 3.87204L35.8535 5.957L34.1937 6.25485L33.1977 8.04196L32.2018 6.5527L32.5338 8.04196L31.7038 9.53119L31.2059 8.04196H29.712L28.55 9.23334L28.882 11.3183L27.8861 11.914L27.2221 11.0204L27.3881 8.63763H26.3922L25.2303 9.53119L25.0643 8.04196L25.3963 6.5527H24.5663L23.9024 7.44623L23.0724 6.5527L22.2425 6.25485L21.5785 7.44623L20.9146 7.74408L20.4166 6.5527L19.7526 7.44623L19.5867 8.63763L18.7567 8.93549L18.4247 7.74408L17.9268 7.44623L17.4288 8.93549L16.7649 7.44623L16.1009 7.74408L15.7689 8.63763L15.6029 8.04196L15.271 8.33978H14.773L14.939 8.93549L14.607 9.53119L14.939 9.82904L14.773 10.4247H14.275L13.943 11.0204L13.6111 11.914L13.1131 11.6161L12.9471 12.2118L12.6151 11.914L12.2832 12.5097H11.9512L11.7852 11.914L11.2872 11.3183L11.1212 12.5097L10.7893 12.2118H10.4573L10.2913 11.6161H10.1253L10.2913 11.0204L10.1253 10.7226L9.79333 10.1269H9.29536V10.7226L8.63141 10.4247L8.29943 9.71033L8.13344 10.6039H7.96745L7.70373 10.4247L7.46949 10.9017L7.13751 11.4974L6.80553 10.7226L6.63954 11.7953H6.14158L5.64361 12.5097L5.47762 13.4032V13.9989H5.64361L5.31164 14.5946L4.97966 14.2968V14.8925L4.81367 15.4882V16.0839L4.48169 16.3817V16.9774L4.81367 17.2753H4.64768L4.3157 18.1688V19.0624L4.48169 20.2538H3.81774L3.98373 21.1473L3.48576 21.4452V22.0409L3.31977 22.3387L3.48576 23.2323L3.15378 24.1258H3.65175L3.81774 25.0193L3.65175 25.9129H3.31977L3.65175 27.1043L3.15378 28.2957L3.81774 29.4871L2.9878 30.0828V31.2742L3.15378 33.0613H3.65175V34.2527L3.15378 35.7419L2.15785 36.9333L2.9878 38.4226V40.5075L3.31977 41.6989L3.15378 42.8903H3.65175L3.81774 44.0817L3.15378 44.3796L3.48576 45.8688L2.9878 46.1667L3.48576 46.7624L3.31977 48.2516L3.65175 49.7409L4.3157 49.443L4.48169 50.6344L4.3157 51.8258H4.81367L4.64768 53.3151L5.31164 53.9108V55.1022L5.8096 55.6979V56.8893L5.47762 57.485L5.64361 58.3785L5.31164 58.9742H4.97966L5.31164 60.1656L5.06265 61.0591L5.14565 62.2505L5.47762 62.8463L4.81367 63.1441L5.14565 64.3355L5.97559 64.6333L6.63954 66.1226L6.47356 67.6118L5.97559 68.5054L5.14565 68.8032L5.47762 69.9946L4.73068 70.2925L4.64768 70.8882L4.81367 71.8451L4.3157 72.3774L4.81367 73.271L4.48169 74.4624V75.6538L3.81774 75.9516H3.15378V77.143L2.15785 76.5473L2.32384 77.7387L2.82181 78.6323L2.48983 79.4638L1.99186 79.7049L2.48983 81.3129L3.15378 81.6108L3.31977 82.8022L2.48983 83.8748L2.9878 84.2914V85.4828L3.48576 86.5555L2.65582 86.2576L2.32384 87.7469L2.82181 88.9382L2.15785 88.3425L2.32384 90.1297L1.32791 90.7253L2.65582 92.2146L2.32384 94.5974L2.65582 94.8952L2.32384 97.5759L2.9878 98.1716L3.48576 98.4694L3.31977 99.9587L3.81774 100.554L4.14972 102.044L3.81774 103.235L2.9878 104.426L3.65175 105.022L3.81774 107.107V108.596L4.48169 109.49L3.65175 110.383L3.48576 111.575L2.65582 112.468L2.32384 114.553L2.48983 117.532L3.48576 117.83L1.99186 120.212L2.32384 122L3.15378 124.978L4.48169 126.169L3.15378 129.744L1.99186 129.148L3.81774 131.829V135.998L5.64361 135.403L6.30757 136.892L6.14158 140.466L4.81367 141.658L3.48576 143.147L5.64361 144.338L6.14158 147.615L5.14565 150.295V154.465L3.81774 155.359L4.81367 158.635L3.81774 160.422H2.32384L3.81774 164.592L4.3157 166.975L2.48983 169.358L0.829943 169.953L2.48983 172.634L2.65582 175.91L1.4939 179.782L0 179.187L1.4939 184.25L4.14972 185.441V190.505L1.4939 196.164H4.14972L5.47762 200.334L2.82181 202.419L1.4939 209.269V219.098L0 225.651Z" fill="#F4F4F4"/>
</svg>
