<svg width="1512" height="102" viewBox="0 0 1512 102" fill="none" xmlns="http://www.w3.org/2000/svg">
<path d="M0 46.7826V10.776L9.47012 7.18403L10.4386 8.31142H11.9299V8.76402H12.6755L13.4211 9.5787L14.1667 9.21662L14.5608 9.5787L15.6579 9.66923L16.4035 10.1218H17.1492L17.434 10.5744H18.1796L18.3338 11.1751L19.6708 11.027V10.5744H20.4164L20.8983 10.4098L21.9076 9.66923L22.6533 10.1218L23.3989 9.66923L23.8597 9.5787L27.5878 10.1218L29.079 8.38136L32.8071 7.40621L33.5737 7.45732L33.9289 7.40621L34.3193 7.00472H35.065L34.8707 7.24163L35.8106 7.00472V7.24163L36.5562 6.78903V6.33643L37.3018 6.55212L38.0474 6.33643L38.4008 6.50101L38.8642 6.04841H39.5387L40.2843 6.33643H41.0299V6.78903H41.7755L42.0995 6.50101L42.5211 6.78903L43.2667 7.24163L44.0123 6.78903H44.758V6.33643H45.5036L46.4073 5.98669L46.9738 6.04841L47.7194 6.50101H48.465H49.2106L48.465 6.95361L49.2106 7.40621L49.9562 7.85881L50.7019 7.40621L51.4475 7.18403L52.1931 7.40621V7.85881L53.6843 7.40621L53.8552 7.98225L54.4299 7.40621L55.8864 7.18403H56.5635L57.2406 6.78491L56.5635 6.3858H57.2406L57.9176 6.78491V6.3858L59.2718 6.78491V5.98669L59.9489 6.3858V6.78491H60.626V6.3858L61.303 6.78491V6.3858L61.9801 5.98669L62.6572 6.3858H63.3343V6.78491L64.0114 7.18403L64.6884 7.58314L65.3655 7.18403V7.58314H66.0426L66.7196 7.98225L66.0426 8.38136H66.7196L67.3967 7.58314H68.0737L67.3967 7.18403H68.0737H68.7508L70.105 6.78491L72.1362 8.78047L76.1987 9.5787L76.8758 8.78047L78.2299 9.17959V8.38136L78.907 8.78047H79.5841L80.2612 8.38136L81.6153 8.78047L82.2924 9.17959L84.3236 8.78047L86.3548 9.5787L87.709 8.38136L88.386 9.5787H90.4173L91.7714 10.776L93.1256 9.97781L93.8027 9.17959H95.1568L96.511 8.38136L101.25 7.98225L102.605 5.58758L105.99 3.99112H108.021L110.052 4.78935L112.761 3.99112H115.469L118.177 2.79379H120.886L122.917 1.99556L124.948 0L129.011 5.98669H139.167L150 10.776V102H0V46.7826Z" fill="#FFFFFF"/>
<path d="M150 46.7826V10.776L159.47 7.18403L160.439 8.31142H161.93V8.76402H162.675L163.421 9.5787L164.167 9.21662L164.561 9.5787L165.658 9.66923L166.404 10.1218H167.149L167.434 10.5744H168.18L168.334 11.1751L169.671 11.027V10.5744H170.416L170.898 10.4098L171.908 9.66923L172.653 10.1218L173.399 9.66923L173.86 9.5787L177.588 10.1218L179.079 8.38136L182.807 7.40621L183.574 7.45732L183.929 7.40621L184.319 7.00472H185.065L184.871 7.24163L185.811 7.00472V7.24163L186.556 6.78903V6.33643L187.302 6.55212L188.047 6.33643L188.401 6.50101L188.864 6.04841H189.539L190.284 6.33643H191.03V6.78903H191.776L192.099 6.50101L192.521 6.78903L193.267 7.24163L194.012 6.78903H194.758V6.33643H195.504L196.407 5.98669L196.974 6.04841L197.719 6.50101H198.465H199.211L198.465 6.95361L199.211 7.40621L199.956 7.85881L200.702 7.40621L201.447 7.18403L202.193 7.40621V7.85881L203.684 7.40621L203.855 7.98225L204.43 7.40621L205.886 7.18403H206.563L207.241 6.78491L206.563 6.3858H207.241L207.918 6.78491V6.3858L209.272 6.78491V5.98669L209.949 6.3858V6.78491H210.626V6.3858L211.303 6.78491V6.3858L211.98 5.98669L212.657 6.3858H213.334V6.78491L214.011 7.18403L214.688 7.58314L215.366 7.18403V7.58314H216.043L216.72 7.98225L216.043 8.38136H216.72L217.397 7.58314H218.074L217.397 7.18403H218.074H218.751L220.105 6.78491L222.136 8.78047L226.199 9.5787L226.876 8.78047L228.23 9.17959V8.38136L228.907 8.78047H229.584L230.261 8.38136L231.615 8.78047L232.292 9.17959L234.324 8.78047L236.355 9.5787L237.709 8.38136L238.386 9.5787H240.417L241.771 10.776L243.126 9.97781L243.803 9.17959H245.157L246.511 8.38136L251.25 7.98225L252.605 5.58758L255.99 3.99112H258.021L260.052 4.78935L262.761 3.99112H265.469L268.177 2.79379H270.886L272.917 1.99556L274.948 0L279.011 5.98669H289.167L300 10.776V102H150V46.7826Z" fill="#FFFFFF"/>
<path d="M300 46.7826V10.776L309.47 7.18403L310.439 8.31142H311.93V8.76402H312.675L313.421 9.5787L314.167 9.21662L314.561 9.5787L315.658 9.66923L316.404 10.1218H317.149L317.434 10.5744H318.18L318.334 11.1751L319.671 11.027V10.5744H320.416L320.898 10.4098L321.908 9.66923L322.653 10.1218L323.399 9.66923L323.86 9.5787L327.588 10.1218L329.079 8.38136L332.807 7.40621L333.574 7.45732L333.929 7.40621L334.319 7.00472H335.065L334.871 7.24163L335.811 7.00472V7.24163L336.556 6.78903V6.33643L337.302 6.55212L338.047 6.33643L338.401 6.50101L338.864 6.04841H339.539L340.284 6.33643H341.03V6.78903H341.776L342.099 6.50101L342.521 6.78903L343.267 7.24163L344.012 6.78903H344.758V6.33643H345.504L346.407 5.98669L346.974 6.04841L347.719 6.50101H348.465H349.211L348.465 6.95361L349.211 7.40621L349.956 7.85881L350.702 7.40621L351.447 7.18403L352.193 7.40621V7.85881L353.684 7.40621L353.855 7.98225L354.43 7.40621L355.886 7.18403H356.563L357.241 6.78491L356.563 6.3858H357.241L357.918 6.78491V6.3858L359.272 6.78491V5.98669L359.949 6.3858V6.78491H360.626V6.3858L361.303 6.78491V6.3858L361.98 5.98669L362.657 6.3858H363.334V6.78491L364.011 7.18403L364.688 7.58314L365.366 7.18403V7.58314H366.043L366.72 7.98225L366.043 8.38136H366.72L367.397 7.58314H368.074L367.397 7.18403H368.074H368.751L370.105 6.78491L372.136 8.78047L376.199 9.5787L376.876 8.78047L378.23 9.17959V8.38136L378.907 8.78047H379.584L380.261 8.38136L381.615 8.78047L382.292 9.17959L384.324 8.78047L386.355 9.5787L387.709 8.38136L388.386 9.5787H390.417L391.771 10.776L393.126 9.97781L393.803 9.17959H395.157L396.511 8.38136L401.25 7.98225L402.605 5.58758L405.99 3.99112H408.021L410.052 4.78935L412.761 3.99112H415.469L418.177 2.79379H420.886L422.917 1.99556L424.948 0L429.011 5.98669H439.167L450 10.776V102H300V46.7826Z" fill="#FFFFFF"/>
<path d="M600 46.7826V10.776L590.53 7.18403L589.561 8.31142H588.07V8.76402H587.325L586.579 9.5787L585.833 9.21662L585.439 9.5787L584.342 9.66923L583.596 10.1218H582.851L582.566 10.5744H581.82L581.666 11.1751L580.329 11.027V10.5744H579.584L579.102 10.4098L578.092 9.66923L577.347 10.1218L576.601 9.66923L576.14 9.5787L572.412 10.1218L570.921 8.38136L567.193 7.40621L566.426 7.45732L566.071 7.40621L565.681 7.00472H564.935L565.129 7.24163L564.189 7.00472V7.24163L563.444 6.78903V6.33643L562.698 6.55212L561.953 6.33643L561.599 6.50101L561.136 6.04841H560.461L559.716 6.33643H558.97V6.78903H558.224L557.901 6.50101L557.479 6.78903L556.733 7.24163L555.988 6.78903H555.242V6.33643H554.496L553.593 5.98669L553.026 6.04841L552.281 6.50101H551.535H550.789L551.535 6.95361L550.789 7.40621L550.044 7.85881L549.298 7.40621L548.553 7.18403L547.807 7.40621V7.85881L546.316 7.40621L546.145 7.98225L545.57 7.40621L544.114 7.18403H543.437L542.759 6.78491L543.437 6.3858H542.759L542.082 6.78491V6.3858L540.728 6.78491V5.98669L540.051 6.3858V6.78491H539.374V6.3858L538.697 6.78491V6.3858L538.02 5.98669L537.343 6.3858H536.666V6.78491L535.989 7.18403L535.312 7.58314L534.634 7.18403V7.58314H533.957L533.28 7.98225L533.957 8.38136H533.28L532.603 7.58314H531.926L532.603 7.18403H531.926H531.249L529.895 6.78491L527.864 8.78047L523.801 9.5787L523.124 8.78047L521.77 9.17959V8.38136L521.093 8.78047H520.416L519.739 8.38136L518.385 8.78047L517.708 9.17959L515.676 8.78047L513.645 9.5787L512.291 8.38136L511.614 9.5787H509.583L508.229 10.776L506.874 9.97781L506.197 9.17959H504.843L503.489 8.38136L498.75 7.98225L497.395 5.58758L494.01 3.99112H491.979L489.948 4.78935L487.239 3.99112H484.531L481.823 2.79379H479.114L477.083 1.99556L475.052 0L470.989 5.98669H460.833L450 10.776V102H600V46.7826Z" fill="#FFFFFF"/>
<path d="M600 46.7826V10.776L616.794 7.18403L618.511 8.31142H621.156V8.76402H622.478L623.8 9.5787L625.122 9.21662L625.821 9.5787L627.767 9.66923L629.089 10.1218H630.411L630.916 10.5744H632.238L632.512 11.1751L634.883 11.027V10.5744H636.205L637.06 10.4098L638.85 9.66923L640.172 10.1218L641.494 9.66923L642.311 9.5787L648.922 10.1218L651.567 8.38136L658.178 7.40621L659.537 7.45732L660.167 7.40621L660.86 7.00472H662.182L661.837 7.24163L663.504 7.00472V7.24163L664.826 6.78903V6.33643L666.149 6.55212L667.471 6.33643L668.097 6.50101L668.919 6.04841H670.115L671.437 6.33643H672.76V6.78903H674.082L674.656 6.50101L675.404 6.78903L676.726 7.24163L678.049 6.78903H679.371V6.33643H680.693L682.296 5.98669L683.3 6.04841L684.622 6.50101H685.945H687.267L685.945 6.95361L687.267 7.40621L688.589 7.85881L689.911 7.40621L691.234 7.18403L692.556 7.40621V7.85881L695.2 7.40621L695.503 7.98225L696.522 7.40621L699.105 7.18403H700.306L701.507 6.78491L700.306 6.3858H701.507L702.707 6.78491V6.3858L705.109 6.78491V5.98669L706.309 6.3858V6.78491H707.51V6.3858L708.711 6.78491V6.3858L709.911 5.98669L711.112 6.3858H712.313V6.78491L713.513 7.18403L714.714 7.58314L715.915 7.18403V7.58314H717.116L718.316 7.98225L717.116 8.38136H718.316L719.517 7.58314H720.717L719.517 7.18403H720.717H721.918L724.32 6.78491L727.922 8.78047L735.126 9.5787L736.326 8.78047L738.728 9.17959V8.38136L739.928 8.78047H741.129L742.33 8.38136L744.731 8.78047L745.932 9.17959L749.534 8.78047L753.136 9.5787L755.537 8.38136L756.738 9.5787H760.34L762.741 10.776L765.143 9.97781L766.343 9.17959H768.745L771.146 8.38136L779.551 7.98225L781.952 5.58758L787.956 3.99112H791.558L795.16 4.78935L799.962 3.99112H804.765L809.568 2.79379H814.371L817.973 1.99556L821.575 0L828.779 5.98669H846.789L866 10.776V102H600V46.7826Z" fill="#FFFFFF"/>
<path d="M866 46.7826V10.776L874.46 7.18403L875.325 8.31142H876.657V8.76402H877.323L877.99 9.5787L878.656 9.21662L879.008 9.5787L879.988 9.66923L880.654 10.1218H881.32L881.574 10.5744H882.24L882.378 11.1751L883.573 11.027V10.5744H884.239L884.669 10.4098L885.571 9.66923L886.237 10.1218L886.903 9.66923L887.315 9.5787L890.645 10.1218L891.977 8.38136L895.308 7.40621L895.993 7.45732L896.31 7.40621L896.659 7.00472H897.325L897.151 7.24163L897.991 7.00472V7.24163L898.657 6.78903V6.33643L899.323 6.55212L899.989 6.33643L900.305 6.50101L900.719 6.04841H901.321L901.987 6.33643H902.653V6.78903H903.319L903.609 6.50101L903.986 6.78903L904.652 7.24163L905.318 6.78903H905.984V6.33643H906.65L907.457 5.98669L907.963 6.04841L908.629 6.50101H909.295H909.962L909.295 6.95361L909.962 7.40621L910.628 7.85881L911.294 7.40621L911.96 7.18403L912.626 7.40621V7.85881L913.958 7.40621L914.111 7.98225L914.624 7.40621L915.925 7.18403H916.53L917.135 6.78491L916.53 6.3858H917.135L917.74 6.78491V6.3858L918.949 6.78491V5.98669L919.554 6.3858V6.78491H920.159V6.3858L920.764 6.78491V6.3858L921.369 5.98669L921.974 6.3858H922.579V6.78491L923.183 7.18403L923.788 7.58314L924.393 7.18403V7.58314H924.998L925.603 7.98225L924.998 8.38136H925.603L926.208 7.58314H926.813L926.208 7.18403H926.813H927.417L928.627 6.78491L930.442 8.78047L934.071 9.5787L934.676 8.78047L935.885 9.17959V8.38136L936.49 8.78047H937.095L937.7 8.38136L938.91 8.78047L939.515 9.17959L941.329 8.78047L943.144 9.5787L944.353 8.38136L944.958 9.5787H946.773L947.982 10.776L949.192 9.97781L949.797 9.17959H951.007L952.216 8.38136L956.45 7.98225L957.66 5.58758L960.684 3.99112H962.499L964.314 4.78935L966.733 3.99112H969.152L971.572 2.79379H973.991L975.806 1.99556L977.62 0L981.249 5.98669H990.322L1000 10.776V102H866V46.7826Z" fill="#FFFFFF"/>
<path d="M1000 46.7826V10.776L1009.47 7.18403L1010.44 8.31142H1011.93V8.76402H1012.68L1013.42 9.5787L1014.17 9.21662L1014.56 9.5787L1015.66 9.66923L1016.4 10.1218H1017.15L1017.43 10.5744H1018.18L1018.33 11.1751L1019.67 11.027V10.5744H1020.42L1020.9 10.4098L1021.91 9.66923L1022.65 10.1218L1023.4 9.66923L1023.86 9.5787L1027.59 10.1218L1029.08 8.38136L1032.81 7.40621L1033.57 7.45732L1033.93 7.40621L1034.32 7.00472H1035.06L1034.87 7.24163L1035.81 7.00472V7.24163L1036.56 6.78903V6.33643L1037.3 6.55212L1038.05 6.33643L1038.4 6.50101L1038.86 6.04841H1039.54L1040.28 6.33643H1041.03V6.78903H1041.78L1042.1 6.50101L1042.52 6.78903L1043.27 7.24163L1044.01 6.78903H1044.76V6.33643H1045.5L1046.41 5.98669L1046.97 6.04841L1047.72 6.50101H1048.47H1049.21L1048.47 6.95361L1049.21 7.40621L1049.96 7.85881L1050.7 7.40621L1051.45 7.18403L1052.19 7.40621V7.85881L1053.68 7.40621L1053.86 7.98225L1054.43 7.40621L1055.89 7.18403H1056.56L1057.24 6.78491L1056.56 6.3858H1057.24L1057.92 6.78491V6.3858L1059.27 6.78491V5.98669L1059.95 6.3858V6.78491H1060.63V6.3858L1061.3 6.78491V6.3858L1061.98 5.98669L1062.66 6.3858H1063.33V6.78491L1064.01 7.18403L1064.69 7.58314L1065.37 7.18403V7.58314H1066.04L1066.72 7.98225L1066.04 8.38136H1066.72L1067.4 7.58314H1068.07L1067.4 7.18403H1068.07H1068.75L1070.1 6.78491L1072.14 8.78047L1076.2 9.5787L1076.88 8.78047L1078.23 9.17959V8.38136L1078.91 8.78047H1079.58L1080.26 8.38136L1081.62 8.78047L1082.29 9.17959L1084.32 8.78047L1086.35 9.5787L1087.71 8.38136L1088.39 9.5787H1090.42L1091.77 10.776L1093.13 9.97781L1093.8 9.17959H1095.16L1096.51 8.38136L1101.25 7.98225L1102.6 5.58758L1105.99 3.99112H1108.02L1110.05 4.78935L1112.76 3.99112H1115.47L1118.18 2.79379H1120.89L1122.92 1.99556L1124.95 0L1129.01 5.98669H1139.17L1150 10.776V102H1000V46.7826Z" fill="#FFFFFF"/>
<path d="M1150 46.7826V10.776L1159.47 7.18403L1160.44 8.31142H1161.93V8.76402H1162.68L1163.42 9.5787L1164.17 9.21662L1164.56 9.5787L1165.66 9.66923L1166.4 10.1218H1167.15L1167.43 10.5744H1168.18L1168.33 11.1751L1169.67 11.027V10.5744H1170.42L1170.9 10.4098L1171.91 9.66923L1172.65 10.1218L1173.4 9.66923L1173.86 9.5787L1177.59 10.1218L1179.08 8.38136L1182.81 7.40621L1183.57 7.45732L1183.93 7.40621L1184.32 7.00472H1185.06L1184.87 7.24163L1185.81 7.00472V7.24163L1186.56 6.78903V6.33643L1187.3 6.55212L1188.05 6.33643L1188.4 6.50101L1188.86 6.04841H1189.54L1190.28 6.33643H1191.03V6.78903H1191.78L1192.1 6.50101L1192.52 6.78903L1193.27 7.24163L1194.01 6.78903H1194.76V6.33643H1195.5L1196.41 5.98669L1196.97 6.04841L1197.72 6.50101H1198.47H1199.21L1198.47 6.95361L1199.21 7.40621L1199.96 7.85881L1200.7 7.40621L1201.45 7.18403L1202.19 7.40621V7.85881L1203.68 7.40621L1203.86 7.98225L1204.43 7.40621L1205.89 7.18403H1206.56L1207.24 6.78491L1206.56 6.3858H1207.24L1207.92 6.78491V6.3858L1209.27 6.78491V5.98669L1209.95 6.3858V6.78491H1210.63V6.3858L1211.3 6.78491V6.3858L1211.98 5.98669L1212.66 6.3858H1213.33V6.78491L1214.01 7.18403L1214.69 7.58314L1215.37 7.18403V7.58314H1216.04L1216.72 7.98225L1216.04 8.38136H1216.72L1217.4 7.58314H1218.07L1217.4 7.18403H1218.07H1218.75L1220.1 6.78491L1222.14 8.78047L1226.2 9.5787L1226.88 8.78047L1228.23 9.17959V8.38136L1228.91 8.78047H1229.58L1230.26 8.38136L1231.62 8.78047L1232.29 9.17959L1234.32 8.78047L1236.35 9.5787L1237.71 8.38136L1238.39 9.5787H1240.42L1241.77 10.776L1243.13 9.97781L1243.8 9.17959H1245.16L1246.51 8.38136L1251.25 7.98225L1252.6 5.58758L1255.99 3.99112H1258.02L1260.05 4.78935L1262.76 3.99112H1265.47L1268.18 2.79379H1270.89L1272.92 1.99556L1274.95 0L1279.01 5.98669H1289.17L1300 10.776V102H1150V46.7826Z" fill="#FFFFFF"/>
<path d="M1300 46.7826V10.776L1313.38 7.18403L1314.75 8.31142H1316.86V8.76402H1317.91L1318.97 9.5787L1320.02 9.21662L1320.58 9.5787L1322.13 9.66923L1323.18 10.1218H1324.24L1324.64 10.5744H1325.69L1325.91 11.1751L1327.8 11.027V10.5744H1328.86L1329.54 10.4098L1330.96 9.66923L1332.02 10.1218L1333.07 9.66923L1333.72 9.5787L1338.99 10.1218L1341.1 8.38136L1346.37 7.40621L1347.45 7.45732L1347.95 7.40621L1348.5 7.00472H1349.56L1349.28 7.24163L1350.61 7.00472V7.24163L1351.67 6.78903V6.33643L1352.72 6.55212L1353.77 6.33643L1354.27 6.50101L1354.93 6.04841H1355.88L1356.94 6.33643H1357.99V6.78903H1359.04L1359.5 6.50101L1360.1 6.78903L1361.15 7.24163L1362.2 6.78903H1363.26V6.33643H1364.31L1365.59 5.98669L1366.39 6.04841L1367.44 6.50101H1368.5H1369.55L1368.5 6.95361L1369.55 7.40621L1370.6 7.85881L1371.66 7.40621L1372.71 7.18403L1373.77 7.40621V7.85881L1375.87 7.40621L1376.12 7.98225L1376.93 7.40621L1378.99 7.18403H1379.94L1380.9 6.78491L1379.94 6.3858H1380.9L1381.86 6.78491V6.3858L1383.77 6.78491V5.98669L1384.73 6.3858V6.78491H1385.68V6.3858L1386.64 6.78491V6.3858L1387.6 5.98669L1388.56 6.3858H1389.51V6.78491L1390.47 7.18403L1391.43 7.58314L1392.38 7.18403V7.58314H1393.34L1394.3 7.98225L1393.34 8.38136H1394.3L1395.25 7.58314H1396.21L1395.25 7.18403H1396.21H1397.17L1399.08 6.78491L1401.95 8.78047L1407.69 9.5787L1408.65 8.78047L1410.56 9.17959V8.38136L1411.52 8.78047H1412.48L1413.44 8.38136L1415.35 8.78047L1416.31 9.17959L1419.18 8.78047L1422.05 9.5787L1423.96 8.38136L1424.92 9.5787H1427.79L1429.7 10.776L1431.62 9.97781L1432.57 9.17959H1434.49L1436.4 8.38136L1443.1 7.98225L1445.01 5.58758L1449.8 3.99112H1452.67L1455.54 4.78935L1459.37 3.99112H1463.2L1467.02 2.79379H1470.85L1473.72 1.99556L1476.59 0L1482.34 5.98669H1496.69L1512 10.776V102H1300V46.7826Z" fill="#FFFFFF"/>
</svg>
