    <svg width="1512" height="463" viewBox="0 0 1512 463" fill="none" xmlns="http://www.w3.org/2000/svg">
    <path d="M-805 264.368C-805 264.368 -616 198.675 -427 198.675C-238 198.675 -49 264.368 -49 264.368C-49 264.368 140 330.062 329 330.062C518 330.062 707 264.368 707 264.368C707 264.368 896 198.675 1085 198.675C1274 198.675 1463 264.368 1463 264.368C1463 264.368 1652 330.062 1841 330.062C2030 330.062 2219 264.368 2219 264.368" stroke="#EEE2BB" stroke-width="2.5"/>
    <path d="M-805 198.675C-805 198.675 -616 132.981 -427 132.981C-238 132.981 -49 198.675 -49 198.675C-49 198.675 140 264.369 329 264.369C518 264.369 707 198.675 707 198.675C707 198.675 896 132.981 1085 132.981C1274 132.981 1463 198.675 1463 198.675C1463 198.675 1652 264.369 1841 264.369C2030 264.369 2219 198.675 2219 198.675" stroke="#EEE2BB" stroke-width="2.5"/>
    <path d="M-805 330.062C-805 330.062 -616 264.368 -427 264.368C-238 264.368 -49 330.062 -49 330.062C-49 330.062 140 395.755 329 395.755C518 395.755 707 330.062 707 330.062C707 330.062 896 264.368 1085 264.368C1274 264.368 1463 330.062 1463 330.062C1463 330.062 1652 395.755 1841 395.755C2030 395.755 2219 330.062 2219 330.062" stroke="#EEE2BB" stroke-width="2.5"/>
    <path d="M-805 132.981C-805 132.981 -616 67.2876 -427 67.2876C-238 67.2876 -49 132.981 -49 132.981C-49 132.981 140 198.675 329 198.675C518 198.675 707 132.981 707 132.981C707 132.981 896 67.2876 1085 67.2876C1274 67.2876 1463 132.981 1463 132.981C1463 132.981 1652 198.675 1841 198.675C2030 198.675 2219 132.981 2219 132.981" stroke="#EEE2BB" stroke-width="2.5"/>
    <path d="M-805 67.2878C-805 67.2878 -616 1.59424 -427 1.59424C-238 1.59424 -49 67.2878 -49 67.2878C-49 67.2878 140 132.981 329 132.981C518 132.981 707 67.2878 707 67.2878C707 67.2878 896 1.59424 1085 1.59424C1274 1.59424 1463 67.2878 1463 67.2878C1463 67.2878 1652 132.981 1841 132.981C2030 132.981 2219 67.2878 2219 67.2878" stroke="#EEE2BB" stroke-width="2.5"/>
    <path d="M-805 395.756C-805 395.756 -616 330.062 -427 330.062C-238 330.062 -49 395.756 -49 395.756C-49 395.756 140 461.449 329 461.449C518 461.449 707 395.756 707 395.756C707 395.756 896 330.062 1085 330.062C1274 330.062 1463 395.756 1463 395.756C1463 395.756 1652 461.449 1841 461.449C2030 461.449 2219 395.756 2219 395.756" stroke="#EEE2BB" stroke-width="2.5"/>
    </svg>