<svg width="1512" height="300" viewBox="0 0 1512 300" fill="none" xmlns="http://www.w3.org/2000/svg">
<path d="M0.107422 219.038V41.2768L17.1074 42.2816L21.1074 35.3656L27.6074 40.3742L40.6074 41.2768L43.6074 37.1951L56.6074 35.3656L51.6074 31.3436L72.6074 33.5781L78.1074 27.6579L95.5663 23.5433L105.329 29.1092H120.36V31.3436H127.876L135.392 35.3656L142.908 33.5781L146.88 35.3656L157.939 35.8125L165.455 38.047H172.971L175.842 40.2815H183.357L184.912 43.2472L198.389 42.5159V40.2815H205.905L210.762 39.4689L220.937 35.8125L228.452 38.047L235.968 35.8125L240.613 35.3656L278.192 38.047L293.224 29.4545L330.803 24.6402L338.531 24.8926L342.111 24.6402L346.046 22.6581H353.562L351.604 23.8277L361.078 22.6581V23.8277L368.594 21.5933V19.3588L376.11 20.4237L383.625 19.3588L387.188 20.1713L391.859 17.9369H398.657L406.173 19.3588H413.689V21.5933H421.204L424.47 20.1713L428.72 21.5933L436.236 23.8277L443.752 21.5933H451.268V19.3588H458.784L467.893 17.6322L473.603 17.9369L481.119 20.1713H488.635H496.151L488.635 22.4058L496.151 24.6402L503.666 26.8747L511.182 24.6402L518.698 23.5433L526.214 24.6402V26.8747L541.245 24.6402L542.968 27.4841L548.761 24.6402L563.442 23.5433H570.267L577.092 21.573L570.267 19.6026H577.092L583.917 21.573V19.6026L597.567 21.573V17.6322L604.392 19.6026V21.573H611.217V19.6026L618.042 21.573V19.6026L624.867 17.6322L631.692 19.6026H638.517V21.573L645.342 23.5433L652.167 25.5137L658.992 23.5433V25.5137H665.817L672.641 27.4841L665.817 29.4545H672.641L679.466 25.5137H686.291L679.466 23.5433H686.291H693.116L706.766 21.573L713.107 23.843L720.474 20.3461L726.107 25.5137L728.607 31.4249H735.107L745.107 27.4841V34.334L768.19 35.3656L775.015 31.4249L788.665 33.3952V29.4545L795.49 31.4249H802.315L809.14 29.4545L822.79 31.4249L829.615 33.3952L840.107 35.3656L850.089 31.4249L852.607 36.2414L870.564 35.3656L884.214 29.4545L891.039 35.3656L901.107 40.0563L911.514 35.3656V40.0563L925.164 41.2768L938.813 37.336L945.638 33.3952H959.288L972.938 29.4545L983.107 33.3952L990.607 24.7968L1002.61 23.2072L1020.71 27.4841L1034.36 15.6618L1055.11 17.8028V11.721L1068.49 7.78027H1088.96L1093.61 15.6618H1119.11L1124.11 7.78027L1139.61 11.721L1146.11 7.78027H1164.04L1180.61 0L1184.11 1.86912L1195.61 7.78027H1206.11L1209.11 2.94188L1221.11 7.78027H1227.11H1241.61L1250.61 2.94188L1256.61 4.92552L1267.61 1.12389V4.92552L1272.11 7.78027H1284.11L1286.11 12.8732L1298.11 14.1448L1300.53 17.6322L1306.61 20.9819L1312.11 18.4386L1317.61 20.9819L1325.61 21.6177L1328.11 19.0744L1329.11 14.1448H1336.61L1338.61 16.2133L1345.11 15.2595L1352.11 10.8088L1352.61 12.7163L1355.11 12.3984L1359.11 14.6237V13.0342L1364.11 11.4447H1366.11L1368.61 12.7163L1367.61 14.9416L1369.61 14.6237L1371.11 15.8954L1374.61 16.2133L1376.61 14.3058L1380.11 15.2595L1380.61 13.3521L1383.61 12.7163L1385.61 13.67L1388.61 12.7163L1392.11 14.9416L1394.61 13.0342L1398.61 13.3521L1397.11 15.5774L1403.11 14.6237L1405.11 12.7163L1409.61 18.1207H1414.11L1416.61 21.2998L1419.61 20.9819L1423.11 18.1207L1425.11 19.7102L1432.11 21.2998V23.5251L1438.61 24.4788L1436.61 25.1147L1435.11 27.6579L1437.61 27.34L1440.61 28.6116L1440.11 31.4728L1443.61 30.837L1445.11 33.3802L1448.11 33.6982L1451.11 37.1951H1454.11L1457.61 34.8088L1461.61 35.1267L1465.61 38.3057L1467.61 36.7162L1472.61 37.5089L1475.61 39.7384L1474.11 41.2768L1478.61 41.01L1480.11 42.2816H1483.61L1487.11 41.2768L1487.61 39.7384L1491.61 40.6921L1496.11 39.4205L1500.11 38.4668L1502.11 41.2768L1505.11 40.3742L1512.11 41.2768V300H745.107H0.107422V219.038Z" fill="#F2CD5C"/>
</svg>
